<?xml version="1.0" encoding="utf-8"?>
<!-- Generator: Adobe Illustrator 17.1.0, SVG Export Plug-In . SVG Version: 6.00 Build 0)  -->
<!DOCTYPE svg PUBLIC "-//W3C//DTD SVG 1.1//EN" "http://www.w3.org/Graphics/SVG/1.1/DTD/svg11.dtd">
<svg version="1.1" id="Layer_1" xmlns="http://www.w3.org/2000/svg" xmlns:xlink="http://www.w3.org/1999/xlink" x="0px" y="0px"
	 viewBox="0 0 178 54" enable-background="new 0 0 178 54" xml:space="preserve">
<title>Logo Combo 3 Copy</title>
<desc>Created with Sketch.</desc>
<g>
	<g>
		<path fill="#F2F3F7" d="M11.9,6.5c0.4,0,0.5-0.6,0.9-0.5c0.4,0,0.4,0.5,0.7,0.5c1.3,0.3,2.5,0.6,3.8,0.8c0.2-0.2,0.6-0.4,0.8-0.2
			c0.4,0.3,0.3,1-0.1,1.3c0,1.8,0.1,3.6,0.2,5.5c0.2,0.2,0.4,0.4,0.4,0.7c0,0.3-0.2,0.5-0.4,0.7c0,2-0.1,3.9-0.2,5.9
			c0.1,0.1,0.2,0.3,0.3,0.4c1.9,0.2,3.8,0.4,5.8,0.6c0.1-0.1,0.3-0.3,0.5-0.3c0.3,0,0.5,0.2,0.6,0.4c2,0,4,0,6,0
			c0.3,0,0.4-0.3,0.6-0.4c0-1.1,0-2.3,0-3.4c-0.2-0.3-0.5-0.5-0.4-0.9c0-0.3,0.3-0.4,0.4-0.6c0-0.6,0-1.1,0.1-1.7
			c-1.1,0.2-2.3,0.3-3.4,0.5c-0.2,0.2-0.3,0.5-0.7,0.5c-0.3,0-0.4-0.3-0.6-0.5c-0.7-0.1-1.3-0.1-2-0.1c-0.1-0.4-0.1-0.9-0.3-1.3
			c-0.2-0.4,0.2-0.8,0.2-1.2c0-1.8,0-3.6,0-5.4c-0.5-0.4-0.7-1.3-0.1-1.7c0.4-0.2,0.8,0,1,0.3c0.7,0.1,1.5,0,2.2,0.1
			c1.2,0,2.4,0,3.6,0c0.1-0.2,0.3-0.5,0.6-0.5c0.3,0,0.5,0.3,0.6,0.5c2.8,0.2,5.6,0.4,8.4,0.6c0.2-0.2,0.5-0.5,0.8-0.3
			c0.5,0.3,0.5,1,0,1.3c0.1,2.9,0.2,5.7,0.4,8.6c0.2,0.2,0.3,0.3,0.4,0.6c0.1,0.4-0.2,0.7-0.4,0.9c0,2.1,0,4.2,0,6.3
			c0.2,0.2,0.4,0.5,0.4,0.8c-0.1,0.4-0.5,0.6-0.4,0.9c0,1.6,0,3.2,0,4.8c-0.1,0.4,0.4,0.6,0.4,1.1c0,0.4-0.5,0.5-0.5,0.9
			c-0.1,1.5-0.2,3-0.3,4.4c-0.1,0.4,0.4,0.7,0.3,1.1c0,0.3-0.2,0.5-0.4,0.7c0,1.3,0,2.6,0,3.9c0.2,0.2,0.4,0.4,0.4,0.7
			c0.1,0.4-0.4,0.6-0.4,0.9c0,0.9,0.1,1.8,0.1,2.7c0,0.2,0.2,0.3,0.3,0.5c0.3,0.3,0.1,1-0.3,1.1c-0.3,0.1-0.5-0.2-0.7-0.4
			c-1.2,0.1-2.3,0.1-3.5,0.2c-0.3,0-0.4,0.5-0.8,0.4c-0.3,0-0.4-0.4-0.7-0.4c-1.1-0.2-2.2-0.2-3.2-0.3c-0.4-0.1-0.8,0.5-1.2,0.2
			c-0.5-0.3-0.2-0.9,0-1.3c-0.1-1.8-0.2-3.6-0.3-5.4c-0.6-0.3-0.5-1.1,0-1.4c0-1.1,0.1-2.2,0.1-3.2c-0.4-0.4-0.5-1.1,0-1.4
			c0-1.5-0.1-3.1-0.2-4.6c-0.1-0.1-0.2-0.2-0.4-0.4c-1.1,0.1-2.1,0.3-3.2,0.5c-0.4,0-0.5,0.5-0.8,0.5c-0.3,0.1-0.5-0.2-0.7-0.4
			c-1.9-0.1-3.8-0.3-5.7-0.4c-0.2,0.2-0.3,0.4-0.6,0.4c-0.2,0-0.3-0.2-0.5-0.3c-0.6,0.1-1.3,0.3-1.9,0.4c-0.3,0-0.4,0.3-0.6,0.6
			c0.2,1.1,0.3,2.2,0.5,3.2c0.2,0.1,0.4,0.3,0.5,0.6c0.2,0.4-0.2,0.7-0.4,0.9c-0.1,1.5-0.1,3-0.2,4.5c-0.1,0.4,0.4,0.6,0.4,1.1
			c0,0.3-0.2,0.5-0.4,0.7c0.1,1.4,0.1,2.9,0.1,4.3c0,0.3,0.3,0.5,0.4,0.8c0.2,0.4-0.1,0.9-0.6,0.9c-0.3,0-0.4-0.3-0.7-0.3
			c-1.3,0-2.5,0.2-3.8,0.3c-0.2,0.2-0.4,0.5-0.8,0.4c-0.4-0.3-0.8-0.5-1.3-0.7c-1-0.2-1.9-0.5-2.9-0.6c-0.3,0-0.5,0.2-0.8,0.2
			C7,48.2,7,47.3,7.5,47c0.1-4,0.1-8,0.1-12c0-0.3-0.3-0.5-0.3-0.8c-0.1-0.4,0.4-0.7,0.3-1.1c0-1.9,0.1-3.7,0-5.6
			c-0.2-0.2-0.4-0.5-0.4-0.8c0-0.3,0.2-0.4,0.4-0.6c0-1.8,0-3.5,0-5.3c0-0.3-0.2-0.6-0.2-0.9c0.1-0.3,0.2-0.5,0.2-0.8
			c0-1.8,0-3.7,0-5.5c0-0.3-0.1-0.6-0.2-0.9c0-0.3,0.2-0.5,0.2-0.8c0-1.2,0-2.3,0-3.5c0.1-0.4-0.4-0.6-0.4-0.9
			C7.2,7.1,7.5,6.6,7.9,6.6c0.2,0,0.4,0.2,0.6,0.3C9.6,6.8,10.8,6.6,11.9,6.5z M8.6,7.5C8.6,7.6,8.6,7.6,8.6,7.5
			c0.6,0.7,1.2,1.3,1.9,2c0.2,0,0.3,0,0.5,0c0.4-0.8,0.9-1.7,1.4-2.5C11.1,7.2,9.8,7.3,8.6,7.5z M12.6,7.4c-0.4,0.8-0.9,1.5-1.3,2.3
			c1.8-0.6,3.7-1.3,5.5-1.9c-1.2-0.2-2.3-0.5-3.5-0.7C13.1,7.2,12.9,7.3,12.6,7.4z M26.1,7.3c0.2,0.3,0.4,0.7,0.7,1
			c1,1.1,1.9,2.2,2.9,3.3c0.1,0,0.3,0,0.4-0.1c0.6-1.3,1.3-2.5,1.9-3.8C32,7.6,32,7.5,32.1,7.3c-1.3,0-2.6,0-3.9,0
			C27.5,7.3,26.8,7.2,26.1,7.3z M32.2,8.2c-0.5,0.9-0.9,1.9-1.4,2.9c-0.2,0.4-0.4,1-0.2,1.5c0.5,0.5,0.9,1,1.4,1.4c0-0.5,0-1,0-1.6
			c-0.2-0.2-0.4-0.5-0.3-0.9c0.1-0.3,0.4-0.5,0.6-0.6c0.1,0.1,0.2,0.2,0.4,0.3c1.4-0.7,2.8-1.3,4.2-2c-1.3-0.7-2.7-1.3-4-1.9
			C32.7,7.7,32.4,7.9,32.2,8.2z M34.2,7.3c0.9,0.6,2,1,3,1.5c0.3-0.2,0.6-0.2,0.9,0c0.9-0.4,1.8-0.7,2.6-1.1
			C38.5,7.6,36.3,7.4,34.2,7.3z M25.7,7.8c0.2,1,0.5,2,0.7,3c0.3,0.1,0.4,0.3,0.6,0.6c0.7,0.2,1.5,0.3,2.2,0.4
			C28,10.5,26.9,9.2,25.7,7.8z M8.2,7.9c0,1.4,0.1,2.7,0.2,4.1c0.5-0.3,0.8-0.7,1.2-1c0.3-0.3,0.8-0.6,0.7-1.1
			C9.5,9.3,8.8,8.6,8.2,7.9z M38.5,9.3c-0.4,0.1-0.4,0.5-0.6,0.7c0.1,1.6,0.2,3.2,0.3,4.8c1.1-2.2,2.2-4.5,3.3-6.7
			C40.5,8.5,39.5,8.9,38.5,9.3z M11.4,10.4l0,0.1c0.9,1.2,1.8,2.3,2.7,3.5c0.1,0,0.3,0,0.3,0c1-1.9,2-3.8,2.9-5.7
			C15.4,9,13.3,9.6,11.4,10.4z M38.5,15.1c0.1,0.2,0.1,0.4,0.3,0.5c1,0.5,2,0.9,3.1,1.4c0.1,0.1,0.3,0,0.4,0
			c-0.2-2.9-0.2-5.7-0.4-8.6C40.8,10.6,39.6,12.8,38.5,15.1z M17,10c-0.7,1.4-1.5,2.8-2.2,4.3c0.9,0.1,1.8,0,2.7,0
			c0.1-0.1,0.2-0.3,0.3-0.4c-0.1-1.8-0.1-3.5-0.2-5.3C17.4,9.1,17.2,9.6,17,10z M25.7,9.7c0,0.2,0,0.5,0.1,0.7c0,0.3,0,0.7,0,1
			c0.1-0.1,0.2-0.2,0.2-0.4C25.8,10.6,26,10.1,25.7,9.7z M35.4,12.4c-0.2,0.2-0.1,0.4-0.1,0.6c0.8,0.6,1.6,1.3,2.4,1.9
			c-0.1-1.7-0.2-3.3-0.3-5C36.7,10.8,36,11.6,35.4,12.4z M33,11.8c0.4,0.2,0.8,0.4,1.2,0.6c0.2-0.1,0.5-0.2,0.7-0.2
			c0.6-0.7,1.1-1.4,1.7-2.1C35.4,10.6,34.2,11.2,33,11.8z M10.5,10.9c-0.6,0.6-1.2,1.1-1.8,1.7c1.6,0.5,3.2,1.1,4.9,1.6
			c-0.8-1-1.6-2-2.4-3C11,10.8,10.7,10.9,10.5,10.9z M25.8,12.1c0,0.4,0,0.9,0,1.3c0.5,0.2,0.5,0.8,0.5,1.2c0.4,0.2,0.7,0.3,1.1,0.5
			c-0.3-0.9-0.7-1.8-1.1-2.7C26.2,12.3,26,12.2,25.8,12.1z M26.8,12c0.3,1,0.7,1.9,1.1,2.8c0.2,0.2,0.3-0.1,0.4-0.3
			c0.4-0.7,0.9-1.3,1.1-2.1C28.5,12.3,27.7,12.2,26.8,12z M32.6,12.3c-0.1,0.1-0.2,0.2-0.2,0.4c-0.1,1.4-0.1,2.8-0.2,4.3
			c0.6-1.2,1.3-2.4,2-3.6c0-0.1-0.1-0.3-0.1-0.4C33.6,12.7,33.1,12.5,32.6,12.3z M29.8,13c-0.4,0.8-0.9,1.5-1.3,2.3
			c1.2-0.2,2.4-0.3,3.6-0.5c-0.5-0.6-1.1-1.1-1.6-1.6C30.2,12.9,30,13,29.8,13z M8.5,13.1c0.5,2,1,3.9,1.6,5.9
			c0.1,0.1,0.1,0.4,0.3,0.3c1.2-1.5,2.3-2.9,3.5-4.4c-0.4-0.3-1-0.4-1.5-0.5C11.1,13.9,9.8,13.5,8.5,13.1z M34.8,13.7
			c-0.2,1.5-0.4,3.1-0.7,4.6c1.1-0.9,2.2-1.8,3.3-2.6c0-0.2-0.1-0.3-0.2-0.4c-0.7-0.6-1.4-1.2-2.2-1.7C35,13.4,34.8,13.6,34.8,13.7z
			 M32.5,17.3c0,0.2,0.1,0.3,0.1,0.5c0.3,0.2,0.5,0.3,0.8,0.5c0.2,0,0.3-0.2,0.3-0.4c0.2-1.3,0.4-2.5,0.6-3.8
			C33.7,15.2,33.1,16.3,32.5,17.3z M8.3,14.3c0,1.6,0,3.3,0,4.9c0.1,0.1,0.2,0.3,0.4,0.4c0.4,0,0.8,0.1,1.1-0.2
			C9.3,17.8,8.9,16,8.3,14.3z M14.8,15c0,0.2,0.1,0.4,0.2,0.6c0.9,1.8,1.8,3.7,2.7,5.5c0.1-1.9,0.1-3.8,0.2-5.8
			c-0.1-0.1-0.2-0.3-0.3-0.4C16.6,15,15.7,14.9,14.8,15z M11,19.3c-0.1,0.2-0.3,0.3-0.3,0.5c0,0.3,0.3,0.4,0.5,0.6
			c0.9,0.6,1.8,1.2,2.8,1.7c0,0,0.1-0.1,0.2-0.1c0-2.2,0-4.4,0-6.7C13.1,16.6,12.1,18,11,19.3z M14.6,15.7c0,2.1,0,4.2,0,6.2
			c0.1,0.1,0.2,0.2,0.3,0.3c0.8-0.2,1.6-0.3,2.4-0.5c0.3-0.2,0-0.5-0.1-0.7C16.3,19.3,15.5,17.4,14.6,15.7z M34.4,18.7
			c0,0.1,0,0.2,0,0.3c1,1,2,1.9,3,2.9c0,0,0.1,0,0.2,0.1c0.1-0.6,0.1-1.1,0.1-1.7c0-1.4,0.1-2.8,0.1-4.2
			C36.6,16.9,35.5,17.9,34.4,18.7z M38.2,16.3c-0.1,1.9-0.1,3.8-0.2,5.7c1.2-1.3,2.4-2.7,3.7-4c0.1-0.1,0.3-0.3,0.1-0.4
			c-1-0.5-2-0.9-2.9-1.3C38.6,16.1,38.3,15.9,38.2,16.3z M38.5,22.2c-0.2,0.1-0.2,0.5,0,0.6c1,0.6,2.1,1.2,3.2,1.8
			c0.1,0.1,0.3,0.1,0.5,0.1c0-2.2,0-4.4,0-6.6C41,19.5,39.8,20.9,38.5,22.2z M32.2,18.4c0,1.1,0,2.2,0,3.2c0.4-0.8,0.7-1.6,1.1-2.3
			c-0.1-0.3-0.2-0.6-0.5-0.7C32.7,18.5,32.4,18.2,32.2,18.4z M33.7,19.6c-0.4,0.9-0.9,1.8-1.3,2.7c1.5,0.1,3.1,0,4.6,0
			c-1-0.9-2-1.8-2.9-2.8C34,19.5,33.9,19.6,33.7,19.6z M8.3,20.7c0,1.6-0.2,3.1-0.1,4.7c0.4-1.7,1.1-3.2,1.5-4.9
			C9.4,20.1,8.6,20.2,8.3,20.7z M10.4,20.5c0.1,2,0.4,4,0.5,5.9c1-1.1,1.9-2.4,2.8-3.5c0-0.1,0-0.2,0-0.3
			C12.6,21.9,11.5,21.2,10.4,20.5z M8.3,26.3c0,0.1,0.1,0.2,0.1,0.3c0.6,0,1.2,0.1,1.8,0.1c0.1-0.2,0.3-0.3,0.2-0.5
			c-0.2-1.7-0.3-3.5-0.5-5.2C9.5,22.8,8.9,24.5,8.3,26.3z M18.4,22.3c-0.1,0.1-0.3,0.3-0.5,0.4c-0.1,0.7-0.3,1.4-0.4,2.1
			c1.9-0.7,3.9-1.3,5.8-2.1C21.7,22.7,20.1,22.5,18.4,22.3z M14.9,22.8c0.7,0.6,1.3,1.3,2.1,1.9l0.1-0.1c0.2-0.7,0.3-1.3,0.4-2
			c-0.1-0.1-0.2-0.2-0.2-0.2C16.5,22.5,15.7,22.7,14.9,22.8z M25.3,22.9c1.2,1.5,2.5,2.9,3.8,4.4c0.1,0,0.3,0,0.4,0
			c0.7-1.4,1.4-2.8,2.1-4.2c0,0-0.1-0.1-0.1-0.1C29.4,22.9,27.4,22.9,25.3,22.9z M32.4,23.1c0.1,0.2,0.2,0.4,0.2,0.6
			c0.2,0.1,0.3,0.2,0.5,0.3c1-0.3,1.9-0.7,2.9-1c-1.1,0.1-2.1,0-3.2,0C32.7,22.9,32.6,23,32.4,23.1z M33.3,24.6c1,0.9,2,1.7,2.9,2.6
			c0.1-0.1,0.3-0.1,0.3-0.3c0.3-1.3,0.7-2.5,1-3.8C36,23.6,34.6,24.1,33.3,24.6z M14.1,23.3c-0.9,1.1-1.7,2.2-2.6,3.3
			c1.7-0.5,3.4-0.9,5.1-1.4c-0.6-0.7-1.3-1.2-2-1.9C14.5,23.3,14.3,23.3,14.1,23.3z M17.8,25.4c1.1,0.9,2.2,1.7,3.3,2.6
			c0.2,0,0.3-0.1,0.5-0.1c0.9-1.6,1.8-3.2,2.6-4.7C22,23.9,19.9,24.7,17.8,25.4z M37.8,23.4c-0.3,1.3-0.7,2.6-1,3.9
			c1.6-0.6,3.3-1.3,4.9-2c-1.1-0.7-2.4-1.4-3.5-2.1C38.1,23.3,38,23.3,37.8,23.4z M24.6,23.3c-0.9,1.6-1.8,3.2-2.7,4.8
			c1-0.3,2.1-0.6,3.1-0.9c0.2-0.1,0.3-0.3,0.4-0.5c-0.2-0.8-0.4-1.6-0.6-2.4C24.8,24,24.8,23.6,24.6,23.3z M25.1,23.4
			c0.3,1,0.5,2.1,0.8,3.1c0.3,0.1,0.4,0.3,0.5,0.5c0.7,0.1,1.5,0.3,2.3,0.4C27.5,26.2,26.3,24.8,25.1,23.4z M32,23.3
			c-0.6,1.1-1.1,2.2-1.7,3.3c0.6-0.6,1.2-1.3,1.8-1.9c0-0.3,0-0.6,0.2-0.8C32.2,23.7,32.1,23.5,32,23.3z M32.8,25.4
			c-0.2,1.6-0.4,3.1-0.5,4.7c1-0.6,2-1.3,3-1.9c0.2-0.1,0.5-0.3,0.7-0.5C35,26.8,34,26,33,25.1C32.9,24.9,32.8,25.3,32.8,25.4z
			 M29.9,27.7c0,0.3,0,0.6,0.3,0.7c0.6,0.5,1,1.2,1.7,1.6c0.2-1.6,0.3-3.3,0.5-4.9C31.6,26,30.8,26.9,29.9,27.7z M11.4,27.2
			c1,0.9,2.1,1.9,3.1,2.8c0.1,0,0.3-0.1,0.4-0.1c0.6-1.4,1.3-2.8,1.9-4.2C14.9,26.3,13.1,26.7,11.4,27.2z M41.3,26.1
			c-1.4,0.6-2.9,1.1-4.3,1.8c1.4,1,2.8,2,4.1,3.1c0.3,0.2,0.6,0.5,1,0.7c0-1.9,0-3.8,0-5.7C41.9,25.7,41.6,26,41.3,26.1z M17.4,25.9
			c0,1.7,0,3.4,0,5.1c0.4-0.2,0.8-0.5,1.2-0.7c0.8-0.5,1.5-1,2.3-1.6c-0.5-0.5-1.1-0.9-1.6-1.3C18.7,26.8,18.1,26.3,17.4,25.9z
			 M17,26.3c-0.5,1.2-1.1,2.5-1.7,3.7c-0.1,0.2-0.1,0.5,0.1,0.6c0.4,0.2,0.9,0.3,1.3,0.5c0.1,0,0.2-0.1,0.3-0.2
			C17,29.4,17,27.8,17,26.3z M8.1,27.6c0,1.8,0,3.6,0,5.4c0.6-1.4,1.2-2.9,1.8-4.4c0.1-0.4,0.4-0.8,0.4-1.3
			c-0.6-0.1-1.2-0.1-1.8-0.2C8.3,27.3,8.2,27.4,8.1,27.6z M26.3,27.7c0.2,0.8,0.6,1.6,0.9,2.3c0.1,0.2,0.1,0.5,0.4,0.6
			c0.4-0.8,0.9-1.5,1.3-2.3c0,0-0.1-0.1-0.1-0.1C27.9,28,27.1,27.8,26.3,27.7z M11,27.7c0,2.1,0.1,4.2,0.2,6.3c1.1-1,2-2.1,3-3.1
			c0-0.2,0-0.5-0.2-0.6C13,29.4,12,28.5,11,27.7z M22.2,28.7c1.6,0.7,3.1,1.4,4.7,2.1c-0.4-0.9-0.7-1.8-1.1-2.7
			c-0.2-0.1-0.4-0.2-0.6-0.3C24.3,28.1,23.3,28.4,22.2,28.7z M8.5,33.3c-0.1,0.2-0.1,0.4-0.1,0.6c0.7,0.1,1.4,0.2,2,0.3
			c0.1-0.1,0.2-0.2,0.3-0.4c-0.1-1.9-0.1-3.9-0.2-5.8C9.9,29.8,9.2,31.6,8.5,33.3z M36.9,28.4c0.6,1.8,1.2,3.5,1.8,5.3
			c0.1,0.1,0.3,0.1,0.4,0.2c0.9-0.6,1.9-1.1,2.8-1.7C40.2,30.9,38.5,29.7,36.9,28.4z M32.6,30.6c0.6,0.4,1.3,0.8,1.9,1.2
			c0.1-0.1,0.3-0.1,0.4-0.2c0.3-1.1,0.7-2.2,1.1-3.3C34.9,29.1,33.7,29.9,32.6,30.6z M36.5,28.5c-0.4,1.1-0.8,2.3-1.1,3.4
			c0.1,0.2,0.2,0.5,0.4,0.6c0.8,0.4,1.7,0.9,2.5,1.3C37.7,32.1,37.1,30.3,36.5,28.5z M29.1,28.9c-0.4,0.7-0.8,1.4-1.2,2
			c1.2-0.2,2.4-0.4,3.6-0.5c-0.5-0.5-1.1-1.1-1.6-1.6C29.7,28.6,29.2,28.6,29.1,28.9z M21.4,29.4c-0.1,0.4-0.4,0.8-0.3,1.2
			c1.6,0.1,3.1,0.3,4.7,0.3c-1.3-0.5-2.6-1.1-3.9-1.7C21.7,29.2,21.5,29.3,21.4,29.4z M18.5,31c0.5-0.1,0.9-0.2,1.4-0.3
			c0.1-0.3,0.4-0.5,0.7-0.6c0.1-0.2,0.2-0.5,0.3-0.8C20.1,29.9,19.3,30.4,18.5,31z M15.3,31.1c0.7,1.3,1.5,2.6,2.2,4
			c-0.1-0.9-0.3-1.9-0.4-2.8c-0.3-0.1-0.4-0.4-0.5-0.6C16.1,31.5,15.7,31.3,15.3,31.1z M32.3,31.2c0,0.2-0.1,0.4,0,0.7
			c0.1,1.3,0.1,2.7,0.2,4c0.7-1,1.3-2.1,2-3.1c-0.1-0.2-0.1-0.5-0.3-0.6C33.5,31.9,32.9,31.5,32.3,31.2z M14.5,31.3
			c-1,1-2,2.1-2.9,3.1c1.9,0.5,3.9,0.9,5.8,1.3c-0.8-1.5-1.7-2.9-2.5-4.4C14.8,31.3,14.6,31.3,14.5,31.3z M39.5,34.2
			c-0.3,0.1-0.4,0.4-0.2,0.6c0.8,1,1.6,2.1,2.5,3.1c0.1-1.8,0.3-3.5,0.3-5.3C41.3,33.2,40.4,33.7,39.5,34.2z M35.2,33
			c0.1,1.6,0.2,3.2,0.4,4.7c0.8-0.9,1.6-1.9,2.4-2.9c0.1-0.1,0.3-0.4,0-0.5c-0.9-0.5-1.8-0.9-2.6-1.4C35.3,33,35.2,33,35.2,33z
			 M32.8,36.3c0,0.1,0.1,0.3,0.1,0.4c0.7,0.4,1.4,0.8,2.1,1.2c0-0.1,0.1-0.3,0.1-0.4c-0.1-1.5-0.2-2.9-0.3-4.4
			C34.1,34.1,33.4,35.2,32.8,36.3z M8.5,34.6c-0.1,0.1-0.2,0.2-0.3,0.3c0,1.8,0.1,3.7,0.2,5.5c0.7-1.7,1.5-3.4,2.2-5.1
			c0.1-0.1,0.1-0.3,0-0.4C9.8,34.7,9.1,34.7,8.5,34.6z M11.5,35.1c0.8,1.4,1.6,2.8,2.4,4.2c0.1,0,0.3,0.1,0.4,0.1c1-1,2-1.9,2.9-2.9
			C15.4,35.9,13.4,35.5,11.5,35.1z M38.4,35.1c-0.8,1-1.7,2-2.5,3c1.8,0,3.7,0.1,5.5,0.2c-0.8-1.1-1.7-2.1-2.5-3.2
			C38.7,35.1,38.6,35.1,38.4,35.1z M8.6,40.9c1.5-0.3,3.1-0.7,4.6-1c0.2,0,0.5-0.1,0.4-0.4c-0.6-1.2-1.4-2.3-2-3.5
			c-0.2-0.3-0.3-0.6-0.6-0.7C10.2,37.2,9.3,39,8.6,40.9z M14.6,39.8c0.1,0.2,0.1,0.3,0.3,0.4c0.8,0.5,1.6,1.1,2.4,1.6
			c0,0,0.1-0.1,0.2-0.1c0.1-1.6,0.1-3.3,0.2-4.9C16.6,37.8,15.6,38.8,14.6,39.8z M32.4,37.6c0,1-0.1,2.1-0.1,3.1
			c0.8-0.7,1.6-1.4,2.4-2.1c0.2-0.1,0-0.3-0.2-0.4c-0.7-0.4-1.3-0.7-2-1.1C32.5,37.3,32.4,37.4,32.4,37.6z M35.9,38.7
			c0.7,1.1,1.5,2.3,2.2,3.4c0.2,0,0.3,0,0.5,0c1-1.1,1.9-2.2,2.9-3.3C39.5,38.9,37.7,38.8,35.9,38.7z M32.6,41.1c0,0.1,0,0.3,0,0.4
			c0.8,0.8,1.5,1.7,2.3,2.4c0.1-1.7,0.1-3.3,0.2-5C34.3,39.7,33.5,40.4,32.6,41.1z M35.4,43.8c0,0.1,0.1,0.2,0.1,0.3
			c0.7-0.4,1.4-0.8,2-1.2c0.2-0.1,0.1-0.3,0.2-0.5c-0.7-1.1-1.4-2.2-2.2-3.3C35.5,40.7,35.4,42.3,35.4,43.8z M38.8,42.7
			c0.9,0.3,1.9,0.5,2.8,0.8c0.1-0.1,0.3-0.2,0.3-0.4c0-1.3,0-2.6,0-3.9C40.8,40.4,39.7,41.5,38.8,42.7z M8.8,41.5
			c0.8,0.6,1.6,1.1,2.4,1.7c0.2,0,0.4-0.1,0.6-0.1c0.6-0.9,1.1-1.8,1.7-2.7C12,40.8,10.4,41.1,8.8,41.5z M13.9,40.7
			c-0.6,0.9-1.1,1.7-1.7,2.6c1.6-0.3,3.1-0.7,4.7-1c-0.8-0.6-1.6-1.1-2.4-1.7C14.3,40.6,14.1,40.7,13.9,40.7z M8.2,42.6
			c-0.1,1.5-0.2,3-0.3,4.5c1.1-1.1,2.1-2.1,3.2-3.2c-0.1-0.1-0.1-0.3-0.3-0.4C10,43,9.2,42.4,8.4,41.8C8.3,42.1,8.3,42.3,8.2,42.6z
			 M32.3,41.9c0.1,1.9,0.2,3.7,0.4,5.6c0.6-0.9,1.3-1.7,1.9-2.6c0-0.2,0-0.4,0-0.6C33.8,43.6,33,42.7,32.3,41.9z M12.3,43.9
			c1.6,1.3,3.3,2.4,4.9,3.7c0.1,0.1,0.3,0.1,0.4,0.2c-0.1-1.5-0.1-3.1-0.2-4.6c0-0.2-0.2-0.3-0.3-0.4C15.5,43.2,13.9,43.5,12.3,43.9
			z M38.7,43.3c-0.1,0.1-0.4,0.2-0.4,0.5c-0.2,1.4-0.5,2.7-0.6,4.1c1.3-1.3,2.5-2.5,3.8-3.8C40.5,43.9,39.6,43.6,38.7,43.3z
			 M36,44.5c-0.2,0.1-0.3,0.4-0.3,0.6c0.4,0.7,0.8,1.5,1.2,2.2c0.1,0.2,0.2,0.4,0.4,0.6c0.2-1.5,0.5-3,0.7-4.5
			C37.2,43.7,36.6,44.1,36,44.5z M10.4,45.4c-0.7,0.7-1.5,1.4-2.2,2.2c1.3,0.3,2.6,0.6,4,0.8c0.4,0,0.2-0.4,0.2-0.6
			c-0.3-1.1-0.4-2.3-0.8-3.4C11.1,44.6,10.8,45,10.4,45.4z M12,44.4c0.2,1.1,0.5,2.2,0.7,3.3c0,0.5,0.5,0.7,0.9,0.7
			c1.2,0,2.3-0.1,3.4-0.3C15.4,46.9,13.7,45.6,12,44.4z M39.6,46.7c-0.5,0.5-1.1,0.9-1.5,1.5c0.7-0.1,1.4,0,2.2-0.1
			c0.6-0.1,1.3,0.1,1.7-0.4c0-1.1-0.1-2.2-0.2-3.2C41,45.2,40.3,46,39.6,46.7z M34.9,45.3c-0.6,0.9-1.3,1.7-2,2.6
			c1.3,0.1,2.6,0.3,3.9,0.2c-0.5-1-1.1-1.9-1.6-2.8C35.2,45.3,35,45.3,34.9,45.3z"/>
	</g>
	<g>
		<path fill="#F2F3F7" d="M65.7,6.8c0.1-0.2,0.2-0.4,0.3-0.5c0.2,0,0.4,0,0.6,0c0.1,0.1,0.2,0.2,0.3,0.4c2,0.1,4,0.2,6,0.4
			c0.2-0.2,0.4-0.4,0.7-0.4c0.3,0.1,0.4,0.4,0.6,0.6c1.7,0.6,3.3,1.2,4.9,1.8c0.2-0.1,0.5-0.3,0.7-0.2c0.3,0.1,0.3,0.5,0.4,0.7
			c1.3,1,2.7,1.9,4,2.8c0.2-0.1,0.5-0.2,0.7,0c0.3,0.2,0.3,0.6,0.3,1c1,1.5,2.1,2.9,3.1,4.4c0.3-0.1,0.7,0.1,0.8,0.5
			c0.2,0.3-0.1,0.6-0.3,0.9c0.2,1.3,0.4,2.7,0.6,4c0.2,0.1,0.4,0.3,0.5,0.6c0.2,0.5-0.5,0.7-0.3,1.2c0.1,1.9,0.1,3.7,0.2,5.6
			c0.1,0.3,0.5,0.5,0.4,0.9c0,0.5-0.6,0.5-0.6,0.9c-0.3,1.1-0.6,2.3-0.9,3.4c0.2,0.3,0.3,0.7,0.1,1c-0.2,0.3-0.6,0.1-0.8,0.5
			c-1.2,1.8-2.3,3.6-3.5,5.5c0.1,0.3,0.1,0.7-0.2,0.9c-0.2,0.2-0.5,0.1-0.7,0.1c-1.5,1.1-3,2.1-4.4,3.2c0,0.4-0.2,0.8-0.6,0.8
			c-0.3,0-0.4-0.3-0.7-0.2c-1.5,0.3-3,0.7-4.4,1.1c-0.6,0.2-1.5,0.1-1.8,0.8c-0.3,0.2-0.7,0.1-0.8-0.3c-0.5,0-0.9-0.1-1.4,0
			c-0.9,0.1-1.9-0.1-2.8-0.1c-0.9,0-1.9-0.2-2.8,0c-0.1,0.2-0.3,0.4-0.5,0.4c-0.4,0-0.5-0.5-0.7-0.7c-1.6-0.8-3.3-1.4-4.9-2.1
			c-0.2,0.1-0.5,0.3-0.8,0.1c-0.3-0.2-0.2-0.7-0.5-1c-1.1-1-2.2-2-3.2-3.1c-0.2,0-0.5,0.1-0.7-0.1c-0.3-0.3-0.3-0.7-0.1-1
			c-0.9-1.7-1.8-3.3-2.6-5c-0.1,0-0.3,0-0.4,0c-0.4-0.3-0.5-0.9-0.1-1.3c-0.3-2.1-0.7-4.1-1-6.2c0-0.4-0.5-0.5-0.5-0.8
			c-0.2-0.4,0.1-0.7,0.4-0.9c0.2-1.8,0.5-3.7,0.7-5.5c-0.1-0.3-0.4-0.7-0.2-1.1c0.1-0.3,0.4-0.3,0.6-0.4c0.4-0.9,0.8-1.9,1.3-2.8
			c0.2-0.4-0.1-0.8,0.1-1.1c0.1-0.3,0.4-0.4,0.7-0.4c0.7-1,1.4-1.9,2.1-2.9c-0.1-0.3-0.1-0.6,0.1-0.8c0.2-0.3,0.6-0.2,0.8-0.1
			c1.7-1.1,3.4-2.3,5.1-3.5c0-0.4,0.3-0.7,0.6-0.9c0.2,0.1,0.3,0.2,0.5,0.3C62.2,7.7,63.9,7.2,65.7,6.8z M67.4,7.3
			c1.1,0.7,2.2,1.4,3.3,2.1c0.3,0,0.7,0,0.9-0.3c0.4-0.5,0.9-0.9,1.3-1.4C71.1,7.5,69.2,7.4,67.4,7.3z M60.9,8.6
			c-0.2,0-0.3,0.1-0.4,0.2c0.5,0.6,1,1.2,1.4,1.9c0.2,0,0.3,0,0.5,0c1-1.1,2-2.1,3.1-3.2C64,7.8,62.4,8.2,60.9,8.6z M66.8,7.6
			c0.3,0.6,0.5,1.3,0.8,1.9c0.3,0.1,0.5,0.2,0.6,0.4c0.7-0.1,1.3-0.1,2-0.1C69,9,67.9,8.3,66.8,7.6z M65.7,8
			c-0.9,0.9-1.8,1.9-2.7,2.9c1.3-0.3,2.6-0.5,3.9-0.8c0.2,0,0.2-0.2,0.3-0.3c-0.3-0.7-0.5-1.4-0.9-2.1C66,7.5,65.9,7.8,65.7,8z
			 M74,7.9c0.6,1,1.1,2.1,1.7,3.1c0.2,0.1,0.4,0.1,0.5,0.2c0.9-0.5,1.8-1,2.6-1.5C77.3,9.1,75.7,8.5,74,7.9z M71.7,9.7
			c0,0,0,0.1,0,0.2c1.2,0.5,2.5,0.9,3.7,1.4c-0.6-1-1.1-2.1-1.7-3.1c-0.1,0-0.3-0.1-0.4-0.1C72.7,8.6,72.2,9.2,71.7,9.7z M54.7,12.4
			c1.3,0.1,2.6,0.3,3.9,0.5c0.1-0.1,0.3-0.2,0.4-0.3c0.2-1.2,0.4-2.3,0.7-3.5C58,10.2,56.3,11.3,54.7,12.4z M60.1,9.2
			c-0.2,1.2-0.4,2.4-0.6,3.5c0.7-0.5,1.4-0.9,2.1-1.4c0-0.1,0-0.3,0-0.4c-0.5-0.6-0.9-1.2-1.4-1.7C60.2,9.2,60.1,9.2,60.1,9.2z
			 M79.9,10.1c-0.1,0-0.2,0.1-0.2,0.2c-0.2,1.2-0.5,2.3-0.6,3.5l0.1,0.1c1.6-0.3,3.1-0.7,4.7-1c-0.1-0.2-0.3-0.3-0.5-0.4
			C82.3,11.8,81.1,10.9,79.9,10.1z M68.5,10.4c1,0.6,1.9,1.2,2.9,1.8c-0.1-0.5-0.2-1-0.3-1.5c-0.2-0.1-0.4-0.3-0.5-0.4
			C69.8,10.4,69.2,10.5,68.5,10.4z M76.5,11.7c0,0.1,0,0.2,0,0.2c0.5,0.5,1.1,1,1.6,1.5c0.1,0.1,0.3,0.2,0.5,0.3
			c0.2-1.2,0.4-2.4,0.7-3.6C78.4,10.6,77.4,11.2,76.5,11.7z M71.5,10.5c0,0.6,0.2,1.1,0.3,1.6c0.2,0.1,0.4,0.3,0.7,0.2
			c0.8-0.2,1.6-0.4,2.4-0.6C73.7,11.3,72.6,10.9,71.5,10.5z M62.8,11.5c0,0.1-0.1,0.2-0.1,0.3c0.2,0.4,0.3,0.8,0.5,1.2
			c0.1,0.2,0.3,0.2,0.5,0.3c1-0.9,2-1.7,3-2.5C65.3,11,64,11.3,62.8,11.5z M68,10.8c-0.1,0-0.2,0.1-0.2,0.2
			c-0.1,1.6-0.3,3.2-0.5,4.8c1.2-0.8,2.3-1.7,3.5-2.5c0.2-0.1,0.3-0.2,0.4-0.4C70.1,12.2,69,11.5,68,10.8z M66.7,11.4
			c-0.9,0.8-1.9,1.6-2.9,2.5c0.4,0.4,0.9,0.6,1.3,0.9c0.5,0.3,1,0.7,1.5,0.9c0.2,0,0.2-0.2,0.2-0.4c0.2-1.5,0.3-3,0.5-4.5
			C67.1,11,66.9,11.2,66.7,11.4z M61.8,11.9c-0.6,0.4-1.2,0.8-1.9,1.2c1,0.1,1.9,0.4,2.9,0.4c-0.2-0.5-0.4-1-0.6-1.5
			C62.1,12,61.9,11.9,61.8,11.9z M72.6,12.9c1.3,0.7,2.7,1.4,4,2c-0.2-0.7-0.4-1.4-0.6-2.2c0-0.3-0.4-0.4-0.6-0.6
			C74.4,12.5,73.5,12.7,72.6,12.9z M76.3,12.5c0.2,0.7,0.4,1.5,0.7,2.2c0.1,0.1,0.3,0.1,0.4,0.2c0.2-0.2,0.5-0.3,0.7-0.5
			c0.1-0.2-0.1-0.3-0.2-0.4C77.4,13.5,76.9,13,76.3,12.5z M54.4,13c0.5,0.8,1,1.6,1.5,2.4c0.2,0,0.3,0,0.5,0.1
			c0.7-0.7,1.4-1.3,2.1-2C57.1,13.3,55.7,13.2,54.4,13z M51.6,16.2c1.3-0.1,2.6-0.2,4-0.4c-0.5-0.9-1-1.6-1.5-2.5
			c-0.1,0-0.3,0-0.4,0C53,14.3,52.3,15.2,51.6,16.2z M71.1,13.7c-1.1,0.8-2.2,1.6-3.3,2.4c1.2,0,2.4,0.1,3.6,0.2
			c0.1-0.1,0.2-0.2,0.3-0.4c-0.1-0.8,0-1.6-0.2-2.4C71.4,13.4,71.2,13.6,71.1,13.7z M72,13.4c0,0.8,0.1,1.6,0.1,2.4
			c0.2,0.1,0.3,0.3,0.5,0.3c1.1-0.2,2.3-0.5,3.4-0.7c-1.2-0.7-2.6-1.3-3.8-2L72,13.4z M59.8,13.7c0.9,1,1.7,2.1,2.6,3.1
			c0.2-0.7,0.3-1.5,0.5-2.3c-0.1-0.1-0.2-0.3-0.3-0.4C61.7,14,60.7,13.9,59.8,13.7z M79.4,14.5c0.5,0.5,1.1,0.9,1.6,1.4
			c0.3-0.1,0.6,0,0.8-0.2c0.6-0.7,1.3-1.4,2-2.1C82.3,13.9,80.9,14.2,79.4,14.5z M84.3,13.7c-0.8,0.9-1.6,1.7-2.4,2.6
			c2,0.6,4,1.1,6,1.6c-1-1.4-2-2.8-3.1-4.3C84.7,13.7,84.5,13.7,84.3,13.7z M56.6,16c0.5,0.2,1,0.4,1.5,0.6c0.2,0.1,0.3,0,0.5-0.1
			c0.1-0.9,0.2-1.8,0.3-2.6C58.1,14.6,57.3,15.3,56.6,16z M59.3,14c-0.1,0.9-0.2,1.7-0.3,2.6c0.1,0.1,0.2,0.2,0.3,0.4
			c0.9,0.1,1.8,0.2,2.7,0.1c-0.6-0.7-1.2-1.4-1.8-2.1C59.9,14.6,59.6,14.2,59.3,14z M63.3,14.8c-0.1,0.6-0.2,1.1-0.3,1.7
			c0,0.2-0.1,0.4,0.1,0.5c1.1-0.2,2.1-0.5,3.2-0.8c-0.9-0.5-1.7-1.1-2.5-1.6C63.6,14.4,63.3,14.6,63.3,14.8z M77.7,15.3
			c0.8,0.2,1.7,0.4,2.5,0.6c-0.4-0.3-0.8-0.6-1.2-1c-0.1,0-0.3,0.1-0.4,0.1C78.3,14.8,78,15.1,77.7,15.3z M72.9,16.7
			c1.1,0.5,2.1,1,3.2,1.5c0.1,0,0.2-0.1,0.3-0.2c0.1-0.5,0.2-1.1,0.2-1.6c0-0.2,0-0.4-0.1-0.5C75.3,16.1,74.1,16.4,72.9,16.7z
			 M77.5,15.9c-0.1,0.1-0.3,0.2-0.4,0.3c-0.1,0.7-0.2,1.4-0.2,2c1.2-0.5,2.4-1,3.5-1.6C79.5,16.4,78.5,16.1,77.5,15.9z M51.6,16.8
			c0.6,0.9,1.3,1.8,1.9,2.7c0.1,0,0.3,0,0.4,0c0.6-1,1.2-2,1.8-3C54.2,16.6,52.9,16.7,51.6,16.8z M55.9,16.9c-0.5,0.9-1,1.7-1.5,2.6
			c1.2-0.7,2.4-1.5,3.6-2.2c-0.5-0.2-1-0.4-1.5-0.6C56.3,16.7,56.1,16.8,55.9,16.9z M63.3,17.6c-0.2,0.3-0.5,0.7-0.9,0.5
			c-0.8,1-1.6,2.1-2.4,3.1c-0.2,0.2,0,0.6-0.2,0.9c-0.1,0.2-0.4,0.3-0.6,0.4c-0.5,1.3-1,2.6-1.5,3.9c0.2,0.4,0.2,0.8-0.1,1.2
			c0.4,1.9,0.7,3.7,1,5.6c0.5,0.2,0.6,0.7,0.5,1.1c0.9,1.1,1.8,2.2,2.6,3.3c0.4-0.1,0.8,0.2,0.9,0.6c1.9,0.5,3.7,1.1,5.6,1.6
			c0.3-0.2,0.7-0.3,1-0.1c3-1.6,6-3.2,8.9-4.9c0.1-0.4,0.3-0.6,0.6-0.8c0.4-1.5,0.8-3,1.2-4.5c-0.2-0.4-0.3-0.9,0-1.2
			c-0.3-1.4-0.5-2.7-0.8-4.1c-0.5-0.2-0.6-0.7-0.4-1.2c-0.7-1.2-1.4-2.4-2.1-3.6c-0.5,0-0.7-0.3-0.8-0.7c-1.2-0.5-2.3-1.1-3.5-1.6
			c-0.2,0.1-0.4,0.2-0.6,0.2c-0.3-0.1-0.4-0.5-0.7-0.4c-1.2-0.1-2.4-0.1-3.6-0.1c-0.2,0.3-0.5,0.4-0.8,0.4c-0.1-0.1-0.2-0.2-0.3-0.3
			C65.4,17.1,64.3,17.3,63.3,17.6z M81.8,17c-0.1,0.1-0.3,0.3-0.2,0.5c0.1,0.8,0.1,1.7,0.2,2.5c0.1,0.1,0.2,0.2,0.3,0.2
			c1.8-0.6,3.6-1.1,5.4-1.7C85.5,18,83.7,17.5,81.8,17z M77.3,18.7c1.3,0.5,2.5,1,3.8,1.4c0.1,0,0.2-0.1,0.2-0.1
			c0-0.9-0.1-1.9-0.1-2.8c-0.1,0-0.2-0.1-0.2-0.2C79.7,17.6,78.5,18.1,77.3,18.7z M50.9,17.3c-0.5,1.1-1,2.2-1.4,3.2
			c1.2-0.2,2.5-0.3,3.6-0.6c-0.7-0.9-1.3-1.8-1.9-2.7C51.2,17.2,51,17.3,50.9,17.3z M59,17.8c0.2,1.1,0.3,2.2,0.5,3.3
			c0.9-1.1,1.8-2.3,2.6-3.4c-0.6-0.1-1.3,0-1.9-0.1C59.7,17.6,59.2,17.4,59,17.8z M56,21.8c0.9-0.1,1.7-0.2,2.6-0.3
			c0.3,0,0.3-0.3,0.5-0.4c-0.2-1.1-0.3-2.2-0.5-3.3C57.7,19.2,56.8,20.5,56,21.8z M54.2,20.2c0,0.6,0.6,0.9,0.9,1.3
			c0.2-0.1,0.4,0,0.5-0.2c0.7-1.1,1.4-2.2,2.2-3.3C56.6,18.8,55.4,19.5,54.2,20.2z M82.1,20.8c0.1,0.2,0.2,0.3,0.4,0.5
			c0.9,0.9,1.7,1.9,2.6,2.8c0.1-0.1,0.3,0,0.4-0.2c0.9-1.7,1.7-3.3,2.6-5C86.1,19.6,84.1,20.2,82.1,20.8z M77.1,19.3
			c0.7,1.2,1.4,2.4,2.1,3.5c0.1,0,0.3,0,0.4,0c0.5-0.6,1-1.3,1.5-1.9c-0.1-0.1-0.3-0.2-0.4-0.3C79.5,20.2,78.3,19.7,77.1,19.3z
			 M85.8,24.4c1-0.2,2-0.4,3-0.6c0.1-0.1,0.2-0.3,0.3-0.4c-0.2-1.4-0.4-2.7-0.7-4.1C87.6,20.9,86.6,22.7,85.8,24.4z M49.7,21.1
			c-0.2,0.1-0.2,0.3-0.1,0.4c0.8,1.6,1.6,3.2,2.4,4.8c0.4-1.4,0.7-2.9,1-4.3c0.1-0.5,0.3-0.9,0.2-1.4C52,20.8,50.9,20.9,49.7,21.1z
			 M53.6,21.6c-0.3,1.4-0.6,2.8-0.9,4.2c0.7-1.1,1.5-2.2,2.2-3.3c0.1-0.8-0.6-1.2-1-1.7C53.7,21.1,53.6,21.3,53.6,21.6z M80,23.1
			c-0.2,0.2-0.1,0.4,0.1,0.5c0.6,0.4,1.2,0.7,1.8,1.1c-0.1-1.1-0.3-2.3-0.5-3.4C80.9,21.9,80.5,22.5,80,23.1z M81.9,21.5
			c0.1,1,0.3,2,0.4,3.1c0.1,0.1,0.3,0.2,0.4,0.3c0.7-0.1,1.3-0.2,2-0.3C83.8,23.5,82.9,22.5,81.9,21.5z M49.2,21.6
			c-0.2,1.8-0.4,3.6-0.7,5.4c-0.1,0.2,0.1,0.5,0.3,0.4c0.9-0.2,1.8-0.4,2.7-0.6c0.1-0.2,0.1-0.3,0-0.5C50.8,24.8,50,23.2,49.2,21.6z
			 M56,22.4c-0.1,0.1-0.2,0.3-0.1,0.4c0.5,1.2,1,2.4,1.5,3.6c0.4-0.9,0.7-1.9,1.1-2.8c0.2-0.5,0.4-0.9,0.5-1.5
			C57.9,22.2,57,22.4,56,22.4z M55.2,22.9c-0.9,1.3-1.7,2.5-2.6,3.8c1.3,0,2.6,0,3.8,0c0.1,0,0.5,0,0.4-0.2c-0.4-1.2-1-2.4-1.4-3.5
			C55.4,22.9,55.3,22.9,55.2,22.9z M79.7,24.1c0.3,1.4,0.5,2.8,0.9,4.2c0.4-0.8,0.7-1.6,1.1-2.4c0.1-0.2-0.1-0.5-0.1-0.7
			C80.9,24.8,80.3,24.4,79.7,24.1z M86.1,25c-0.3,0-0.3,0.3-0.5,0.5c0.2,1.4,0.5,2.8,0.7,4.3c0.9-1.8,1.8-3.6,2.7-5.4
			C88,24.6,87,24.8,86.1,25z M86.6,30.1c0,0.1,0.1,0.2,0.1,0.3c0.8,0.2,1.6,0.4,2.4,0.6c0.1,0,0.2-0.1,0.3-0.2c0-2-0.1-3.9-0.2-5.9
			C88.4,26.6,87.5,28.3,86.6,30.1z M82.8,25.5c-0.1,0.1-0.2,0.3-0.3,0.4c0.2,1.1,0.4,2.1,0.6,3.2c0.6-1.3,1.2-2.6,1.7-3.9
			C84.2,25.3,83.5,25.4,82.8,25.5z M83.7,29c-0.1,0.2-0.3,0.5,0,0.7c0.6,0.2,1.3,0.3,1.9,0.4c0.1,0,0.2-0.1,0.2-0.2
			c-0.2-1.4-0.4-2.8-0.6-4.2C84.7,26.7,84.2,27.9,83.7,29z M82.1,26c-0.4,0.8-0.7,1.6-1.1,2.4c-0.1,0.2,0,0.5,0.2,0.5
			c0.5,0.2,1,0.4,1.5,0.5C82.6,28.2,82.4,27.1,82.1,26z M52.8,27.3c0.5,0.5,1,1.1,1.5,1.6c0.2,0,0.4,0,0.6,0
			c0.6-0.5,1.2-1.1,1.8-1.6C55.3,27.3,54,27.3,52.8,27.3z M49.1,28c0.8,0.4,1.6,0.7,2.4,1.1c0.2,0.1,0.3,0.2,0.5,0.1
			c0-0.5,0-1-0.1-1.5c-0.1-0.1-0.2-0.2-0.3-0.3C50.8,27.6,50,27.8,49.1,28z M55.1,29.4c0,0.2,0,0.4,0.1,0.6c1,1.1,2.1,2.2,3.1,3.3
			c-0.3-1.7-0.7-3.5-1-5.2c0-0.2-0.1-0.3-0.2-0.5C56.5,28.2,55.8,28.8,55.1,29.4z M52.4,27.7c0,0.5,0.1,0.9,0.1,1.4
			c0.1,0.1,0.2,0.2,0.4,0.3c0.4,0,0.7-0.1,1.1-0.1C53.4,28.8,52.9,28.3,52.4,27.7z M48.5,28.4c0.3,2.2,0.8,4.4,1.1,6.7
			c0.7-1.6,1.6-3.2,2.3-4.8c0-0.1-0.1-0.3-0.1-0.4c-0.7-0.4-1.5-0.7-2.2-1.1C49.2,28.7,48.9,28.5,48.5,28.4z M80.5,29.7
			c-0.3,1.4-0.7,2.8-1.1,4.2c0.9-1.2,1.9-2.3,2.9-3.5c0.1-0.1,0.2-0.3,0.3-0.4c-0.4-0.2-0.9-0.3-1.4-0.5
			C80.9,29.4,80.7,29.6,80.5,29.7z M53,30.1c-0.1,0.1-0.2,0.3-0.3,0.4c0.1,1.2,0.3,2.3,0.4,3.5c0.4-1.3,0.7-2.5,1-3.8
			c0-0.1,0-0.2-0.1-0.2C53.7,30,53.3,30.1,53,30.1z M54.6,30.3c-0.4,1.2-0.7,2.5-1,3.7c-0.1,0.2-0.1,0.4-0.1,0.7
			c1.6-0.3,3.1-0.6,4.7-0.9c-1.1-1.2-2.2-2.3-3.3-3.5C54.8,30.3,54.6,30.3,54.6,30.3z M83.5,30.3c0,0.2,0.1,0.4,0.1,0.6
			c0.4,1.3,0.8,2.6,1.2,3.9c0.4-1.2,0.6-2.5,1-3.8c-0.1-0.1-0.2-0.4-0.4-0.4C84.8,30.5,84.1,30.4,83.5,30.3z M50,35.3
			c0.8-0.2,1.6-0.3,2.4-0.5c0.1-0.2,0.2-0.3,0.3-0.5c-0.1-1.3-0.3-2.5-0.4-3.8C51.5,32.2,50.7,33.8,50,35.3z M83.1,30.6
			c-0.5,1.7-1.1,3.5-1.5,5.2c0,0,0.1,0.1,0.1,0.1c0.9-0.1,1.7-0.3,2.6-0.4c0.1-0.1,0.1-0.2,0.2-0.4C84,33.7,83.6,32.1,83.1,30.6z
			 M79.5,34.6c0.1,0.6,0.9,0.8,1.3,1.2c0.1-0.1,0.4-0.1,0.4-0.2c0.5-1.5,0.9-3.1,1.4-4.6C81.5,32.1,80.5,33.4,79.5,34.6z M86.6,30.9
			c0,0.2,0.1,0.4,0.2,0.6c0.5,1.4,1,2.7,1.5,4.1c0.3-1.2,0.6-2.4,0.9-3.6c0.1-0.2-0.1-0.4-0.2-0.6C88.2,31.4,87.4,31.1,86.6,30.9z
			 M85.2,35.1c0.1,0.1,0.1,0.3,0.2,0.4c0.8,0.1,1.7,0.3,2.5,0.4c-0.5-1.6-1.2-3.1-1.7-4.7C85.8,32.5,85.6,33.8,85.2,35.1z
			 M53.8,35.2c0.9,0.5,1.8,1.1,2.7,1.6c0.2,0,0.3-0.1,0.5-0.1c0.4-0.8,0.8-1.6,1.2-2.3C56.7,34.7,55.3,34.9,53.8,35.2z M58.6,34.7
			c-0.3,0.9-1,1.6-1.1,2.5c1.4,0.2,2.7,0.4,4.1,0.7c-0.7-0.9-1.4-1.8-2.1-2.7C59.2,35,59,34.6,58.6,34.7z M50.2,35.9
			c-0.2,0-0.2,0.3-0.1,0.5c0.6,1.1,1.2,2.3,1.8,3.4c0.2,0.4,0.4,0.8,0.7,1.1c0.1-1.3,0.1-2.6,0.1-3.9c0-0.5,0.2-1.1-0.2-1.5
			C51.7,35.6,51,35.8,50.2,35.9z M78.5,35.7c-0.7,0.8-1.5,1.6-2.1,2.4c1.4-0.6,2.8-1.2,4.2-1.9c-0.4-0.3-0.8-0.6-1.2-0.8
			C79.1,35.6,78.7,35.4,78.5,35.7z M53.2,35.8c0,1.8-0.1,3.6-0.2,5.4c1.1-1.2,2.2-2.3,3.3-3.5c0-0.1,0-0.2-0.1-0.3
			c-0.9-0.5-1.8-1.1-2.6-1.6C53.5,35.7,53.3,35.5,53.2,35.8z M70.9,39.6c1.2-0.3,2.5-0.5,3.7-0.8c0.2-0.4,0.5-0.6,0.9-0.5
			c0.8-0.8,1.5-1.6,2.2-2.4C75.5,37.1,73.1,38.3,70.9,39.6z M81.7,36.6c0,0.1-0.1,0.3-0.1,0.3c0.3,0.8,0.5,1.6,0.9,2.3
			c0.7-1,1.2-2.1,1.9-3.1C83.4,36.3,82.6,36.4,81.7,36.6z M85.1,36.4c-0.1,0-0.3,0-0.4,0c-0.5,0.9-1,1.8-1.6,2.7
			c1.3-0.7,2.5-1.5,3.8-2.2c0.2-0.1,0.4-0.2,0.5-0.4c-0.7-0.1-1.4-0.2-2-0.4C85.3,36.2,85.2,36.3,85.1,36.4z M75.8,39.1
			c0.9,0.8,1.9,1.4,2.8,2.2c0.1,0,0.3-0.1,0.4-0.1c0.5-1.4,1.1-2.8,1.7-4.2C79.1,37.6,77.4,38.3,75.8,39.1z M79.5,41.2
			c0.8-0.4,1.6-0.9,2.3-1.3c0.1-0.2,0.1-0.4,0.2-0.5c-0.3-0.8-0.6-1.5-0.9-2.3C80.5,38.4,80,39.8,79.5,41.2z M83.1,39.8
			C83,40,83,40.2,82.9,40.3c0.3,0.7,0.6,1.4,1,2.1c0.1,0,0.2,0,0.2,0c1.2-1.7,2.3-3.5,3.4-5.2C86,38.1,84.6,38.9,83.1,39.8z
			 M57.7,37.9c0.4,0.4,0.9,0.9,1.3,1.3c0.2-0.1,0.5,0,0.7,0.1c0.5-0.3,1-0.5,1.5-0.8C60.1,38.3,58.9,38.1,57.7,37.9z M53.4,41.5
			c1.1,0.1,2.2,0.1,3.4,0.2c0.1-0.1,0.2-0.2,0.3-0.3c-0.1-1.1-0.1-2.2-0.4-3.3C55.6,39.2,54.5,40.4,53.4,41.5z M57.2,38.1
			c0.1,1.1,0.2,2.2,0.3,3.3c0.4-0.3,0.7-0.8,1.1-1.1c0.2-0.2,0.1-0.4,0.1-0.6C58.2,39.1,57.7,38.6,57.2,38.1z M59.9,39.9
			c0.8,0.6,1.6,1.1,2.4,1.6c0-0.8-0.2-1.6-0.3-2.4c-0.1-0.1-0.2-0.2-0.2-0.2C61.2,39.2,60.5,39.6,59.9,39.9z M62.5,39
			c0.1,0.8,0.2,1.6,0.3,2.4c0.1,0.1,0.2,0.2,0.4,0.3c1.6-0.4,3.2-0.9,4.8-1.3c-1.8-0.4-3.5-1-5.2-1.5C62.6,38.8,62.5,38.9,62.5,39z
			 M70,40.4c1.5,0.7,3,1.2,4.6,1.8c0.1,0,0.2-0.1,0.3-0.2c0-0.8,0.1-1.6,0.1-2.4c-0.1-0.1-0.2-0.2-0.3-0.2
			C73.1,39.7,71.6,40.1,70,40.4z M75.3,42c0.1,0.1,0.2,0.2,0.2,0.3c0.9-0.2,1.8-0.4,2.8-0.6c-0.9-0.7-1.8-1.4-2.7-2.1
			C75.2,40.3,75.4,41.2,75.3,42z M57.9,41.9c0.2,0.4,0.7,0.6,1,0.8c0,0,0.1-0.1,0.1-0.1c0-0.7,0-1.5,0-2.2
			C58.7,41,58.2,41.4,57.9,41.9z M59.6,40.4c-0.1,0.7,0,1.5,0,2.2c0,0.1,0.1,0.2,0.2,0.3c0.7-0.3,1.5-0.6,2.2-0.9
			c-0.3-0.3-0.7-0.5-1.1-0.8C60.4,40.9,60,40.6,59.6,40.4z M79.7,41.7c1.3,0.3,2.5,0.7,3.8,1c-0.3-0.7-0.6-1.4-1-2.1
			c-0.2-0.1-0.3-0.1-0.5-0.2C81.2,40.9,80.5,41.3,79.7,41.7z M63.9,42c1.4,0.4,2.7,0.6,4.1,0.9c0.1-0.1,0.3-0.2,0.4-0.3
			c0.1-0.6,0.2-1.1,0.2-1.7c0-0.1-0.1-0.2-0.2-0.2C66.9,41.2,65.4,41.6,63.9,42z M69,41c-0.1,0.6-0.2,1.1-0.3,1.7
			c0.1,0.1,0.2,0.2,0.2,0.3c1.6-0.2,3.1-0.3,4.7-0.5c-1.4-0.6-2.9-1.1-4.3-1.7C69.3,40.9,69.2,40.9,69,41z M53.5,42.1
			c1.2,1.1,2.3,2.2,3.5,3.3c0.1-0.9,0.1-1.8,0.2-2.7c-0.1-0.1-0.2-0.3-0.4-0.4C55.7,42.2,54.6,42.3,53.5,42.1z M75.6,42.9
			c0.2,0.3,0.5,0.6,0.7,0.9c0.2,0,0.5,0.1,0.6-0.1c0.4-0.4,0.8-0.9,1.2-1.3C77.3,42.5,76.4,42.7,75.6,42.9z M79.1,42.5
			c-0.1,1.3-0.3,2.7-0.3,4c1.5-1.1,3-2.1,4.5-3.2c-1.3-0.3-2.5-0.7-3.8-1C79.3,42.4,79.2,42.4,79.1,42.5z M63.1,42.5
			c0.3,0.6,0.6,1.2,0.9,1.9c0.1,0.3,0.4,0.3,0.6,0.4c1-0.4,2-0.9,3-1.3C66,43.1,64.5,42.8,63.1,42.5z M57.5,43
			c-0.1,0.7-0.1,1.5-0.1,2.2c0.5-0.6,1-1.1,1.3-1.7c-0.1-0.5-0.7-0.6-1.1-0.9C57.6,42.7,57.5,42.8,57.5,43z M60.1,43.3
			c1.2,0.5,2.3,1,3.5,1.4c-0.3-0.7-0.6-1.3-0.9-2c-0.2-0.1-0.4-0.1-0.6-0.2C61.4,42.8,60.8,43.1,60.1,43.3z M77.1,44.2
			c0,0.2,0,0.4,0,0.6c0.4,0.5,0.8,1.1,1.2,1.6c0.1-1.3,0.2-2.6,0.3-3.9C78.2,43.1,77.6,43.6,77.1,44.2z M69.5,43.6
			c0.9,0.5,1.8,1,2.7,1.4c0.1,0,0.2-0.1,0.3-0.2c0.1,0,0.3,0,0.4,0c0.5-0.6,1-1.2,1.5-1.8C72.8,43.2,71.1,43.4,69.5,43.6z M73.4,45
			c0.9-0.2,1.7-0.5,2.6-0.7c-0.3-0.4-0.6-1-1.2-0.9C74.3,43.9,73.9,44.5,73.4,45z M65.2,45.2c0.8,0.1,1.5,0.2,2.3,0.4
			c0.3,0.1,0.4-0.2,0.6-0.3c0-0.5,0.2-0.9,0-1.4C67.1,44.3,66.2,44.7,65.2,45.2z M60.1,44c0.7,1,1.5,1.9,2.2,2.9
			c0.3,0.4,0.5,0.7,0.8,1.1c0.4-0.5,0.3-1.2,0.5-1.7c0.1-0.3,0-0.6-0.1-0.9C62.4,44.9,61.2,44.5,60.1,44z M68.6,44.1
			c0,0.4-0.1,0.8-0.1,1.2c0.1,0.1,0.2,0.3,0.5,0.3c0.9-0.1,1.7-0.2,2.6-0.3c-0.7-0.4-1.5-0.8-2.2-1.2C69.1,44,68.8,43.8,68.6,44.1z
			 M58.3,45c-0.2,0.3-0.6,0.5-0.5,0.9c1.6,0.7,3.2,1.4,4.8,2.1c-1-1.3-2-2.6-3-3.9C58.9,43.9,58.7,44.6,58.3,45z M73.7,45.5
			c1.4,0.4,2.7,0.7,4.1,1.1c-0.4-0.5-0.7-1-1.1-1.4c-0.3,0-0.5-0.1-0.7-0.2C75.3,45.1,74.5,45.4,73.7,45.5z M64.6,45.7
			c-0.2,0.1-0.3,0.2-0.5,0.4c-0.2,0.7-0.4,1.3-0.6,2c1-0.5,2-1.1,3-1.6c0.2-0.1,0.5-0.3,0.8-0.3c0-0.2-0.1-0.4-0.4-0.2
			C66.2,46,65.4,45.8,64.6,45.7z M68.9,46.2c0.7,0.6,1.3,1.3,2,1.9c0.1,0,0.3,0,0.4,0.1c0.4-0.7,0.6-1.5,0.9-2.2
			C71.1,46,70,46.1,68.9,46.2z M73.1,46c-0.2,0.1-0.4,0.2-0.5,0.3c-0.2,0.7-0.7,1.3-0.8,2.1c1.8-0.4,3.7-0.8,5.5-1.3
			C75.9,46.7,74.5,46.3,73.1,46z M67.9,46.5c-1.1,0.6-2.3,1.1-3.4,1.8c2,0.1,4.1,0.1,6.1,0.1c-0.6-0.7-1.3-1.2-1.9-1.8
			c-0.1,0-0.3,0-0.4,0.1C68.1,46.6,68,46.6,67.9,46.5z"/>
	</g>
	<g>
		<path fill="#F2F3F7" d="M105,7.3c0.2-0.5,0.9-0.5,1.2,0c2,0,4.1,0,6.1,0c0.2-0.2,0.3-0.4,0.6-0.3c0.4-0.1,0.5,0.4,0.8,0.4
			c1.5,0.1,2.9,0.2,4.4,0.3c0.2-0.2,0.4-0.5,0.7-0.3c0.3,0.1,0.4,0.4,0.5,0.6c1.2,0.5,2.4,1,3.5,1.5c0.2-0.1,0.4-0.3,0.6-0.2
			c0.4,0.1,0.4,0.6,0.5,0.9c1.3,1.1,2.7,2.3,4,3.4c0.2,0,0.4-0.1,0.6,0c0.3,0.2,0.4,0.7,0.2,1.1c0.6,1.3,1.4,2.5,2,3.8
			c0.7,0,1,0.9,0.5,1.4c0.4,1.7,0.8,3.5,1.2,5.2c0.6,0.2,0.7,1.1,0.2,1.5c0,1.8,0,3.7,0,5.5c0.3,0.3,0.5,0.7,0.3,1
			c-0.1,0.3-0.6,0.3-0.7,0.7c-0.4,1.3-0.9,2.6-1.4,3.9c0.1,0.3,0.3,0.6,0.1,0.9c-0.1,0.3-0.4,0.3-0.7,0.4c-0.8,1.1-1.5,2.3-2.3,3.5
			c0,0.3,0.1,0.7-0.2,0.9c-0.2,0.2-0.5,0.2-0.8,0.1c-1.3,1-2.7,2.1-4,3.1c0,0.3-0.1,0.7-0.5,0.8c-0.2,0.1-0.5-0.1-0.7-0.2
			c-1.4,0.5-2.9,0.9-4.2,1.5c-0.1,0.2-0.2,0.3-0.3,0.5c-0.3,0.1-0.8,0.1-0.9-0.3c-1.9,0-3.7,0.2-5.6,0.3c-0.2,0-0.4,0-0.6,0.1
			c-0.1,0.2-0.2,0.4-0.5,0.5c-0.3,0.1-0.5-0.2-0.7-0.4c-2.4,0-4.8,0.1-7.2,0c-1.3,0-2.6-0.1-3.9-0.1c-0.2,0.3-0.4,0.5-0.8,0.4
			c-0.2-0.3-0.8-0.3-0.9-0.7c0.1-0.1,0.2-0.2,0.4-0.3c0.1-0.2,0.3-0.3,0.4-0.5c0-2.7,0-5.5,0-8.2c-0.2-0.2-0.3-0.5-0.4-0.7
			c0.1-0.2,0.2-0.4,0.3-0.6c0.4,0.1,0.8,0.2,1.1,0.4c1.3,0.2,2.5,0.4,3.8,0.6c0.1-0.1,0.2-0.2,0.3-0.3c0.2,0,0.4,0,0.6,0
			c0.1,0.1,0.1,0.2,0.2,0.3c1.2-0.1,2.3-0.2,3.5-0.3c0.1-0.2,0.3-0.4,0.4-0.5c0.3-0.1,0.6,0.3,0.8,0.5c1.4,0.2,2.8,0.4,4.2,0.6
			c0.2-0.1,0.3-0.3,0.6-0.3c0.2,0,0.4,0.2,0.5,0.3c1.4-0.2,2.8-0.4,4.2-0.6c0.2-0.4,0.5-0.6,1-0.5c1-1,2-1.9,2.9-2.9
			c-0.1-0.5,0.2-0.9,0.6-1c0.6-1.5,1.2-2.9,1.8-4.4c-0.1-0.4-0.2-0.9,0.2-1.2c-0.1-1.1-0.4-2.2-0.5-3.3c0-0.4-0.5-0.5-0.5-0.8
			c-0.1-0.3,0-0.5,0.1-0.8c-0.4-1.2-1-2.5-1.4-3.7c-0.5,0-0.7-0.5-0.7-0.9c-1.1-0.9-2.1-1.8-3.2-2.7c-0.4,0.2-0.8,0-1-0.4
			c-1.5-0.2-3.1-0.4-4.6-0.6c-0.2,0.2-0.3,0.4-0.6,0.3c-0.2,0-0.4-0.3-0.5-0.4c-0.9,0-1.9,0-2.8,0c-0.3,0-0.4,0.4-0.7,0.4
			c-0.3,0-0.5-0.2-0.7-0.4c-1.3-0.1-2.6-0.2-3.8-0.3c-0.2,0.2-0.4,0.3-0.5,0.5c-0.2-0.1-0.4-0.3-0.5-0.4c-1,0.3-2,0.5-2.9,0.8
			c-0.3,0-0.2,0.4-0.2,0.6c-0.4,0-0.9,0.1-1.1-0.4c-0.2-0.4,0-0.8,0.3-1.1c-0.1-2.3-0.2-4.7-0.3-7c-0.3-0.2-0.4-0.5-0.5-0.8
			c0.1-0.3,0.2-0.7,0.6-0.7c0.3-0.1,0.5,0.2,0.7,0.4C100.4,7.5,102.7,7.4,105,7.3z M98.2,8.2c0.7,0.7,1.4,1.4,2.1,2.1
			c0.2,0,0.5,0,0.7,0.1c1.2-0.8,2.4-1.7,3.6-2.5C102.5,8,100.3,8.2,98.2,8.2z M107,7.9c0.2,0.2,0.4,0.3,0.6,0.4
			c0.9,0.4,1.7,1,2.6,1.4c0.2-0.1,0.5-0.1,0.7-0.1c0.5-0.6,1-1.1,1.4-1.7C110.5,7.9,108.7,7.9,107,7.9z M113.6,7.9
			c0.6,0.7,1.2,1.4,1.8,2c0.2,0,0.5,0.1,0.7-0.1c0.6-0.6,1.3-1.1,1.9-1.7C116.5,8.1,115,8,113.6,7.9z M105.8,8.2c0,1,0,2,0,2.9
			c0.2,0.1,0.3,0.2,0.5,0.1c1.2-0.4,2.3-0.7,3.5-1.1c-1.2-0.7-2.4-1.3-3.6-1.9C106.1,8.2,106,8.2,105.8,8.2z M104.1,9
			c-0.9,0.6-1.8,1.3-2.7,1.9c1.2,0.2,2.3,0.4,3.5,0.5c0.2,0.1,0.4-0.1,0.5-0.2c0-1,0-2,0-3C104.9,8.3,104.5,8.7,104.1,9z M112.7,8.3
			c-0.5,0.6-1,1.1-1.5,1.7c1.3,0.1,2.5,0.2,3.8,0.3c-0.7-0.6-1.2-1.4-1.8-2C113,8.3,112.8,8.3,112.7,8.3z M119.1,8.5
			c0.8,1.6,1.4,3.3,2.2,4.9c0,0,0.1,0,0.1,0c0.5-1,1-2,1.4-3.1c0-0.1-0.1-0.3-0.1-0.4C121.5,9.5,120.4,8.9,119.1,8.5z M118.3,8.6
			c-0.7,0.7-1.5,1.2-2.2,2c1.5,1,3.1,1.9,4.7,2.8c-0.7-1.6-1.4-3.2-2.1-4.8C118.6,8.6,118.5,8.6,118.3,8.6z M97.8,8.6
			c0.1,2.3,0.2,4.6,0.3,7c0.7-1.4,1.4-2.7,2-4.1c-0.1-0.2-0.1-0.5-0.1-0.7C99.2,10.1,98.5,9.3,97.8,8.6z M123.3,10.6
			c-0.4,0.8-0.7,1.5-1.1,2.3c-0.1,0.3-0.3,0.6-0.3,0.9c1.9,0,3.8,0,5.7,0c-1.3-1.1-2.6-2.2-3.9-3.3
			C123.5,10.5,123.4,10.6,123.3,10.6z M110.9,10.9c0.2,1.4,0.4,2.8,0.6,4.1c1.2-1.3,2.3-2.8,3.5-4.1c-1.3-0.1-2.6-0.2-3.9-0.3
			C111.1,10.7,111,10.8,110.9,10.9z M106.2,11.9c-0.1,0.2-0.2,0.4-0.1,0.6c0.2,0.6,0.5,1.1,0.7,1.7c0.1,0.3,0.2,0.6,0.4,0.9
			c0.9-1.4,1.8-2.8,2.7-4.3C108.7,11.2,107.5,11.6,106.2,11.9z M110.5,11c-0.9,1.5-1.9,2.9-2.8,4.4c1,0,2.1,0,3.1,0
			c0.1-0.1,0.2-0.3,0.3-0.4C110.8,13.6,110.7,12.3,110.5,11z M116,11.2c0.4,1.5,0.8,3,1.2,4.4c0.1,0.1,0.3,0.1,0.4,0.2
			c1.1-0.6,2.1-1.2,3.2-1.8C119.2,13.1,117.6,12.2,116,11.2z M115.3,11.5c-1.1,1.3-2.2,2.6-3.3,3.9c1.6,0.2,3.1,0.4,4.7,0.6
			c0-0.1,0.1-0.2,0.2-0.2c-0.4-1.5-0.8-2.9-1.2-4.4C115.6,11.2,115.3,11.4,115.3,11.5z M101.1,11.4c0.2,1.1,0.7,2,1,3.1
			c0.1,0,0.2,0.1,0.3,0.1c0.9-0.9,1.7-1.7,2.6-2.6C103.7,11.8,102.4,11.6,101.1,11.4z M98.4,16c1-0.3,2-0.5,3-0.8
			c0.2,0,0.2-0.3,0.3-0.5c-0.4-1-0.7-2-1.1-3C99.8,13.1,99.2,14.6,98.4,16z M102.8,15c1.3,0.1,2.5,0.2,3.8,0.3c0,0,0.1-0.1,0.1-0.1
			c-0.2-0.6-0.5-1.2-0.7-1.8c-0.2-0.3-0.2-0.8-0.6-1C104.5,13.3,103.6,14.1,102.8,15z M122,14.4c0.6,0.7,1.2,1.4,1.8,2.1
			c0.2,0,0.4,0,0.6,0.1c1-0.7,2-1.4,3-2.1C125.6,14.4,123.8,14.4,122,14.4z M120.3,15c-0.9,0.5-1.8,0.9-2.6,1.5
			c1.1,0.9,2.3,1.9,3.4,2.8c0.1-1.5,0-3.1,0-4.6C120.8,14.7,120.6,14.9,120.3,15z M124.7,17.1c1.9,0.5,3.9,1.1,5.8,1.6
			c-0.7-1.3-1.4-2.5-2-3.8c-0.2,0-0.4-0.1-0.5-0.1C126.9,15.5,125.8,16.3,124.7,17.1z M121.6,14.8c0,1.5,0,3,0,4.5
			c0.6-0.6,1.1-1.1,1.7-1.7c0.2-0.2,0.2-0.6,0-0.8C122.8,16.1,122.2,15.4,121.6,14.8z M124.5,17.7c0,0-0.1,0.1-0.1,0.2
			c0.1,0.9,0.3,1.9,0.5,2.8c0.1,0.1,0.3,0.2,0.4,0.3c1.6-0.6,3.2-1.1,4.7-1.8C128.2,18.7,126.4,18.1,124.5,17.7z M121.9,19.8
			c0.8,0.4,1.7,0.8,2.6,1.2c-0.1-1-0.3-2.1-0.6-3.1C123.2,18.4,122.6,19.1,121.9,19.8z M125.8,21.4c0.8,0.2,1.6,0.5,2.4,0.7
			c0.2-0.2,0.4-0.2,0.7-0.2c0.5-0.7,1-1.4,1.4-2.2C128.8,20.3,127.3,20.8,125.8,21.4z M130,21c-0.3,0.4-0.6,0.8-0.8,1.2
			c-0.1,0.5,0.4,0.7,0.7,1c0.6,0.5,1.3,1,1.9,1.5c0.1,0.1,0.3,0.3,0.4,0.3c-0.2-0.3-0.2-0.6-0.3-0.9c-0.4-1.5-0.7-3-1-4.4
			C130.6,20.1,130.3,20.6,130,21z M121.8,20.4c0.5,1.3,1,2.6,1.5,3.8c0.4-0.7,0.7-1.6,1.1-2.3c-0.1-0.1-0.1-0.3-0.2-0.4
			C123.4,21.1,122.6,20.8,121.8,20.4z M125.3,21.9c-0.2,0.1-0.3,0.2-0.5,0.2c-0.3,0.7-0.7,1.5-1,2.2c1.3-0.6,2.7-1.1,4-1.7
			C127,22.4,126.2,22.1,125.3,21.9z M124.2,24.8c-0.2,0-0.4,0.2-0.2,0.4c1,1.2,2,2.5,3.1,3.7c0.1-0.3,0.2-0.5,0.2-0.8
			c0.4-1.7,0.7-3.3,1.1-5C126.9,23.6,125.6,24.3,124.2,24.8z M128.7,23.7c-0.4,1.7-0.8,3.5-1.1,5.2c1.5-1,3-2.1,4.4-3.2
			c-0.1-0.3-0.4-0.5-0.6-0.6c-0.8-0.6-1.5-1.3-2.3-1.9C128.7,23.2,128.7,23.5,128.7,23.7z M123.6,25.7c0.2,1.1,0.3,2.2,0.5,3.2
			c0,0.3,0.3,0.5,0.6,0.6c0.6-0.1,1.3-0.2,1.9-0.3C125.6,28.1,124.6,26.8,123.6,25.7z M130.4,27.6c-0.9,0.7-1.8,1.2-2.7,2
			c1.4,0.8,2.9,1.6,4.3,2.4c0.2,0.2,0.4-0.1,0.3-0.2c0-1.8,0-3.7,0-5.5C131.6,26.6,131,27.1,130.4,27.6z M124.6,30.2
			c0.8,1.1,1.6,2.2,2.4,3.3c0-1,0-2.1,0-3.1c0-0.2-0.2-0.3-0.3-0.5C126,30,125.3,30,124.6,30.2z M127.4,30.1c-0.1,0.8,0,1.6,0,2.5
			c0,0.4-0.1,0.9,0.2,1.2c1.4-0.4,2.8-0.8,4.2-1.2c-0.6-0.4-1.2-0.7-1.8-1.1C129.1,31,128.3,30.4,127.4,30.1z M123.9,30.9
			c-0.6,1.4-1.2,2.9-1.7,4.3c1.5-0.4,3-0.8,4.4-1.3c-0.2-0.5-0.6-0.8-0.8-1.3c-0.5-0.7-1-1.4-1.5-2C124.1,30.5,124,30.8,123.9,30.9z
			 M127.7,34.3c0.9,1,1.8,2,2.7,3c0.1,0,0.2-0.1,0.3-0.1c0.5-1.4,1-2.8,1.5-4.2C130.7,33.5,129.2,33.9,127.7,34.3z M122.5,35.8
			c-0.2,0-0.2,0.3,0,0.4c0.5,0.7,1,1.3,1.5,1.9c0.2-0.1,0.4-0.1,0.5-0.3c0.7-1.1,1.4-2.1,2.1-3.2C125.2,35,123.8,35.4,122.5,35.8z
			 M127,34.9c-0.8,1.2-1.6,2.3-2.3,3.5c1.8-0.2,3.6-0.4,5.4-0.6c-0.9-0.9-1.7-1.9-2.5-2.8C127.4,34.8,127.2,34.9,127,34.9z
			 M118.7,39.1c1.6-0.2,3.2-0.4,4.8-0.6c-0.5-0.7-1-1.4-1.5-2.1c-0.2,0-0.3,0-0.5-0.1C120.6,37.2,119.6,38.2,118.7,39.1z M124.7,39
			c0.9,1,1.7,1.9,2.6,2.9c0.1,0,0.3,0,0.4,0c0.8-1.2,1.6-2.4,2.4-3.6C128.3,38.6,126.5,38.8,124.7,39z M118.7,39.7
			c0.6,0.5,1.3,1,1.9,1.5c0.2-0.1,0.4-0.1,0.7,0c0.7-0.7,1.3-1.3,2-2C121.7,39.4,120.2,39.5,118.7,39.7z M121.6,41.6
			c1.7,0.2,3.5,0.4,5.2,0.6c-0.8-0.9-1.6-1.8-2.5-2.7c-0.2,0-0.4,0-0.5,0C123.1,40.1,122.3,40.9,121.6,41.6z M98,39.5
			c0.3,1.2,0.9,2.3,1.3,3.5c0.1,0.2,0.1,0.5,0.4,0.5c0.8-1.1,1.6-2.2,2.4-3.3C100.7,39.9,99.3,39.7,98,39.5z M103.4,40.2
			c-0.3,0-0.4,0.2-0.5,0.4c0.2,1.2,0.4,2.5,0.6,3.7c1.1-1.4,2.1-2.9,3.2-4.4C105.5,40,104.4,40.1,103.4,40.2z M107.8,39.9
			c0.4,0.6,0.9,1.2,1.3,1.8c0.1,0.3,0.5,0.2,0.7,0.3c0.7-0.5,1.3-1,2-1.5C110.5,40.3,109.1,40.1,107.8,39.9z M113.4,40.5
			c0.6,0.4,1.2,0.8,1.8,1.1c0.2-0.1,0.5-0.1,0.7-0.1c0.5-0.5,0.9-1,1.4-1.6C116,40.1,114.7,40.3,113.4,40.5z M106.9,40.2
			c-1,1.4-1.9,2.7-2.9,4.1c1.6-0.6,3.1-1.2,4.7-1.8c0.3,0,0.1-0.4,0-0.5c-0.5-0.6-0.9-1.2-1.4-1.8C107.2,40.2,107.1,40.2,106.9,40.2
			z M117.7,40.2c-0.5,0.5-0.9,1.1-1.4,1.6c1.3-0.1,2.6-0.2,3.9-0.3c-0.6-0.5-1.3-1-1.9-1.4C118.1,40.2,117.9,40.2,117.7,40.2z
			 M97.8,40.3c0,2.4,0,4.9,0,7.3c0.4-1,0.8-2,1.2-3c-0.2-0.3-0.1-0.7,0-1.1C98.6,42.5,98.1,41.4,97.8,40.3z M102.4,40.5
			c-0.8,1.1-1.7,2.2-2.4,3.4c0.9,0.2,1.9,0.4,2.8,0.5c0.2-0.1,0.1-0.4,0.1-0.6C102.7,42.7,102.6,41.6,102.4,40.5z M110,42.5
			c0.3,0.3,0.8,0.5,1.2,0.7c0.5,0.2,0.9,0.6,1.4,0.7c0-0.8-0.2-1.6-0.2-2.5c0-0.2,0-0.5-0.2-0.6C111.5,41.4,110.8,42,110,42.5z
			 M112.8,40.8c0.1,0.9,0.2,1.9,0.2,2.8c0,0.2,0.1,0.3,0.3,0.1c0.4-0.3,0.8-0.7,1.2-1c0.2-0.2,0.5-0.4,0.6-0.6
			C114.3,41.8,113.6,41.2,112.8,40.8z M116.4,42.5c-0.3,0-0.5,0.3-0.4,0.5c0.3,1.3,0.6,2.5,0.9,3.8c0.1,0.3,0.1,0.7,0.3,1
			c1.1-1.9,2.2-3.7,3.2-5.6C119.1,42.3,117.8,42.4,116.4,42.5z M121.5,42.2c-0.1,0.2,0,0.4,0.1,0.6c0.3,0.9,0.6,1.8,0.9,2.7
			c0,0.2,0.3,0.2,0.4,0.3c1.3-1,2.7-2,3.9-3.1C125,42.6,123.2,42.4,121.5,42.2z M120.9,42.5c-1.1,1.8-2.1,3.6-3.2,5.3
			c1.3-0.4,2.6-1,3.9-1.4c0.3-0.1,0.5-0.5,0.4-0.8C121.7,44.6,121.4,43.6,120.9,42.5C121,42.5,120.9,42.5,120.9,42.5z M115.2,43
			c-0.5,0.4-1,0.9-1.5,1.3c-0.2,0.2-0.1,0.5,0.1,0.6c1,0.9,2,1.9,3,2.8c-0.4-1.5-0.8-3-1.2-4.6C115.6,42.9,115.3,42.8,115.2,43z
			 M109.7,43.3c0.2,1.6,0.2,3.2,0.3,4.7c0.5-0.4,0.8-0.9,1.1-1.4c0.4-0.6,0.8-1.1,1.2-1.7c0-0.1-0.1-0.3-0.1-0.4
			c-0.8-0.4-1.6-0.9-2.4-1.3C109.8,43.2,109.8,43.2,109.7,43.3z M104.2,44.9c-0.2,0-0.3,0.2-0.3,0.4c0.3,0.4,0.5,0.8,0.8,1.2
			c0.2,0,0.3,0.1,0.5,0.1c1.1-1.1,2.2-2.2,3.2-3.2C107,43.9,105.6,44.4,104.2,44.9z M108.1,44.4c-0.9,0.9-1.8,1.8-2.7,2.7
			c1.2,0.4,2.4,0.7,3.7,1.1c0.2,0.1,0.4,0,0.6,0c-0.1-1.6-0.2-3.3-0.3-4.9C108.8,43.6,108.5,44,108.1,44.4z M100,44.6
			c-0.2,0.1-0.4,0.3-0.6,0.3c-0.4,1-0.9,2.1-1.3,3.1c0.8-0.3,1.4-0.9,2.1-1.3c0.8-0.5,1.6-1.1,2.4-1.6
			C101.7,44.9,100.9,44.7,100,44.6z M112.7,45.2c-0.7,1-1.5,2-2.2,3c1.1,0.1,2.1-0.1,3.2,0c0.9-0.1,1.8-0.1,2.8-0.2
			c-1.1-0.9-2.2-1.9-3.2-2.9C113.1,45.2,112.9,45.2,112.7,45.2z M98.9,48.2c1.8-0.4,3.6-0.7,5.3-1.1l0-0.1c-0.2-0.4-0.5-0.8-0.8-1.2
			c-0.2,0-0.4-0.1-0.6-0.1C101.6,46.4,100.3,47.2,98.9,48.2z M102.3,48.1c-0.5,0.1-1,0.2-1.5,0.3c2.5,0,4.9-0.1,7.4,0.1
			c-0.1-0.1-0.3-0.2-0.4-0.2c-0.9,0.1-1.6-0.4-2.4-0.6c-0.3,0.3-0.7,0.3-1,0C103.7,47.7,103,47.9,102.3,48.1z"/>
	</g>
	<g>
		<path fill="#F2F3F7" d="M142.2,7.5c0.1-0.3,0.4-0.2,0.7-0.3c0.1,0.1,0.2,0.3,0.3,0.4c1.1,0,2.2,0.1,3.3,0.1c0.3,0,0.5-0.3,0.8-0.3
			c0.2,0,0.3,0.2,0.5,0.3c1.1,0,2.3,0.1,3.5,0.1c0.3-0.2,0.6-0.5,0.9-0.3c0.4,0.3,0.4,1,0,1.3c0.2,1.6,0.3,3.3,0.5,4.9
			c0.2,0.2,0.5,0.4,0.5,0.7c0,0.3-0.2,0.5-0.4,0.7c0,1.6,0,3.1,0,4.7c-0.1,0.4,0.4,0.6,0.4,0.9c0.1,0.4-0.3,0.6-0.4,0.9
			c-0.1,1.2-0.1,2.5-0.2,3.7c0.1,0.2,0.3,0.4,0.4,0.6c0.1,0.3-0.2,0.6-0.4,0.8c0,1.5,0,3,0,4.5c0.2,0.2,0.4,0.5,0.4,0.8
			c0,0.3-0.2,0.5-0.4,0.7c0,2.3,0,4.6,0,6.9c0.1,0.1,0.2,0.3,0.4,0.4c1.4-0.1,2.7-0.1,4.1-0.2c0.2-0.1,0.3-0.4,0.6-0.4
			c0.3,0,0.4,0.2,0.6,0.4c1.2,0.1,2.5,0.1,3.7,0.2c0.2-0.2,0.3-0.4,0.6-0.4c0.3,0,0.4,0.3,0.6,0.5c1.3,0,2.6,0.1,3.9,0.2
			c0.2-0.2,0.3-0.4,0.6-0.4c0.5,0.1,0.7,0.8,0.4,1.2c-0.2,0.2-0.1,0.6-0.1,0.9c0.1,0.8,0.2,1.5,0.2,2.3c0.6,0.3,0.6,1.1,0.1,1.5
			c-0.1,0.8-0.2,1.6-0.2,2.4c0.1,0,0.2,0.1,0.3,0.1c0.1,0.2,0.1,0.3,0.2,0.5c0,0.3-0.3,0.5-0.4,0.7c-0.4,0-0.6-0.2-0.8-0.4
			c-1.9,0-3.8,0-5.7,0.1c-0.1,0.1-0.2,0.3-0.3,0.4c-0.4,0.1-0.6-0.3-0.9-0.3c-1.7,0-3.4-0.2-5-0.1c-0.2,0.2-0.4,0.4-0.7,0.3
			c-0.2-0.1-0.3-0.2-0.4-0.4c-1.8,0-3.6,0-5.4,0c-0.3,0-0.6,0.1-0.8,0.1c-1.5-0.3-2.9-0.1-4.4-0.2c-0.3-0.1-0.4,0.2-0.6,0.4
			c-0.2,0.1-0.5,0-0.7-0.1c-0.2-0.2-0.2-0.5-0.2-0.8c0.1-0.1,0.3-0.3,0.4-0.4c0-1.7,0-3.5-0.1-5.2c0-0.3-0.3-0.6-0.3-0.9
			c0-0.3,0.3-0.6,0.3-0.9c0-1.9,0-3.7-0.1-5.6c-0.5-0.3-0.5-1.1,0-1.4c0.1-1.8,0.1-3.6,0.1-5.4c0-0.3-0.2-0.6-0.3-0.9
			c-0.1-0.4,0.3-0.6,0.3-0.9c0-2,0.1-4,0.1-6.1c-0.5-0.3-0.5-1.1,0-1.4c0-1.7,0-3.4,0-5.1c0.1-0.4-0.5-0.6-0.4-1.1
			c0-0.3,0.2-0.5,0.4-0.7c0.1-1.3,0.1-2.5,0.2-3.8C142.1,8.4,141.9,7.9,142.2,7.5z M143.3,8.3c0.7,0.8,1.5,1.7,2.2,2.5
			c0.1,0,0.2-0.1,0.3-0.1c0.3-0.7,0.7-1.4,0.9-2.1c0-0.3-0.3-0.2-0.5-0.2C145.2,8.4,144.3,8.3,143.3,8.3z M147.7,8.5
			c0,0.3,0.1,0.5,0.2,0.8c0.3,0.7,0.5,1.3,0.8,2c0.2-0.1,0.4-0.2,0.5-0.3c0.7-0.8,1.3-1.6,2-2.4C150,8.5,148.9,8.5,147.7,8.5z
			 M142.8,8.6c0,1.4-0.2,2.7-0.1,4.1c0.7-0.3,1.4-0.7,2-1c0.2-0.1,0.6-0.4,0.3-0.6C144.3,10.2,143.6,9.4,142.8,8.6z M149.4,11.5
			c-0.2,0.2,0,0.6,0.2,0.7c0.9,0.6,1.7,1.2,2.6,1.8c-0.2-1.7-0.3-3.5-0.5-5.2C150.9,9.7,150.2,10.6,149.4,11.5z M147,9.2
			c-0.3,0.6-0.6,1.3-0.9,1.9c0.1,0,0.2,0.1,0.2,0.2c0.6,0.1,1.3,0.2,2,0.3c-0.3-0.9-0.7-1.8-1-2.6C147.1,8.9,147.1,9.1,147,9.2z
			 M146.1,11.9c0.5,1.7,1.2,3.3,1.8,5c0,0.1,0.1,0.3,0.2,0.3L148,17c0.2-1.5,0.3-2.9,0.5-4.4c-0.1-0.1-0.2-0.3-0.3-0.4
			C147.5,12,146.8,11.9,146.1,11.9z M143.1,13.2c-0.3,0.1,0,0.3,0.1,0.4c1.4,1.2,2.9,2.4,4.3,3.6c-0.6-1.7-1.2-3.4-1.8-5
			c-0.2-0.1-0.3-0.1-0.5-0.2C144.5,12.4,143.8,12.8,143.1,13.2z M148.9,12.9c-0.2,1.5-0.3,3-0.5,4.5c1.2-1,2.5-1.9,3.6-2.9
			c-0.9-0.7-1.8-1.4-2.8-2C148.9,12.4,148.9,12.8,148.9,12.9z M142.6,13.8c0,1.8,0,3.5,0,5.3c0,0.2,0.1,0.3,0.2,0.4
			c1.6-0.5,3.1-1.1,4.7-1.6C145.9,16.5,144.3,15.1,142.6,13.8z M148.6,18c0.8,0.6,1.6,1,2.4,1.6c0.4,0.3,0.8,0.6,1.3,0.7
			c0.1-1,0-2,0-3c0-0.7,0-1.5,0-2.2C151,16.1,149.8,17,148.6,18z M148.1,18.8c-0.3,1.1-0.7,2.1-0.9,3.2c1.5-0.4,3-0.8,4.6-1.2
			c-1.1-0.7-2.2-1.4-3.3-2.1C148.4,18.7,148.2,18.7,148.1,18.8z M143.2,20.1c0.4,0.2,0.7,0.3,1.1,0.5c0.2-0.1,0.4-0.2,0.6-0.2
			c0,0,0.1,0.1,0.2,0.1c0.6-0.6,1.2-1.2,1.9-1.7C145.8,19.2,144.5,19.6,143.2,20.1z M145.4,21c0.2,0.4,0.7,0.6,1,0.9
			c0.1-0.1,0.4-0.2,0.4-0.4c0.3-0.9,0.5-1.8,0.8-2.6C146.9,19.6,146.1,20.2,145.4,21z M142.6,21.1c0,1.8,0,3.6,0,5.4
			c0.5-1.6,1.2-3.2,1.7-4.8c-0.1-0.2-0.1-0.3-0.2-0.5c-0.4-0.2-0.9-0.4-1.3-0.6C142.6,20.5,142.6,20.9,142.6,21.1z M147.5,22.5
			c-0.2,0-0.2,0.3-0.3,0.4c0.4,0.8,0.7,1.6,1,2.3c0.4,0,0.5-0.4,0.7-0.6c0.9-1.1,1.8-2.2,2.7-3.3C150.3,21.8,148.9,22.2,147.5,22.5z
			 M145,22.2c-0.1,1.4-0.2,2.9-0.3,4.3c0.6-1.2,1.1-2.4,1.6-3.6c0-0.7-0.7-0.9-1.1-1.2C145,21.8,145,22,145,22.2z M148.9,25.6
			c0.9,0.1,1.9,0.1,2.8,0.2c0.1-0.2,0.4-0.3,0.4-0.5c0.1-1.2,0.1-2.4,0.2-3.7C151.1,22.9,150,24.3,148.9,25.6z M142.9,27
			c-0.2,0.6,0.6,0.3,0.9,0.4c0.1-0.1,0.3-0.3,0.4-0.4c0.2-1.5,0.1-2.9,0.4-4.4C144,24.1,143.4,25.5,142.9,27z M146.6,23.5
			c-0.6,1.2-1.1,2.4-1.7,3.7c0.9-0.4,1.9-0.8,2.8-1.2c0.1-0.2,0.1-0.3,0.2-0.5c-0.3-0.8-0.7-1.5-1-2.3
			C146.7,23.1,146.6,23.3,146.6,23.5z M148.1,27c-0.3,0.6-0.6,1.2-0.9,1.8c1.3-0.8,2.7-1.5,4-2.3c-0.8,0-1.5-0.1-2.3-0.1
			C148.7,26.6,148.2,26.6,148.1,27z M145,27.7c0.3,0.4,0.8,0.7,1.3,1.1c0.1,0,0.3-0.1,0.5-0.1c0.4-0.7,0.7-1.5,1.1-2.2
			C146.9,26.9,145.9,27.3,145,27.7z M151.6,26.9c-1.3,0.7-2.6,1.5-3.9,2.2c-0.1,0.1-0.3,0.1-0.4,0.3c1.5,0.8,3.1,1.4,4.6,2.1
			c0.1,0,0.2-0.1,0.2-0.2c0-1.5,0-3.1,0-4.6C151.9,26.7,151.7,26.8,151.6,26.9z M142.9,28c0,0.1-0.1,0.2-0.1,0.3
			c0.3,1.2,0.7,2.4,1,3.6c0.1-1.1,0.2-2.2,0.3-3.2c0.1-0.3-0.1-0.4-0.3-0.6C143.5,28,143.2,28,142.9,28z M144.5,28.4
			c-0.1,1.3-0.2,2.7-0.3,4c0.5-0.9,1.2-1.7,1.8-2.6c-0.1-0.2,0-0.5-0.2-0.6c-0.4-0.3-0.7-0.6-1.1-0.9
			C144.7,28.3,144.6,28.4,144.5,28.4z M142.5,29c0,1.7-0.1,3.4-0.1,5.1c0.3-0.2,0.6-0.5,0.9-0.8c0-0.3,0.1-0.5,0.2-0.8
			C143.2,31.4,142.9,30.2,142.5,29z M146.9,30c0.3,0.8,0.5,1.7,0.8,2.5c0.2,0.1,0.3,0.2,0.5,0.3c1-0.2,2.1-0.5,3.1-0.7
			c-0.2-0.2-0.4-0.2-0.6-0.3C149.4,31.1,148.2,30.5,146.9,30z M144.5,32.9c0.9,0,1.8,0,2.7,0c0-0.1,0.2-0.3,0.1-0.4
			c-0.2-0.8-0.5-1.6-0.7-2.4C145.7,30.9,145.1,31.9,144.5,32.9z M148.3,33.4c0,0.1,0,0.2-0.1,0.2c1.3,2,2.5,4,3.9,6
			c0-2.3,0-4.6,0-6.9c-0.2-0.1-0.3-0.3-0.5-0.2C150.5,32.8,149.4,33.1,148.3,33.4z M144.4,33.5c0.6,1.3,1.3,2.5,2,3.7l0.1,0
			c0.3-1.1,0.5-2.3,0.8-3.4c0-0.1-0.1-0.2-0.1-0.3C146.3,33.5,145.3,33.5,144.4,33.5z M142.8,34.8c1,0.8,2,1.5,3,2.3
			c-0.5-1-1.1-2-1.6-3c-0.1-0.2-0.4-0.3-0.6-0.3C143.4,34.1,142.8,34.3,142.8,34.8z M147.7,34.2c-0.2,0.9-0.4,1.9-0.6,2.8
			c-0.1,0.4,0.2,0.8,0.2,1.2c0.5,0.5,1.1,1,1.6,1.5C148.4,37.9,148.1,36,147.7,34.2z M148.1,34.4c0.3,1.7,0.7,3.3,1.1,5
			c0,0.3,0.4,0.5,0.6,0.7c0.7,0,1.3,0,2,0C150.6,38.2,149.4,36.3,148.1,34.4z M142.4,35.5c0.1,1.9,0.1,3.8,0.2,5.8
			c0.1,0,0.2,0.1,0.2,0.2c0.7-0.3,1.3-0.6,2-0.9c0-0.1,0.1-0.3,0.1-0.4C144.1,38.6,143.2,37.1,142.4,35.5z M142.9,35.6
			c0.8,1.4,1.6,2.9,2.4,4.3c0,0,0.1,0,0.2,0c0.2-0.4,0.4-0.8,0.5-1.2c0.1-0.3-0.1-0.6-0.1-0.9C144.9,37.1,143.9,36.3,142.9,35.6z
			 M146.5,38.7c-0.2,0.5-0.5,1-0.6,1.6c0.9,0,1.7-0.1,2.6-0.1c-0.5-0.5-1.1-1-1.7-1.5C146.8,38.7,146.6,38.7,146.5,38.7z
			 M152.9,40.7c-0.1,0.1-0.2,0.2-0.3,0.3c0.1,0.4,0.1,0.8,0.2,1.2c0,0.2,0.3,0.4,0.5,0.2c1-0.6,2.1-1.2,3.1-1.8
			C155.2,40.6,154,40.7,152.9,40.7z M157.9,40.7c0.2,0.4,0.3,0.9,0.5,1.4c0.1,0.1,0.3,0.1,0.4,0.2c0.9-0.5,1.7-1.1,2.6-1.6
			c-1.1,0-2.2-0.1-3.2-0.1C158.1,40.6,158,40.6,157.9,40.7z M146,40.9c-0.3,0.2,0,0.5,0,0.8c0.3,0.7,0.4,1.3,0.7,2c0,0,0.1,0,0.1,0
			c0.6-0.9,1.2-1.9,1.7-2.9C147.8,40.8,146.9,40.8,146,40.9z M150.1,40.7c0.8,0.6,1.5,1.2,2.3,1.7c-0.1-0.4-0.1-0.9-0.2-1.3
			c-0.1-0.2-0.3-0.3-0.5-0.4C151.2,40.7,150.6,40.7,150.1,40.7z M153.9,42.7c1.3,0,2.6-0.1,4-0.1c0-0.1,0.1-0.2,0.1-0.3
			c-0.1-0.4-0.3-0.9-0.4-1.3c-0.1-0.1-0.3-0.1-0.4-0.2C156.1,41.4,155,42,153.9,42.7z M163,40.7c0.2,0.2,0.4,0.5,0.6,0.7
			c0.2,0,0.5,0.1,0.7,0.2c0.6-0.2,1.1-0.4,1.7-0.8C165,40.8,164,40.8,163,40.7z M148.9,41.4c-0.5,0.8-1,1.7-1.6,2.6
			c1.6-0.3,3.1-0.7,4.7-1c-0.8-0.6-1.7-1.2-2.5-1.9C149.3,41.1,149,41.1,148.9,41.4z M159.7,42.4c1.2-0.2,2.4-0.3,3.6-0.5
			c-0.2-0.3-0.5-0.6-0.7-0.8c-0.2,0-0.4,0-0.7-0.1C161.2,41.5,160.4,41.9,159.7,42.4z M143.1,42c1.1,0.6,2.2,1.2,3.3,1.8
			c-0.3-0.8-0.6-1.6-0.9-2.5c-0.2-0.1-0.3-0.1-0.5-0.2C144.4,41.4,143.7,41.7,143.1,42z M166.8,41.2c-0.8,0.3-1.6,0.7-2.4,1
			c1,0.8,2.1,1.5,3.1,2.2c-0.1-1-0.2-2-0.3-2.9C167.3,41.3,167.1,41.1,166.8,41.2z M159.4,43c1.5,0.7,2.9,1.7,4.4,2.3
			c0-0.8-0.1-1.6-0.1-2.4c-0.2-0.1-0.3-0.4-0.6-0.3C161.9,42.7,160.7,42.8,159.4,43z M142.6,48.1c0.5-0.5,0.9-1.1,1.4-1.7
			c0.3-0.2,0.2-0.7,0.2-1c-0.5-0.9-1.1-1.8-1.6-2.7C142.6,44.5,142.6,46.3,142.6,48.1z M143.1,42.7c0.5,0.8,1,1.6,1.5,2.5
			c0.2,0,0.3,0.1,0.5,0.1c0.4-0.3,0.7-0.5,1.1-0.8C145.2,43.8,144.2,43.3,143.1,42.7z M164.2,42.7c0,0.8,0.1,1.6,0.1,2.5
			c0.1,0.1,0.2,0.2,0.3,0.3c0.8-0.2,1.7-0.4,2.5-0.6C166.2,44.2,165.2,43.4,164.2,42.7z M153.8,43.3c1,0.6,2.1,1.1,3.1,1.7
			c0.4,0.2,0.8,0.5,1.3,0.6c0.1-0.7,0-1.3,0-2c-0.1-0.1-0.2-0.3-0.3-0.4C156.5,43.2,155.1,43.3,153.8,43.3z M158.7,43.5
			c-0.1,0.6,0,1.3,0,1.9c0.1,0.1,0.2,0.2,0.3,0.4c1.4,0,2.7-0.1,4.1-0.1c-1.4-0.7-2.8-1.5-4.2-2.2C158.8,43.4,158.7,43.5,158.7,43.5
			z M148,44.4c1.4,0.4,2.8,0.9,4.3,1.2c0.1,0,0.2-0.1,0.2-0.2c0.1-0.6,0-1.2,0-1.7c-0.1-0.1-0.2-0.2-0.3-0.2
			C150.8,43.8,149.4,44.1,148,44.4z M153,43.7c-0.1,0.6,0,1.2,0,1.7c0.1,0.1,0.2,0.3,0.3,0.4c1.3,0,2.6,0,3.9,0
			c-1.2-0.7-2.5-1.3-3.7-2C153.3,43.7,153.1,43.5,153,43.7z M147.2,44.8c0.1,1,0.4,2,0.5,3c0.1,0.1,0.3,0.1,0.4,0.2
			c1.3-0.5,2.5-1.2,3.7-1.8C150.3,45.7,148.7,45.2,147.2,44.8z M145.5,45.7c-0.2,0.3,0.1,0.5,0.3,0.7c0.5,0.5,1,1,1.6,1.4
			c-0.1-0.7-0.3-1.4-0.4-2c-0.1-0.3-0.1-0.7-0.4-0.9C146.2,45.2,145.8,45.4,145.5,45.7z M164.8,46c0.9,0.7,1.6,1.5,2.6,2.1
			c0,0,0.1-0.1,0.2-0.1c0.1-0.8,0-1.6,0.1-2.4c-0.1-0.1-0.1-0.2-0.2-0.3C166.5,45.6,165.6,45.9,164.8,46z M159,46.4
			c0.5,0.5,0.9,1.1,1.5,1.6c0.3,0,0.5,0,0.8,0c0.7-0.5,1.3-1.2,2-1.8C161.9,46.3,160.4,46.4,159,46.4z M153.2,46.4
			c0.3,0.4,0.5,0.8,0.7,1.2c0.2,0.4,0.7,0.6,1.1,0.4c0.8-0.4,1.6-1.1,2.4-1.6C156,46.4,154.6,46.4,153.2,46.4z M144.6,46.6
			c-0.5,0.6-1.1,1.2-1.6,1.8c1.3,0,2.7-0.1,4-0.2c-0.7-0.5-1.3-1.1-1.9-1.7C144.9,46.6,144.7,46.6,144.6,46.6z M163.8,46.6
			c-0.7,0.6-1.5,1.2-2.1,1.9c1.7,0,3.4,0,5.1,0c-0.7-0.7-1.6-1.3-2.3-1.9C164.2,46.6,164,46.6,163.8,46.6z M149.1,48.2
			c0.7,0,1.4,0,2.1,0.1c0.9,0.1,1.8,0,2.7,0c-0.3-0.5-0.6-1-1-1.4c-0.2,0-0.4-0.1-0.6-0.2C151.2,47.2,150.1,47.6,149.1,48.2z
			 M155.4,48.4c1.6,0,3.2,0,4.8,0c-0.4-0.6-1-1.1-1.5-1.6c-0.2,0-0.5,0-0.7-0.1C157.1,47.3,156.3,47.9,155.4,48.4z"/>
	</g>
</g>
</svg>
