<?xml version="1.0" encoding="utf-8"?>
<!-- Generator: Adobe Illustrator 17.1.0, SVG Export Plug-In . SVG Version: 6.00 Build 0)  -->
<!DOCTYPE svg PUBLIC "-//W3C//DTD SVG 1.1//EN" "http://www.w3.org/Graphics/SVG/1.1/DTD/svg11.dtd">
<svg version="1.1" id="Layer_1" xmlns="http://www.w3.org/2000/svg" xmlns:xlink="http://www.w3.org/1999/xlink" x="0px" y="0px"
	 viewBox="0 0 178 54" enable-background="new 0 0 178 54" xml:space="preserve">
<title>Logo Combo 3</title>
<desc>Created with Sketch.</desc>
<g>
	<g>
		<path fill="#24262D" d="M9.6,5.7c0.4,0,0.5-0.7,1-0.5c0.4,0,0.4,0.5,0.7,0.6c1.3,0.3,2.7,0.6,4,0.9c0.2-0.2,0.6-0.4,0.9-0.2
			c0.4,0.4,0.4,1-0.1,1.3c0,1.9,0.1,3.8,0.2,5.7c0.2,0.2,0.4,0.5,0.4,0.8c0,0.3-0.2,0.5-0.4,0.7c0,2.1-0.2,4.1-0.2,6.2
			c0.1,0.1,0.2,0.3,0.4,0.4c2,0.2,4,0.4,6,0.6c0.2-0.1,0.3-0.4,0.5-0.4c0.3,0,0.5,0.2,0.6,0.4c2.1,0,4.2,0,6.3,0
			c0.3,0,0.4-0.3,0.6-0.4c0-1.2,0-2.4,0-3.6C30.3,18,30,17.7,30,17.3c0-0.3,0.3-0.4,0.4-0.6c0-0.6,0-1.2,0.1-1.8
			c-1.2,0.2-2.4,0.3-3.5,0.5c-0.2,0.2-0.4,0.5-0.7,0.5c-0.3,0-0.4-0.4-0.7-0.5c-0.7-0.1-1.4-0.1-2.1-0.1c-0.1-0.4-0.1-0.9-0.3-1.3
			c-0.2-0.4,0.2-0.8,0.2-1.3c0-1.9,0-3.7,0-5.6c-0.6-0.4-0.7-1.3-0.1-1.7c0.4-0.3,0.8,0,1,0.3c0.8,0.1,1.6,0.1,2.3,0.1
			c1.3,0,2.5,0,3.8,0c0.1-0.2,0.3-0.5,0.6-0.5c0.3,0,0.5,0.3,0.6,0.5c2.9,0.2,5.8,0.4,8.7,0.6c0.2-0.2,0.5-0.5,0.8-0.3
			c0.5,0.3,0.5,1.1,0,1.4c0.1,3,0.2,6,0.4,9c0.2,0.2,0.4,0.3,0.4,0.6c0.1,0.4-0.2,0.7-0.4,0.9c0,2.2,0,4.4,0,6.6
			c0.2,0.2,0.4,0.5,0.4,0.8c-0.1,0.4-0.5,0.6-0.4,1c0,1.7,0,3.4,0,5.1c-0.1,0.4,0.5,0.7,0.4,1.1c0,0.4-0.5,0.6-0.5,1
			c-0.1,1.5-0.2,3.1-0.3,4.6c-0.1,0.4,0.4,0.7,0.4,1.1c0,0.3-0.2,0.5-0.4,0.7c0,1.4,0,2.7,0,4.1c0.2,0.2,0.4,0.4,0.4,0.7
			c0.1,0.4-0.4,0.6-0.4,1c0,0.9,0.1,1.9,0.1,2.8c0,0.2,0.2,0.3,0.3,0.5c0.3,0.4,0.1,1-0.3,1.1c-0.3,0.1-0.5-0.2-0.7-0.4
			c-1.2,0.1-2.5,0.1-3.7,0.2c-0.3,0-0.5,0.5-0.8,0.4c-0.3,0-0.4-0.4-0.7-0.5c-1.1-0.2-2.2-0.2-3.4-0.3c-0.5-0.2-0.8,0.6-1.3,0.2
			c-0.5-0.4-0.2-1,0-1.4c-0.1-1.9-0.2-3.8-0.4-5.7c-0.6-0.3-0.6-1.2,0-1.5c0-1.1,0.1-2.3,0.2-3.4c-0.5-0.4-0.5-1.1,0-1.5
			c0-1.6-0.1-3.2-0.2-4.8c-0.1-0.1-0.2-0.2-0.4-0.4c-1.1,0.1-2.2,0.3-3.4,0.5c-0.4,0-0.5,0.5-0.8,0.6c-0.3,0.1-0.6-0.2-0.7-0.5
			c-2-0.1-4-0.3-6-0.4c-0.2,0.2-0.3,0.4-0.6,0.4c-0.2,0-0.4-0.2-0.5-0.3c-0.7,0.1-1.3,0.3-2,0.4c-0.3,0-0.4,0.4-0.6,0.6
			c0.2,1.1,0.3,2.3,0.5,3.4c0.2,0.1,0.4,0.3,0.5,0.6c0.2,0.4-0.2,0.7-0.4,0.9c-0.1,1.6-0.1,3.1-0.2,4.7c-0.1,0.4,0.4,0.7,0.4,1.1
			c0,0.3-0.2,0.5-0.4,0.7c0.1,1.5,0.1,3,0.2,4.5c0,0.3,0.3,0.5,0.4,0.8c0.2,0.4-0.2,1-0.6,0.9c-0.3,0-0.4-0.3-0.7-0.3
			c-1.3,0-2.6,0.2-4,0.4c-0.2,0.2-0.5,0.5-0.8,0.4C10,50.3,9.5,50.2,9,50c-1-0.2-2-0.5-3-0.6c-0.3,0-0.6,0.2-0.9,0.2
			c-0.6-0.2-0.7-1.1-0.1-1.5c0.1-4.2,0.1-8.3,0.1-12.5c0-0.3-0.3-0.5-0.3-0.8c-0.1-0.4,0.4-0.7,0.3-1.1c0-2,0.1-3.9,0.1-5.9
			c-0.2-0.2-0.5-0.5-0.4-0.9c0-0.3,0.3-0.4,0.4-0.6c0-1.9,0-3.7,0-5.6c0-0.3-0.2-0.6-0.2-1c0.1-0.3,0.2-0.6,0.2-0.9
			c0-1.9,0-3.8,0-5.8c0-0.3-0.1-0.7-0.2-1c0-0.3,0.2-0.5,0.2-0.8c0-1.2,0-2.4,0-3.7c0.1-0.4-0.4-0.6-0.4-1C4.7,6.3,5,5.9,5.4,5.8
			C5.7,5.8,5.8,6,6,6.2C7.2,6,8.4,5.9,9.6,5.7z M6.2,6.8C6.2,6.8,6.1,6.8,6.2,6.8c0.6,0.8,1.3,1.4,1.9,2.1c0.2,0,0.3,0,0.5,0
			C9,8,9.5,7.1,10,6.3C8.7,6.4,7.5,6.6,6.2,6.8z M10.4,6.6C9.9,7.4,9.5,8.2,9,9.1c1.9-0.6,3.8-1.3,5.8-2c-1.2-0.2-2.4-0.5-3.7-0.7
			C10.9,6.4,10.6,6.6,10.4,6.6z M24.4,6.6c0.3,0.3,0.4,0.7,0.7,1c1,1.2,2,2.3,3,3.5c0.1,0,0.3,0,0.4-0.1c0.7-1.3,1.3-2.6,2-4
			c0.1-0.2,0.1-0.4,0.2-0.5c-1.4,0-2.7,0-4.1,0C25.9,6.5,25.1,6.4,24.4,6.6z M30.8,7.5c-0.5,1-1,2-1.5,3c-0.3,0.5-0.4,1-0.2,1.6
			c0.5,0.5,1,1,1.5,1.5c0-0.5,0-1.1,0-1.6c-0.2-0.2-0.4-0.6-0.4-0.9c0.1-0.3,0.4-0.5,0.7-0.7c0.1,0.1,0.2,0.2,0.4,0.4
			c1.5-0.7,2.9-1.3,4.4-2c-1.4-0.7-2.8-1.3-4.2-2C31.3,7,31.1,7.2,30.8,7.5z M32.9,6.6c1,0.6,2.1,1,3.1,1.6c0.3-0.2,0.7-0.2,0.9,0
			c0.9-0.4,1.9-0.7,2.8-1.1C37.4,6.9,35.1,6.7,32.9,6.6z M24,7.1c0.2,1.1,0.5,2.1,0.7,3.2c0.3,0.1,0.5,0.3,0.6,0.6
			c0.8,0.2,1.6,0.3,2.3,0.4C26.5,9.9,25.3,8.5,24,7.1z M5.7,7.2c0,1.4,0.1,2.9,0.2,4.3c0.5-0.3,0.8-0.7,1.3-1.1
			C7.4,10.1,8,9.9,7.8,9.3C7.1,8.6,6.4,7.9,5.7,7.2z M37.4,8.6C37,8.7,37,9.1,36.7,9.4c0.1,1.7,0.2,3.3,0.3,5c1.1-2.3,2.3-4.7,3.5-7
			C39.5,7.8,38.4,8.2,37.4,8.6z M9,9.7l0,0.1c0.9,1.2,1.9,2.4,2.9,3.6c0.1,0,0.3,0,0.4,0c1-2,2-4,3.1-5.9C13.2,8.3,11.1,9,9,9.7z
			 M37.4,14.7c0.1,0.2,0.1,0.4,0.3,0.5c1.1,0.5,2.1,1,3.2,1.5c0.1,0.1,0.3,0,0.4,0c-0.2-3-0.2-6-0.4-9C39.8,10,38.6,12.3,37.4,14.7z
			 M14.9,9.4c-0.8,1.5-1.6,3-2.3,4.5c1,0.1,1.9,0,2.9,0c0.1-0.1,0.2-0.3,0.4-0.4c-0.1-1.8-0.1-3.7-0.2-5.5
			C15.3,8.4,15.2,8.9,14.9,9.4z M24,9.1c0,0.2,0,0.5,0.1,0.7c0,0.4,0,0.7,0,1.1c0.1-0.1,0.2-0.3,0.2-0.4C24.2,10,24.3,9.4,24,9.1z
			 M34.1,11.9c-0.2,0.2-0.1,0.4-0.1,0.6c0.9,0.7,1.7,1.4,2.6,2c-0.1-1.8-0.2-3.5-0.4-5.2C35.5,10.2,34.8,11,34.1,11.9z M31.6,11.2
			c0.4,0.2,0.9,0.4,1.3,0.6c0.2-0.1,0.5-0.2,0.8-0.2c0.6-0.7,1.2-1.4,1.7-2.2C34.2,10,32.9,10.6,31.6,11.2z M8.1,10.3
			c-0.6,0.6-1.3,1.1-1.9,1.7c1.7,0.6,3.4,1.1,5.1,1.6c-0.8-1.1-1.7-2.1-2.5-3.1C8.7,10.2,8.4,10.3,8.1,10.3z M24.2,11.6
			c0,0.4,0,0.9,0,1.3c0.5,0.2,0.6,0.8,0.5,1.3c0.4,0.2,0.8,0.3,1.1,0.5c-0.4-1-0.7-1.9-1.1-2.9C24.6,11.8,24.4,11.7,24.2,11.6z
			 M25.2,11.5c0.3,1,0.7,2,1.1,3c0.2,0.2,0.3-0.1,0.4-0.3c0.4-0.7,1-1.4,1.2-2.2C27,11.8,26.1,11.6,25.2,11.5z M31.3,11.7
			c-0.1,0.1-0.2,0.2-0.2,0.4c-0.1,1.5-0.1,3-0.2,4.4c0.7-1.3,1.4-2.5,2-3.8c0-0.1-0.1-0.3-0.1-0.4C32.3,12.2,31.8,12,31.3,11.7z
			 M28.3,12.5c-0.5,0.8-0.9,1.6-1.4,2.4c1.2-0.2,2.5-0.3,3.7-0.5c-0.5-0.6-1.1-1.1-1.7-1.7C28.8,12.4,28.5,12.5,28.3,12.5z M6,12.6
			c0.5,2.1,1.1,4.1,1.6,6.1c0.1,0.1,0.1,0.5,0.3,0.3c1.2-1.5,2.4-3.1,3.7-4.6c-0.5-0.3-1-0.4-1.5-0.6C8.8,13.5,7.4,13,6,12.6z
			 M33.5,13.3c-0.2,1.6-0.5,3.2-0.7,4.8c1.2-0.9,2.3-1.8,3.5-2.7c0-0.2-0.1-0.3-0.2-0.4c-0.8-0.6-1.5-1.2-2.3-1.8
			C33.7,13,33.5,13.1,33.5,13.3z M31.2,17c0,0.2,0.1,0.3,0.1,0.5c0.3,0.2,0.5,0.3,0.8,0.5c0.2,0,0.3-0.2,0.3-0.4
			c0.2-1.3,0.4-2.6,0.6-4C32.4,14.8,31.8,15.9,31.2,17z M5.9,13.9c0,1.7,0,3.4,0,5.2c0.1,0.1,0.2,0.3,0.4,0.4c0.4,0,0.8,0.1,1.1-0.2
			C6.9,17.5,6.5,15.7,5.9,13.9z M12.6,14.6c0,0.2,0.1,0.4,0.2,0.6c0.9,1.9,1.9,3.9,2.8,5.8c0.1-2,0.1-4,0.2-6
			c-0.1-0.1-0.2-0.3-0.3-0.4C14.6,14.6,13.6,14.5,12.6,14.6z M8.7,19c-0.1,0.2-0.3,0.3-0.3,0.5c0,0.3,0.3,0.5,0.5,0.6
			c1,0.6,1.9,1.2,2.9,1.8c0,0,0.1-0.1,0.2-0.1c0-2.3,0-4.6,0-7C10.8,16.3,9.8,17.7,8.7,19z M12.4,15.3c0,2.2,0,4.4,0,6.5
			c0.1,0.1,0.2,0.2,0.3,0.3c0.8-0.2,1.7-0.3,2.5-0.5c0.3-0.2,0-0.5-0.1-0.8C14.2,19,13.3,17.1,12.4,15.3z M33.1,18.5
			c0,0.1,0,0.2,0,0.3c1,1,2.1,2,3.2,3c0,0,0.1,0,0.2,0.1c0.1-0.6,0.1-1.2,0.1-1.8c0-1.5,0.1-2.9,0.1-4.4
			C35.4,16.6,34.3,17.6,33.1,18.5z M37.1,15.9c-0.1,2-0.1,4-0.2,6c1.3-1.4,2.6-2.8,3.8-4.2c0.1-0.1,0.3-0.4,0.1-0.4
			c-1-0.5-2-0.9-3.1-1.4C37.5,15.8,37.2,15.6,37.1,15.9z M37.4,22.1c-0.2,0.1-0.2,0.5,0,0.6c1.1,0.6,2.2,1.3,3.3,1.9
			c0.2,0.1,0.3,0.1,0.5,0.2c0-2.3,0-4.6,0-6.9C40,19.3,38.7,20.7,37.4,22.1z M30.9,18.2c0,1.1,0,2.3,0,3.4c0.4-0.8,0.8-1.6,1.2-2.5
			c-0.1-0.3-0.2-0.6-0.5-0.8C31.3,18.3,31,17.9,30.9,18.2z M32.4,19.4c-0.4,0.9-0.9,1.9-1.3,2.8c1.6,0.1,3.2,0,4.8,0
			c-1-1-2.1-1.9-3.1-2.9C32.7,19.3,32.6,19.4,32.4,19.4z M5.8,20.6c0,1.6-0.2,3.3-0.1,4.9c0.4-1.7,1.1-3.4,1.6-5.1
			C7,19.9,6.1,20.1,5.8,20.6z M8,20.4c0.1,2.1,0.4,4.1,0.5,6.2c1-1.2,2-2.5,3-3.7c0-0.1,0-0.3-0.1-0.3C10.4,21.8,9.2,21.1,8,20.4z
			 M5.9,26.4c0,0.1,0.1,0.2,0.1,0.3c0.6,0,1.3,0.1,1.9,0.1c0.1-0.2,0.3-0.3,0.2-0.5c-0.2-1.8-0.3-3.6-0.5-5.5
			C7.1,22.7,6.4,24.6,5.9,26.4z M16.4,22.3c-0.2,0.1-0.3,0.3-0.5,0.4c-0.1,0.7-0.4,1.5-0.4,2.2c2-0.7,4-1.4,6-2.1
			C19.8,22.6,18.1,22.4,16.4,22.3z M12.7,22.8c0.7,0.6,1.4,1.4,2.2,1.9l0.1-0.1c0.2-0.7,0.3-1.4,0.4-2.1c-0.1-0.1-0.2-0.2-0.2-0.2
			C14.4,22.5,13.6,22.7,12.7,22.8z M23.7,22.9c1.3,1.5,2.6,3,3.9,4.6c0.1,0,0.3,0,0.4,0c0.7-1.5,1.5-2.9,2.2-4.4
			c0,0-0.1-0.1-0.1-0.1C27.9,22.9,25.8,22.9,23.7,22.9z M31.1,23.1c0.1,0.2,0.2,0.4,0.2,0.6c0.2,0.1,0.4,0.2,0.5,0.3
			c1-0.3,2-0.7,3-1c-1.1,0.1-2.2,0-3.4,0C31.3,22.9,31.2,23,31.1,23.1z M31.9,24.6c1,0.9,2,1.8,3,2.7c0.1-0.1,0.3-0.1,0.3-0.3
			c0.3-1.3,0.7-2.6,1-3.9C34.8,23.5,33.4,24.1,31.9,24.6z M11.9,23.3c-0.9,1.1-1.8,2.3-2.7,3.4c1.8-0.5,3.6-1,5.3-1.5
			c-0.6-0.7-1.4-1.3-2-1.9C12.3,23.3,12.1,23.3,11.9,23.3z M15.8,25.5c1.1,0.9,2.3,1.8,3.4,2.7c0.2,0,0.3-0.1,0.5-0.1
			c0.9-1.7,1.8-3.3,2.8-5C20.2,23.9,18,24.7,15.8,25.5z M36.7,23.4c-0.4,1.4-0.7,2.7-1.1,4.1c1.7-0.7,3.4-1.4,5.1-2.1
			c-1.2-0.8-2.5-1.4-3.7-2.1C37,23.2,36.8,23.3,36.7,23.4z M22.9,23.3c-1,1.7-1.9,3.4-2.8,5.1c1.1-0.3,2.2-0.6,3.3-1
			c0.2-0.1,0.3-0.4,0.5-0.5c-0.2-0.8-0.4-1.7-0.6-2.5C23.1,24,23.1,23.6,22.9,23.3z M23.4,23.4c0.3,1.1,0.5,2.2,0.8,3.3
			c0.3,0.1,0.4,0.3,0.6,0.6c0.8,0.2,1.6,0.3,2.4,0.5C25.9,26.3,24.6,24.9,23.4,23.4z M30.6,23.3c-0.6,1.1-1.2,2.3-1.7,3.5
			c0.6-0.7,1.2-1.3,1.9-2c0-0.3,0-0.6,0.2-0.8C30.8,23.7,30.7,23.4,30.6,23.3z M31.5,25.5c-0.2,1.6-0.4,3.3-0.5,4.9
			c1.1-0.6,2.1-1.3,3.1-2c0.2-0.2,0.5-0.3,0.7-0.5c-1-1-2-1.8-3-2.7C31.5,25,31.5,25.3,31.5,25.5z M28.5,27.9c0,0.3,0,0.6,0.3,0.8
			c0.6,0.5,1.1,1.2,1.7,1.6c0.2-1.7,0.3-3.4,0.6-5.1C30.2,26.1,29.3,27,28.5,27.9z M9,27.4c1.1,1,2.2,1.9,3.2,2.9
			c0.1,0,0.3-0.1,0.4-0.1c0.7-1.5,1.4-2.9,2-4.4C12.8,26.4,10.9,26.9,9,27.4z M40.3,26.2c-1.5,0.6-3,1.2-4.4,1.9
			c1.4,1.1,2.9,2.1,4.3,3.2c0.4,0.3,0.7,0.6,1.1,0.7c0-2,0-4,0-5.9C41,25.8,40.7,26.1,40.3,26.2z M15.4,26c0,1.8,0,3.5,0,5.3
			c0.5-0.2,0.8-0.5,1.3-0.8c0.8-0.6,1.6-1.1,2.4-1.7c-0.5-0.5-1.1-0.9-1.7-1.4C16.7,27,16.1,26.4,15.4,26z M14.9,26.4
			c-0.6,1.3-1.2,2.6-1.7,3.9c-0.1,0.2-0.1,0.5,0.1,0.6c0.4,0.2,0.9,0.3,1.3,0.5c0.1,0,0.2-0.1,0.3-0.2C14.9,29.6,15,28,14.9,26.4z
			 M5.6,27.7c0,1.9,0,3.8,0,5.7c0.7-1.5,1.2-3,1.9-4.6C7.7,28.4,8,28,7.9,27.5c-0.6-0.1-1.3-0.1-1.9-0.2C5.9,27.4,5.8,27.6,5.6,27.7
			z M24.6,27.9c0.2,0.8,0.6,1.6,0.9,2.5c0.1,0.2,0.1,0.6,0.4,0.6c0.4-0.8,1-1.6,1.4-2.4c0,0-0.1-0.1-0.1-0.2
			C26.4,28.2,25.5,28,24.6,27.9z M8.7,27.8c0,2.2,0.1,4.4,0.2,6.6c1.1-1,2.1-2.2,3.1-3.3c0-0.2,0-0.5-0.2-0.6
			C10.8,29.7,9.7,28.7,8.7,27.8z M20.4,28.9c1.6,0.7,3.3,1.5,4.9,2.2c-0.4-0.9-0.7-1.9-1.1-2.8c-0.2-0.1-0.4-0.2-0.6-0.3
			C22.6,28.3,21.5,28.6,20.4,28.9z M6,33.7C5.9,34,5.9,34.2,6,34.4c0.7,0.1,1.4,0.2,2.1,0.3c0.1-0.1,0.2-0.3,0.3-0.4
			c-0.1-2-0.1-4.1-0.2-6.1C7.5,30.1,6.8,31.9,6,33.7z M35.7,28.6c0.6,1.8,1.2,3.7,1.8,5.5c0.1,0.1,0.3,0.1,0.4,0.2
			c1-0.6,2-1.1,2.9-1.8C39.2,31.2,37.5,29.9,35.7,28.6z M31.2,30.9c0.7,0.5,1.3,0.8,2,1.3c0.2-0.1,0.3-0.1,0.5-0.2
			c0.4-1.1,0.8-2.3,1.1-3.4C33.6,29.4,32.4,30.1,31.2,30.9z M35.3,28.7c-0.4,1.2-0.8,2.4-1.2,3.6c0.1,0.2,0.2,0.6,0.4,0.7
			c0.9,0.5,1.7,0.9,2.6,1.4C36.6,32.4,35.9,30.5,35.3,28.7z M27.6,29.1c-0.4,0.7-0.8,1.4-1.3,2.1c1.2-0.2,2.5-0.4,3.7-0.5
			c-0.6-0.6-1.1-1.1-1.7-1.7C28.2,28.8,27.7,28.8,27.6,29.1z M19.5,29.6c-0.1,0.4-0.5,0.8-0.3,1.3c1.6,0.1,3.3,0.3,4.9,0.3
			c-1.4-0.5-2.7-1.2-4.1-1.8C19.8,29.5,19.7,29.6,19.5,29.6z M16.5,31.3c0.5-0.1,1-0.2,1.4-0.3c0.2-0.3,0.4-0.5,0.7-0.6
			c0.1-0.3,0.2-0.5,0.3-0.8C18.2,30.2,17.3,30.7,16.5,31.3z M13.1,31.5c0.8,1.4,1.5,2.8,2.3,4.1c-0.1-1-0.3-2-0.4-3
			c-0.3-0.1-0.4-0.4-0.5-0.7C14,31.8,13.6,31.6,13.1,31.5z M31,31.5c0,0.2-0.1,0.5,0,0.7c0.1,1.4,0.1,2.8,0.2,4.2
			c0.7-1.1,1.4-2.2,2.1-3.2c-0.1-0.2-0.1-0.5-0.3-0.6C32.2,32.2,31.6,31.8,31,31.5z M12.3,31.7c-1,1.1-2.1,2.2-3.1,3.3
			c2,0.5,4.1,0.9,6.1,1.4c-0.9-1.5-1.7-3.1-2.6-4.6C12.6,31.7,12.5,31.7,12.3,31.7z M38.5,34.7c-0.3,0.1-0.4,0.5-0.2,0.7
			c0.9,1.1,1.7,2.2,2.6,3.3c0.1-1.8,0.3-3.7,0.3-5.5C40.3,33.6,39.4,34.2,38.5,34.7z M33.9,33.5c0.1,1.6,0.2,3.3,0.4,5
			c0.9-1,1.7-2,2.5-3c0.2-0.1,0.3-0.4,0-0.6c-0.9-0.5-1.8-1-2.8-1.5C34.1,33.4,34,33.4,33.9,33.5z M31.4,36.8c0,0.1,0.1,0.3,0.1,0.4
			c0.7,0.4,1.5,0.8,2.2,1.3c0-0.1,0.1-0.3,0.1-0.4c-0.1-1.5-0.3-3.1-0.3-4.6C32.8,34.6,32.1,35.7,31.4,36.8z M6,35.1
			c-0.1,0.1-0.2,0.2-0.3,0.3c0,1.9,0.1,3.8,0.2,5.7c0.7-1.8,1.5-3.5,2.3-5.3c0.1-0.1,0.1-0.3,0-0.4C7.4,35.2,6.7,35.2,6,35.1z
			 M9.2,35.6c0.8,1.5,1.7,2.9,2.5,4.4c0.1,0,0.3,0.1,0.5,0.1c1-1,2.1-2,3.1-3.1C13.2,36.5,11.2,36,9.2,35.6z M37.3,35.6
			c-0.9,1.1-1.8,2.1-2.6,3.2c1.9,0,3.8,0.1,5.8,0.2c-0.9-1.1-1.8-2.2-2.6-3.4C37.7,35.6,37.5,35.6,37.3,35.6z M6.1,41.7
			c1.6-0.3,3.2-0.7,4.8-1.1c0.2,0,0.6-0.1,0.4-0.4c-0.7-1.2-1.4-2.5-2.1-3.7c-0.2-0.3-0.3-0.6-0.6-0.7C7.8,37.8,6.9,39.7,6.1,41.7z
			 M12.5,40.5c0.1,0.2,0.1,0.4,0.3,0.4c0.8,0.5,1.6,1.2,2.5,1.7c0,0,0.1-0.1,0.2-0.1c0.1-1.7,0.1-3.4,0.2-5.2
			C14.5,38.4,13.5,39.5,12.5,40.5z M31,38.2c0,1.1-0.1,2.2-0.1,3.2c0.9-0.7,1.7-1.4,2.5-2.2c0.2-0.1,0-0.3-0.2-0.4
			c-0.7-0.4-1.4-0.8-2-1.2C31.1,37.9,31,38,31,38.2z M34.6,39.4c0.7,1.2,1.5,2.4,2.3,3.5c0.2,0,0.3,0,0.5,0c1-1.1,2-2.3,3-3.4
			C38.5,39.5,36.6,39.5,34.6,39.4z M31.3,41.9c0,0.1,0,0.3,0,0.4c0.8,0.8,1.5,1.8,2.4,2.5c0.1-1.7,0.1-3.5,0.2-5.2
			C33,40.4,32.1,41.2,31.3,41.9z M34.1,44.7c0,0.1,0.1,0.2,0.1,0.3c0.7-0.4,1.4-0.8,2.1-1.2c0.2-0.1,0.1-0.3,0.2-0.5
			c-0.8-1.2-1.5-2.3-2.3-3.5C34.3,41.5,34.2,43.1,34.1,44.7z M37.7,43.5c1,0.3,2,0.6,2.9,0.9c0.1-0.1,0.3-0.2,0.3-0.4
			c0-1.3,0-2.7,0-4C39.8,41.1,38.7,42.3,37.7,43.5z M6.4,42.2c0.8,0.6,1.7,1.2,2.5,1.8c0.2,0,0.4-0.1,0.6-0.1
			c0.6-0.9,1.2-1.9,1.8-2.8C9.7,41.5,8,41.9,6.4,42.2z M11.7,41.5c-0.6,0.9-1.2,1.8-1.8,2.7c1.6-0.3,3.3-0.7,4.9-1.1
			c-0.8-0.6-1.7-1.2-2.6-1.8C12.1,41.4,11.9,41.4,11.7,41.5z M5.8,43.5c-0.1,1.6-0.2,3.2-0.3,4.7c1.1-1.1,2.2-2.2,3.3-3.3
			c-0.1-0.2-0.1-0.3-0.3-0.4c-0.9-0.6-1.7-1.2-2.6-1.8C5.8,42.9,5.8,43.2,5.8,43.5z M30.9,42.8c0.1,2,0.2,3.9,0.4,5.9
			c0.7-0.9,1.3-1.8,2-2.7c0-0.2,0-0.4,0-0.6C32.5,44.4,31.7,43.6,30.9,42.8z M10.1,44.8c1.7,1.3,3.4,2.6,5.1,3.9
			c0.1,0.1,0.3,0.1,0.4,0.2c-0.1-1.6-0.1-3.2-0.2-4.8c0-0.2-0.2-0.3-0.3-0.4C13.4,44.1,11.7,44.4,10.1,44.8z M37.6,44.2
			c-0.2,0.2-0.4,0.3-0.4,0.5c-0.2,1.4-0.5,2.9-0.7,4.3c1.3-1.3,2.7-2.6,3.9-4C39.5,44.8,38.6,44.5,37.6,44.2z M34.7,45.4
			c-0.2,0.1-0.3,0.4-0.3,0.7c0.4,0.8,0.9,1.5,1.3,2.3c0.1,0.2,0.2,0.4,0.4,0.6c0.2-1.6,0.5-3.2,0.7-4.7C36.1,44.6,35.4,45,34.7,45.4
			z M8,46.4c-0.7,0.8-1.5,1.5-2.3,2.3c1.4,0.3,2.8,0.6,4.1,0.9c0.4,0,0.2-0.4,0.2-0.7c-0.3-1.2-0.5-2.4-0.9-3.6
			C8.8,45.6,8.4,46,8,46.4z M9.7,45.3c0.2,1.2,0.5,2.3,0.7,3.5c0,0.5,0.5,0.8,1,0.7c1.2-0.1,2.4-0.1,3.6-0.3
			C13.2,47.9,11.5,46.6,9.7,45.3z M38.5,47.8c-0.5,0.5-1.1,1-1.5,1.6c0.7-0.1,1.5,0,2.2-0.1c0.6-0.1,1.3,0.1,1.8-0.4
			c0-1.1-0.1-2.3-0.2-3.4C40,46.2,39.3,47,38.5,47.8z M33.7,46.3c-0.7,0.9-1.4,1.8-2.1,2.7c1.4,0.1,2.7,0.3,4.1,0.2
			c-0.5-1-1.1-2-1.7-3C33.9,46.3,33.8,46.3,33.7,46.3z"/>
	</g>
	<g>
		<path fill="#24262D" d="M65.8,6c0.1-0.2,0.2-0.4,0.4-0.5c0.2,0,0.4,0,0.6,0c0.1,0.1,0.2,0.3,0.3,0.4c2.1,0.1,4.2,0.3,6.3,0.4
			c0.2-0.2,0.4-0.4,0.7-0.4c0.3,0.1,0.4,0.4,0.6,0.7c1.7,0.6,3.4,1.2,5.2,1.8c0.2-0.1,0.5-0.3,0.8-0.2C80.9,8.4,81,8.7,81,9
			c1.4,1,2.8,1.9,4.2,2.9c0.2-0.1,0.5-0.2,0.7,0c0.3,0.2,0.3,0.7,0.3,1c1.1,1.5,2.2,3,3.3,4.6c0.4-0.1,0.7,0.1,0.8,0.5
			c0.2,0.3-0.1,0.7-0.3,0.9c0.2,1.4,0.4,2.8,0.7,4.2c0.2,0.2,0.5,0.3,0.5,0.6c0.2,0.5-0.5,0.8-0.4,1.3c0.1,1.9,0.1,3.9,0.2,5.8
			c0.1,0.3,0.5,0.5,0.4,0.9c0,0.5-0.6,0.5-0.7,1c-0.3,1.2-0.6,2.4-0.9,3.6c0.2,0.3,0.3,0.8,0.1,1.1c-0.2,0.3-0.7,0.1-0.8,0.5
			c-1.2,1.9-2.5,3.8-3.7,5.7c0.1,0.3,0.1,0.7-0.2,1c-0.2,0.2-0.5,0.1-0.8,0.1c-1.5,1.1-3.1,2.2-4.6,3.3c0,0.4-0.2,0.8-0.6,0.8
			c-0.3,0-0.4-0.3-0.7-0.2c-1.6,0.4-3.1,0.8-4.6,1.2c-0.6,0.2-1.6,0.1-1.9,0.8c-0.3,0.2-0.8,0.1-0.9-0.3c-0.5,0-1-0.1-1.5-0.1
			c-1,0.1-2-0.1-3-0.1c-1,0-2-0.2-2.9,0c-0.2,0.2-0.3,0.5-0.6,0.4c-0.5,0-0.5-0.5-0.8-0.8c-1.6-0.8-3.4-1.4-5.1-2.2
			c-0.2,0.1-0.6,0.3-0.8,0.1c-0.4-0.2-0.2-0.8-0.5-1c-1.1-1.1-2.3-2.1-3.4-3.2c-0.3,0-0.5,0.1-0.7-0.1c-0.3-0.3-0.3-0.7-0.1-1.1
			c-0.9-1.7-1.9-3.5-2.8-5.2c-0.1,0-0.3,0-0.4,0c-0.4-0.4-0.5-1-0.1-1.4c-0.3-2.2-0.7-4.3-1.1-6.5c0-0.4-0.5-0.5-0.6-0.8
			c-0.2-0.4,0.2-0.8,0.5-1c0.2-1.9,0.5-3.8,0.7-5.8c-0.1-0.3-0.4-0.7-0.2-1.1c0.1-0.3,0.4-0.4,0.7-0.5c0.4-1,0.9-2,1.3-2.9
			c0.3-0.4-0.1-0.8,0.1-1.2c0.1-0.3,0.5-0.4,0.8-0.4c0.7-1,1.5-2,2.2-3c-0.1-0.3-0.1-0.6,0.1-0.8c0.2-0.3,0.6-0.2,0.9-0.1
			c1.8-1.2,3.6-2.4,5.3-3.6c0-0.4,0.3-0.8,0.7-0.9c0.2,0.1,0.3,0.2,0.5,0.3C62.2,6.9,64,6.5,65.8,6z M67.6,6.6
			C68.8,7.3,69.9,8,71,8.7c0.3,0,0.8,0,1-0.3c0.4-0.5,0.9-1,1.4-1.5C71.4,6.8,69.5,6.7,67.6,6.6z M60.8,7.9c-0.2,0-0.3,0.1-0.5,0.2
			c0.5,0.7,1,1.3,1.5,2c0.2,0,0.4,0,0.5,0c1.1-1.1,2.1-2.2,3.2-3.3C64,7.1,62.4,7.5,60.8,7.9z M67,6.9c0.3,0.6,0.5,1.3,0.8,2
			C68,8.9,68.3,9,68.4,9.3c0.7-0.1,1.4-0.1,2.1-0.1C69.3,8.4,68.2,7.6,67,6.9z M65.8,7.3c-0.9,1-1.9,2-2.8,3
			c1.4-0.3,2.7-0.5,4.1-0.8c0.2,0,0.2-0.2,0.3-0.4c-0.3-0.7-0.5-1.5-0.9-2.2C66.2,6.8,66,7.1,65.8,7.3z M74.6,7.2
			c0.6,1.1,1.2,2.2,1.8,3.3c0.2,0.1,0.4,0.1,0.6,0.2c0.9-0.5,1.8-1.1,2.8-1.6C78,8.4,76.3,7.8,74.6,7.2z M72.1,9.1c0,0,0,0.1,0,0.2
			c1.3,0.5,2.6,0.9,3.8,1.4c-0.6-1.1-1.2-2.2-1.8-3.3c-0.1,0-0.3-0.1-0.4-0.1C73.2,7.9,72.6,8.5,72.1,9.1z M54.3,11.9
			c1.4,0.1,2.7,0.4,4.1,0.5c0.1-0.1,0.3-0.2,0.5-0.3c0.2-1.2,0.5-2.5,0.7-3.7C57.8,9.5,56,10.7,54.3,11.9z M60,8.5
			c-0.2,1.2-0.5,2.5-0.7,3.7c0.7-0.5,1.5-0.9,2.2-1.4c0-0.1,0-0.3,0-0.4c-0.5-0.6-0.9-1.2-1.4-1.8C60.1,8.5,60,8.5,60,8.5z
			 M80.7,9.5c-0.1,0-0.2,0.1-0.2,0.2c-0.2,1.2-0.5,2.4-0.6,3.7l0.1,0.1c1.6-0.3,3.3-0.8,4.9-1c-0.1-0.2-0.3-0.3-0.5-0.4
			C83.2,11.2,82,10.3,80.7,9.5z M68.8,9.8c1,0.6,2,1.3,3,1.9c-0.1-0.5-0.2-1.1-0.4-1.6C71.2,10,71,9.9,70.9,9.7
			C70.2,9.8,69.5,9.9,68.8,9.8z M77.2,11.2c0,0.1,0,0.2,0,0.2c0.5,0.6,1.1,1,1.7,1.6c0.1,0.1,0.3,0.2,0.5,0.3
			c0.3-1.3,0.5-2.5,0.7-3.8C79.1,10,78.1,10.6,77.2,11.2z M71.9,9.9c0,0.6,0.2,1.1,0.3,1.7c0.2,0.1,0.4,0.3,0.7,0.3
			c0.8-0.2,1.7-0.4,2.5-0.7C74.3,10.7,73.1,10.3,71.9,9.9z M62.8,11c0,0.1-0.1,0.2-0.1,0.3c0.2,0.4,0.3,0.9,0.5,1.3
			c0.1,0.2,0.3,0.2,0.5,0.3c1-0.9,2.1-1.8,3.1-2.7C65.4,10.4,64.1,10.7,62.8,11z M68.2,10.2c-0.1,0-0.2,0.1-0.2,0.2
			c-0.1,1.7-0.4,3.3-0.5,5c1.2-0.9,2.4-1.8,3.7-2.7c0.2-0.1,0.3-0.3,0.4-0.4C70.5,11.6,69.3,10.9,68.2,10.2z M66.8,10.8
			c-1,0.9-2,1.7-3,2.6c0.4,0.4,0.9,0.6,1.4,1c0.5,0.3,1,0.7,1.6,1c0.2,0,0.2-0.2,0.3-0.4c0.2-1.6,0.3-3.1,0.5-4.7
			C67.3,10.4,67.1,10.6,66.8,10.8z M61.7,11.4c-0.7,0.4-1.3,0.8-2,1.2c1,0.1,2,0.4,3.1,0.4c-0.2-0.5-0.4-1-0.6-1.5
			C62.1,11.4,61.9,11.4,61.7,11.4z M73.1,12.4c1.4,0.7,2.8,1.4,4.2,2.1c-0.2-0.8-0.4-1.5-0.7-2.3c0-0.3-0.4-0.4-0.7-0.6
			C75,11.9,74,12.2,73.1,12.4z M76.9,12c0.3,0.8,0.5,1.5,0.7,2.3c0.1,0.1,0.3,0.1,0.4,0.2c0.3-0.2,0.5-0.3,0.8-0.5
			c0.1-0.2-0.1-0.3-0.2-0.5C78,13,77.5,12.5,76.9,12z M54,12.5c0.5,0.8,1,1.7,1.6,2.5c0.2,0,0.3,0,0.5,0.1c0.7-0.7,1.5-1.4,2.2-2
			C56.9,12.9,55.4,12.7,54,12.5z M51.1,15.8c1.4-0.1,2.8-0.2,4.1-0.4c-0.5-0.9-1.1-1.7-1.6-2.6c-0.1,0-0.3,0-0.4,0
			C52.6,13.8,51.8,14.8,51.1,15.8z M71.5,13.2c-1.1,0.8-2.3,1.7-3.4,2.5c1.3,0,2.5,0.1,3.8,0.2c0.1-0.1,0.2-0.3,0.3-0.4
			c-0.1-0.8,0-1.7-0.2-2.5C71.8,12.9,71.6,13.1,71.5,13.2z M72.4,13c0,0.8,0.1,1.7,0.1,2.5c0.2,0.1,0.3,0.4,0.5,0.3
			c1.2-0.3,2.4-0.5,3.5-0.8c-1.3-0.8-2.7-1.4-4-2.1L72.4,13z M59.7,13.2c0.9,1.1,1.8,2.2,2.8,3.3c0.2-0.8,0.3-1.6,0.5-2.4
			c-0.1-0.1-0.2-0.3-0.3-0.4C61.7,13.5,60.7,13.4,59.7,13.2z M80.2,14.1c0.5,0.5,1.1,1,1.7,1.4c0.3-0.1,0.6,0,0.8-0.2
			c0.7-0.7,1.4-1.5,2-2.2C83.2,13.4,81.7,13.8,80.2,14.1z M85.3,13.3c-0.8,0.9-1.7,1.8-2.6,2.7c2.1,0.6,4.2,1.2,6.3,1.7
			c-1.1-1.5-2.1-3-3.2-4.4C85.7,13.3,85.5,13.3,85.3,13.3z M56.3,15.6c0.5,0.2,1,0.4,1.5,0.6c0.2,0.1,0.3,0,0.5-0.1
			c0.1-0.9,0.2-1.8,0.3-2.7C57.9,14.2,57.1,14.9,56.3,15.6z M59.1,13.5c-0.1,0.9-0.2,1.8-0.3,2.7c0.1,0.1,0.2,0.2,0.3,0.4
			c1,0.1,1.9,0.2,2.9,0.1c-0.7-0.7-1.3-1.5-1.9-2.2C59.7,14.2,59.5,13.8,59.1,13.5z M63.3,14.4c-0.1,0.6-0.2,1.2-0.3,1.8
			c0,0.2-0.1,0.4,0.1,0.5c1.1-0.2,2.2-0.5,3.3-0.8c-0.9-0.5-1.8-1.1-2.6-1.7C63.6,14,63.4,14.2,63.3,14.4z M78.4,14.9
			c0.9,0.2,1.8,0.4,2.6,0.7c-0.4-0.3-0.8-0.7-1.2-1c-0.1,0-0.3,0.1-0.4,0.1C79.1,14.4,78.7,14.7,78.4,14.9z M73.4,16.3
			c1.1,0.5,2.2,1.1,3.4,1.6c0.1-0.1,0.2-0.2,0.3-0.2c0.1-0.6,0.2-1.1,0.2-1.7c0-0.2,0-0.4-0.1-0.6C75.9,15.8,74.6,16,73.4,16.3z
			 M78.2,15.5c-0.1,0.1-0.3,0.2-0.4,0.3c-0.1,0.7-0.2,1.4-0.2,2.1c1.2-0.5,2.5-1.1,3.7-1.7C80.2,16.1,79.2,15.8,78.2,15.5z
			 M51.1,16.5c0.6,1,1.3,1.9,2,2.8c0.1,0,0.3,0,0.4,0c0.6-1.1,1.2-2.1,1.8-3.2C53.8,16.3,52.4,16.3,51.1,16.5z M55.6,16.6
			c-0.5,0.9-1,1.8-1.6,2.7c1.3-0.8,2.5-1.5,3.8-2.3c-0.5-0.3-1-0.5-1.5-0.7C56,16.4,55.8,16.5,55.6,16.6z M63.3,17.3
			c-0.2,0.3-0.5,0.7-0.9,0.6c-0.8,1.1-1.6,2.2-2.5,3.3c-0.3,0.3,0,0.6-0.2,0.9c-0.1,0.2-0.4,0.3-0.6,0.4c-0.5,1.4-1,2.7-1.5,4.1
			c0.2,0.4,0.2,0.9-0.1,1.2c0.4,1.9,0.7,3.9,1.1,5.8c0.5,0.2,0.6,0.7,0.6,1.2c0.9,1.2,1.9,2.3,2.8,3.5c0.4-0.1,0.8,0.2,0.9,0.6
			c1.9,0.6,3.9,1.1,5.8,1.7c0.3-0.2,0.7-0.3,1-0.1c3.1-1.7,6.2-3.4,9.3-5.1c0.1-0.4,0.3-0.7,0.6-0.8c0.4-1.6,0.8-3.1,1.2-4.7
			c-0.3-0.4-0.3-0.9,0-1.3c-0.3-1.4-0.5-2.9-0.9-4.3c-0.5-0.2-0.6-0.8-0.5-1.2c-0.7-1.3-1.5-2.5-2.2-3.8c-0.5,0.1-0.8-0.3-0.9-0.8
			c-1.2-0.6-2.4-1.2-3.6-1.7c-0.2,0.1-0.4,0.2-0.6,0.2c-0.3-0.1-0.4-0.5-0.7-0.5c-1.3-0.1-2.5-0.1-3.8-0.2c-0.2,0.3-0.5,0.4-0.8,0.4
			c-0.1-0.1-0.2-0.2-0.3-0.3C65.5,16.8,64.4,17,63.3,17.3z M82.7,16.7c-0.1,0.2-0.3,0.3-0.2,0.5c0.1,0.9,0.1,1.8,0.2,2.6
			c0.1,0.1,0.2,0.2,0.3,0.2c1.9-0.6,3.8-1.1,5.6-1.8C86.6,17.7,84.6,17.2,82.7,16.7z M78,18.5c1.3,0.5,2.6,1.1,3.9,1.5
			c0.1,0,0.2-0.1,0.2-0.1c0-1-0.1-1.9-0.1-2.9c-0.1,0-0.2-0.1-0.2-0.2C80.5,17.3,79.2,17.9,78,18.5z M50.4,17
			c-0.5,1.1-1,2.2-1.5,3.4c1.3-0.2,2.6-0.3,3.8-0.6c-0.7-0.9-1.3-1.9-2-2.8C50.6,16.9,50.5,17,50.4,17z M58.8,17.6
			c0.2,1.1,0.3,2.3,0.5,3.5c1-1.2,1.8-2.4,2.7-3.6c-0.7-0.1-1.4,0-2-0.1C59.6,17.3,59.1,17.1,58.8,17.6z M55.7,21.7
			c0.9-0.1,1.8-0.2,2.7-0.3c0.3,0,0.4-0.3,0.5-0.5c-0.2-1.1-0.3-2.3-0.5-3.4C57.4,18.9,56.5,20.3,55.7,21.7z M53.9,20
			c0,0.6,0.7,0.9,1,1.4c0.2-0.1,0.4,0,0.5-0.2c0.8-1.1,1.5-2.3,2.3-3.5C56.4,18.5,55.1,19.3,53.9,20z M83,20.7
			c0.1,0.2,0.2,0.4,0.4,0.5c0.9,1,1.8,2,2.7,3c0.1-0.1,0.4,0,0.4-0.2c0.9-1.7,1.8-3.5,2.7-5.2C87.1,19.4,85.1,20,83,20.7z
			 M77.8,19.1c0.7,1.2,1.5,2.5,2.2,3.7c0.1,0,0.3,0,0.4,0c0.5-0.7,1-1.3,1.5-2c-0.1-0.1-0.3-0.2-0.5-0.3C80.2,20,79,19.5,77.8,19.1z
			 M86.8,24.4c1.1-0.2,2.1-0.4,3.2-0.7c0.1-0.2,0.2-0.3,0.3-0.5c-0.2-1.4-0.4-2.9-0.7-4.3C88.7,20.8,87.7,22.6,86.8,24.4z M49.2,21
			c-0.2,0.1-0.2,0.3-0.1,0.4c0.8,1.7,1.7,3.3,2.5,5c0.4-1.5,0.7-3,1-4.5c0.1-0.5,0.3-1,0.2-1.5C51.6,20.7,50.4,20.8,49.2,21z
			 M53.2,21.5c-0.3,1.5-0.7,2.9-1,4.4c0.8-1.1,1.6-2.3,2.3-3.4c0.1-0.8-0.6-1.3-1.1-1.8C53.3,21,53.2,21.2,53.2,21.5z M80.8,23.1
			c-0.2,0.2-0.1,0.5,0.1,0.6c0.6,0.4,1.2,0.8,1.8,1.1c-0.1-1.2-0.3-2.4-0.5-3.6C81.7,21.8,81.3,22.5,80.8,23.1z M82.8,21.4
			c0.1,1.1,0.3,2.1,0.5,3.2c0.1,0.1,0.3,0.2,0.4,0.4c0.7-0.1,1.4-0.2,2.1-0.3C84.7,23.5,83.8,22.4,82.8,21.4z M48.6,21.5
			c-0.2,1.9-0.5,3.8-0.7,5.6c-0.1,0.2,0.1,0.5,0.3,0.4c0.9-0.2,1.9-0.4,2.8-0.6c0.1-0.2,0.1-0.4,0-0.5
			C50.2,24.8,49.4,23.2,48.6,21.5z M55.7,22.4c-0.1,0.1-0.2,0.3-0.1,0.4c0.5,1.2,1,2.5,1.5,3.7c0.4-1,0.7-1.9,1.1-2.9
			c0.2-0.5,0.4-1,0.5-1.5C57.7,22.1,56.7,22.3,55.7,22.4z M54.9,22.9c-0.9,1.3-1.8,2.6-2.7,3.9c1.3,0,2.7,0,4,0c0.1,0,0.5,0,0.4-0.2
			c-0.4-1.3-1-2.5-1.5-3.7C55.1,22.9,55,22.9,54.9,22.9z M80.5,24.1c0.3,1.5,0.6,2.9,0.9,4.3c0.4-0.8,0.8-1.7,1.2-2.5
			c0.1-0.2-0.1-0.5-0.1-0.7C81.8,24.9,81.1,24.4,80.5,24.1z M87.1,25c-0.3,0-0.3,0.4-0.5,0.6c0.2,1.5,0.5,3,0.7,4.5
			c0.9-1.9,1.9-3.7,2.8-5.6C89.1,24.6,88.1,24.8,87.1,25z M87.7,30.4c0,0.1,0.1,0.2,0.1,0.3c0.8,0.2,1.7,0.4,2.5,0.6
			c0.1-0.1,0.2-0.2,0.3-0.2c0-2.1-0.1-4.1-0.2-6.2C89.5,26.7,88.6,28.5,87.7,30.4z M83.8,25.5c-0.1,0.2-0.2,0.3-0.3,0.5
			c0.2,1.1,0.4,2.2,0.6,3.3c0.6-1.3,1.2-2.7,1.7-4C85.1,25.3,84.5,25.5,83.8,25.5z M84.7,29.2c-0.1,0.2-0.3,0.5,0,0.7
			c0.7,0.2,1.3,0.3,2,0.5c0.1-0.1,0.2-0.2,0.2-0.2c-0.2-1.5-0.4-3-0.7-4.4C85.7,26.9,85.2,28,84.7,29.2z M83,26.1
			c-0.4,0.8-0.8,1.7-1.2,2.5c-0.1,0.2,0,0.5,0.2,0.5c0.5,0.2,1,0.4,1.6,0.5C83.5,28.4,83.3,27.3,83,26.1z M52.3,27.5
			c0.6,0.6,1,1.2,1.6,1.7c0.2,0,0.4,0,0.6,0c0.6-0.6,1.2-1.1,1.9-1.7C55,27.5,53.7,27.5,52.3,27.5z M48.5,28.2
			c0.8,0.4,1.7,0.8,2.5,1.2c0.2,0.1,0.3,0.2,0.5,0.1c0-0.5,0-1.1-0.1-1.6c-0.1-0.1-0.2-0.2-0.4-0.3C50.3,27.8,49.4,28,48.5,28.2z
			 M54.8,29.7c0,0.2,0,0.4,0.1,0.6c1.1,1.2,2.2,2.3,3.2,3.4c-0.3-1.8-0.7-3.6-1-5.5c0-0.2-0.1-0.3-0.2-0.5
			C56.2,28.4,55.5,29,54.8,29.7z M52,27.9c0,0.5,0.1,1,0.1,1.5c0.1,0.1,0.3,0.2,0.4,0.4c0.4,0,0.7-0.1,1.1-0.1
			C53,29,52.5,28.4,52,27.9z M47.9,28.6c0.4,2.3,0.8,4.6,1.1,7c0.8-1.7,1.6-3.3,2.4-5c0-0.1-0.1-0.3-0.2-0.4
			c-0.8-0.4-1.6-0.7-2.3-1.1C48.6,28.9,48.2,28.7,47.9,28.6z M81.3,30c-0.4,1.5-0.7,2.9-1.1,4.4c1-1.2,2-2.4,3-3.6
			c0.1-0.1,0.2-0.3,0.3-0.5c-0.5-0.2-1-0.3-1.4-0.5C81.7,29.6,81.5,29.9,81.3,30z M52.5,30.4c-0.1,0.1-0.2,0.3-0.3,0.4
			c0.1,1.2,0.3,2.4,0.4,3.7c0.4-1.3,0.7-2.6,1.1-3.9c0-0.1,0-0.2-0.1-0.2C53.3,30.3,52.9,30.3,52.5,30.4z M54.2,30.6
			c-0.4,1.3-0.7,2.6-1.1,3.8c-0.1,0.2-0.1,0.5-0.1,0.7c1.6-0.3,3.3-0.6,4.9-0.9c-1.1-1.2-2.3-2.4-3.4-3.6
			C54.4,30.6,54.3,30.6,54.2,30.6z M84.5,30.6c0,0.2,0.1,0.5,0.1,0.7c0.4,1.4,0.8,2.8,1.2,4.1c0.4-1.3,0.7-2.6,1-3.9
			c-0.1-0.2-0.2-0.4-0.4-0.4C85.8,30.8,85.1,30.7,84.5,30.6z M49.4,35.8c0.8-0.2,1.7-0.3,2.5-0.5c0.1-0.2,0.2-0.3,0.3-0.5
			c-0.1-1.3-0.3-2.6-0.5-3.9C51,32.5,50.2,34.2,49.4,35.8z M84,30.9c-0.5,1.8-1.1,3.6-1.6,5.5c0,0,0.1,0.1,0.1,0.1
			c0.9-0.1,1.8-0.3,2.7-0.5c0.1-0.1,0.2-0.2,0.2-0.4C85,34.1,84.5,32.5,84,30.9z M80.3,35.1c0.1,0.7,0.9,0.8,1.3,1.3
			c0.1-0.1,0.4-0.1,0.4-0.2c0.5-1.6,1-3.2,1.5-4.9C82.4,32.5,81.3,33.8,80.3,35.1z M87.7,31.2c0,0.2,0.1,0.5,0.2,0.7
			c0.5,1.4,1,2.9,1.6,4.3c0.3-1.2,0.7-2.5,1-3.7c0.1-0.2-0.1-0.4-0.2-0.6C89.4,31.7,88.5,31.4,87.7,31.2z M86.2,35.6
			c0.1,0.1,0.1,0.3,0.2,0.4c0.9,0.1,1.7,0.4,2.6,0.5c-0.5-1.6-1.2-3.3-1.8-4.9C86.9,32.9,86.6,34.3,86.2,35.6z M53.4,35.8
			c0.9,0.6,1.9,1.1,2.8,1.7c0.2,0,0.3-0.1,0.5-0.1c0.4-0.8,0.8-1.6,1.2-2.5C56.5,35.2,54.9,35.4,53.4,35.8z M58.4,35.2
			c-0.3,0.9-1,1.7-1.2,2.7c1.4,0.3,2.9,0.5,4.3,0.7c-0.7-0.9-1.5-1.9-2.2-2.8C59,35.5,58.8,35.1,58.4,35.2z M49.6,36.5
			c-0.2,0-0.2,0.3-0.1,0.5c0.6,1.2,1.3,2.4,1.9,3.6c0.2,0.4,0.4,0.8,0.7,1.2c0.1-1.4,0.1-2.7,0.1-4.1c0-0.5,0.3-1.2-0.2-1.6
			C51.2,36.2,50.4,36.3,49.6,36.5z M79.2,36.3c-0.7,0.9-1.6,1.7-2.2,2.6c1.4-0.7,2.9-1.3,4.4-1.9c-0.4-0.3-0.8-0.6-1.3-0.9
			C79.8,36.1,79.4,36,79.2,36.3z M52.8,36.3c0,1.9-0.1,3.8-0.2,5.7c1.1-1.2,2.3-2.4,3.5-3.7c0-0.1,0-0.2-0.1-0.3
			c-0.9-0.6-1.8-1.1-2.8-1.7C53.1,36.3,52.9,36.1,52.8,36.3z M71.2,40.3c1.3-0.3,2.6-0.5,3.9-0.8c0.2-0.4,0.5-0.6,1-0.6
			c0.8-0.8,1.5-1.7,2.3-2.6C76,37.7,73.6,38.9,71.2,40.3z M82.6,37.2c0,0.1-0.1,0.3-0.2,0.4c0.3,0.8,0.6,1.6,0.9,2.4
			c0.7-1,1.3-2.2,1.9-3.2C84.4,36.8,83.5,37,82.6,37.2z M86.1,36.9c-0.1,0-0.3,0-0.4,0c-0.6,0.9-1.1,1.9-1.6,2.8
			c1.3-0.7,2.6-1.6,3.9-2.3c0.2-0.1,0.4-0.2,0.5-0.4c-0.7-0.1-1.4-0.3-2.1-0.4C86.3,36.8,86.2,36.9,86.1,36.9z M76.4,39.7
			c0.9,0.8,1.9,1.5,2.9,2.3c0.1,0,0.3-0.1,0.4-0.1c0.6-1.5,1.2-2.9,1.7-4.4C79.8,38.3,78.1,39,76.4,39.7z M80.2,42
			c0.8-0.5,1.6-0.9,2.4-1.4c0.1-0.2,0.1-0.4,0.2-0.6c-0.3-0.8-0.6-1.6-0.9-2.4C81.4,39.1,80.8,40.5,80.2,42z M84,40.5
			c-0.1,0.2-0.1,0.4-0.2,0.5c0.3,0.7,0.7,1.5,1,2.2c0.1,0,0.2,0,0.2,0c1.2-1.8,2.4-3.7,3.5-5.5C87.1,38.7,85.6,39.6,84,40.5z
			 M57.5,38.6c0.5,0.4,0.9,0.9,1.3,1.3c0.3-0.1,0.5,0,0.8,0.1c0.5-0.3,1-0.5,1.5-0.9C60,39,58.7,38.7,57.5,38.6z M53,42.3
			c1.2,0.1,2.3,0.1,3.5,0.2c0.1-0.1,0.2-0.2,0.3-0.3c-0.1-1.1-0.2-2.3-0.4-3.5C55.3,39.9,54.2,41.1,53,42.3z M57,38.8
			c0.1,1.1,0.2,2.3,0.3,3.4c0.4-0.4,0.8-0.8,1.1-1.2c0.2-0.2,0.1-0.4,0.1-0.7C58,39.8,57.5,39.3,57,38.8z M59.8,40.6
			c0.8,0.6,1.7,1.1,2.5,1.7c0-0.8-0.2-1.7-0.3-2.5c-0.1-0.1-0.2-0.2-0.2-0.2C61.1,39.9,60.4,40.3,59.8,40.6z M62.5,39.7
			c0.1,0.8,0.2,1.6,0.3,2.5c0.1,0.1,0.2,0.2,0.4,0.3c1.7-0.5,3.4-0.9,5-1.4c-1.8-0.4-3.6-1-5.5-1.5C62.6,39.5,62.5,39.6,62.5,39.7z
			 M70.4,41.1c1.6,0.7,3.2,1.3,4.8,1.9c0.1-0.1,0.2-0.2,0.3-0.2c0-0.8,0.1-1.6,0.1-2.5c-0.1-0.1-0.2-0.2-0.3-0.2
			C73.6,40.5,72,40.8,70.4,41.1z M75.8,42.8c0.1,0.1,0.2,0.2,0.2,0.3c1-0.2,1.9-0.4,2.9-0.6c-0.9-0.8-1.9-1.5-2.9-2.2
			C75.8,41.1,76,41.9,75.8,42.8z M57.7,42.7c0.2,0.4,0.7,0.6,1.1,0.9c0,0,0.1-0.1,0.1-0.1c0-0.8,0-1.5,0-2.3
			C58.5,41.7,58,42.2,57.7,42.7z M59.4,41.2c-0.1,0.8,0,1.5,0,2.3c0,0.1,0.1,0.2,0.2,0.3c0.8-0.3,1.5-0.6,2.3-0.9
			c-0.3-0.3-0.7-0.6-1.1-0.8C60.3,41.7,59.9,41.4,59.4,41.2z M80.5,42.5c1.3,0.3,2.6,0.7,3.9,1c-0.3-0.7-0.7-1.4-1-2.2
			c-0.2-0.1-0.4-0.1-0.5-0.2C82.1,41.6,81.3,42.1,80.5,42.5z M63.9,42.8c1.4,0.4,2.9,0.6,4.3,1c0.1-0.1,0.3-0.2,0.4-0.3
			c0.1-0.6,0.2-1.2,0.3-1.8c0-0.1-0.1-0.2-0.2-0.2C67.1,41.9,65.5,42.4,63.9,42.8z M69.3,41.8c-0.1,0.6-0.2,1.2-0.3,1.8
			c0.1,0.1,0.2,0.2,0.2,0.3c1.6-0.2,3.3-0.3,4.9-0.5c-1.5-0.6-3-1.2-4.5-1.8C69.6,41.6,69.5,41.7,69.3,41.8z M53.1,43
			c1.2,1.1,2.4,2.3,3.6,3.4c0.1-0.9,0.1-1.9,0.2-2.8c-0.1-0.1-0.2-0.3-0.4-0.4C55.4,43,54.2,43.1,53.1,43z M76.1,43.8
			c0.2,0.3,0.5,0.6,0.8,0.9c0.2,0,0.5,0.1,0.6-0.1c0.4-0.4,0.8-0.9,1.3-1.4C77.9,43.3,77,43.6,76.1,43.8z M79.9,43.4
			c-0.1,1.4-0.3,2.8-0.3,4.2c1.6-1.1,3.1-2.2,4.7-3.4c-1.3-0.3-2.6-0.7-4-1C80.1,43.2,80,43.3,79.9,43.4z M63.1,43.3
			c0.3,0.7,0.6,1.3,0.9,2c0.1,0.3,0.4,0.3,0.7,0.5c1-0.5,2.1-0.9,3.1-1.4C66.2,44,64.6,43.6,63.1,43.3z M57.3,43.9
			c-0.1,0.8-0.1,1.5-0.1,2.3c0.5-0.6,1-1.1,1.4-1.8c-0.1-0.5-0.8-0.7-1.1-1C57.4,43.6,57.3,43.7,57.3,43.9z M60,44.2
			c1.2,0.5,2.4,1,3.6,1.5c-0.3-0.7-0.6-1.4-1-2.1c-0.2-0.1-0.4-0.1-0.6-0.2C61.4,43.7,60.7,44,60,44.2z M77.8,45.1
			c0,0.2,0,0.4,0,0.6c0.4,0.6,0.8,1.2,1.3,1.7c0.1-1.3,0.2-2.7,0.3-4C78.9,44,78.3,44.5,77.8,45.1z M69.8,44.4
			c0.9,0.5,1.9,1,2.8,1.5c0.1,0,0.2-0.1,0.3-0.2c0.1,0,0.3,0,0.4,0c0.5-0.6,1-1.2,1.6-1.9C73.2,44.1,71.5,44.3,69.8,44.4z
			 M73.9,45.9c0.9-0.2,1.8-0.5,2.7-0.7c-0.3-0.4-0.6-1.1-1.3-0.9C74.9,44.8,74.4,45.4,73.9,45.9z M65.4,46.1
			c0.8,0.1,1.6,0.3,2.4,0.4c0.3,0.1,0.4-0.2,0.6-0.3c0-0.5,0.2-1,0-1.4C67.3,45.2,66.3,45.6,65.4,46.1z M60,44.9c0.7,1,1.5,2,2.3,3
			c0.3,0.4,0.5,0.8,0.8,1.1c0.4-0.5,0.3-1.2,0.6-1.8c0.1-0.3,0-0.6-0.1-0.9C62.4,45.9,61.2,45.4,60,44.9z M68.9,45
			c0,0.4-0.1,0.9-0.1,1.3c0.1,0.1,0.3,0.4,0.5,0.3c0.9-0.1,1.8-0.2,2.7-0.3c-0.8-0.4-1.6-0.8-2.3-1.2C69.4,44.9,69.1,44.7,68.9,45z
			 M58.1,46c-0.2,0.3-0.7,0.5-0.5,0.9c1.7,0.7,3.3,1.5,5,2.2c-1.1-1.3-2.1-2.7-3.1-4.1C58.7,44.8,58.5,45.6,58.1,46z M74.2,46.5
			c1.4,0.4,2.9,0.7,4.3,1.1c-0.4-0.5-0.7-1-1.1-1.5c-0.3,0-0.5-0.1-0.7-0.2C75.9,46,75.1,46.4,74.2,46.5z M64.7,46.7
			c-0.2,0.1-0.3,0.3-0.5,0.4c-0.2,0.7-0.4,1.4-0.6,2.1c1.1-0.5,2.1-1.1,3.1-1.7c0.3-0.1,0.5-0.3,0.8-0.3c0-0.2-0.2-0.4-0.4-0.2
			C66.4,47,65.6,46.8,64.7,46.7z M69.2,47.2c0.7,0.6,1.3,1.4,2.1,1.9c0.2,0,0.3,0,0.4,0.1c0.4-0.7,0.6-1.5,0.9-2.3
			C71.5,47,70.3,47.1,69.2,47.2z M73.6,47c-0.2,0.1-0.4,0.2-0.6,0.3c-0.3,0.7-0.7,1.4-0.9,2.2c1.9-0.4,3.8-0.9,5.7-1.4
			C76.5,47.7,75,47.3,73.6,47z M68.1,47.5c-1.2,0.7-2.4,1.2-3.6,1.9c2.1,0.1,4.2,0.1,6.4,0.1c-0.6-0.7-1.4-1.2-2-1.9
			c-0.1,0-0.3,0.1-0.4,0.1C68.3,47.7,68.2,47.6,68.1,47.5z"/>
	</g>
	<g>
		<path fill="#24262D" d="M106.9,6.5c0.2-0.5,1-0.5,1.2,0c2.1,0,4.3,0,6.4,0c0.2-0.2,0.3-0.4,0.6-0.3c0.4-0.1,0.5,0.4,0.8,0.4
			c1.5,0.1,3.1,0.2,4.6,0.3c0.2-0.2,0.4-0.5,0.8-0.4c0.3,0.1,0.4,0.4,0.5,0.7c1.2,0.5,2.5,1,3.7,1.6c0.2-0.1,0.4-0.3,0.7-0.2
			c0.4,0.1,0.4,0.6,0.5,0.9c1.4,1.2,2.8,2.4,4.2,3.6c0.2,0,0.5-0.1,0.6,0c0.4,0.3,0.4,0.7,0.2,1.1c0.7,1.3,1.4,2.6,2.1,4
			c0.8,0,1.1,0.9,0.6,1.5c0.4,1.8,0.8,3.6,1.3,5.4c0.7,0.2,0.8,1.2,0.2,1.5c0,1.9,0,3.8,0,5.7c0.3,0.3,0.5,0.7,0.4,1.1
			c-0.1,0.4-0.6,0.3-0.7,0.7c-0.5,1.4-1,2.7-1.4,4.1c0.1,0.3,0.3,0.6,0.1,0.9c-0.1,0.3-0.5,0.3-0.7,0.4c-0.8,1.2-1.6,2.4-2.4,3.6
			c0,0.3,0.1,0.7-0.2,1c-0.2,0.2-0.5,0.2-0.8,0.1c-1.4,1.1-2.8,2.1-4.2,3.2c0,0.3-0.1,0.7-0.5,0.9c-0.3,0.1-0.5-0.1-0.7-0.2
			c-1.5,0.5-3,1-4.4,1.6c-0.1,0.2-0.2,0.3-0.3,0.5c-0.3,0.1-0.8,0.1-0.9-0.3c-2,0-3.9,0.2-5.9,0.3c-0.2,0-0.4,0-0.7,0.1
			c-0.1,0.2-0.2,0.5-0.5,0.5c-0.3,0.1-0.5-0.2-0.7-0.4c-2.5,0-5,0.1-7.6,0c-1.4,0-2.7-0.1-4.1-0.1c-0.2,0.3-0.5,0.5-0.8,0.5
			c-0.3-0.3-0.8-0.3-0.9-0.7c0.1-0.1,0.2-0.2,0.4-0.3c0.1-0.2,0.3-0.4,0.5-0.5c0-2.9,0-5.7,0-8.6c-0.2-0.2-0.3-0.5-0.5-0.8
			c0.1-0.2,0.2-0.4,0.3-0.6c0.4,0.1,0.8,0.2,1.1,0.4c1.3,0.2,2.6,0.4,3.9,0.6c0.1-0.1,0.2-0.2,0.3-0.3c0.2,0,0.4,0,0.6,0
			c0.1,0.1,0.2,0.2,0.2,0.4c1.2-0.1,2.4-0.2,3.6-0.3c0.1-0.2,0.3-0.4,0.5-0.5c0.4-0.1,0.6,0.3,0.8,0.6c1.5,0.2,2.9,0.4,4.4,0.6
			c0.2-0.2,0.3-0.3,0.6-0.4c0.2,0,0.4,0.2,0.6,0.4c1.5-0.2,3-0.4,4.4-0.6c0.2-0.4,0.6-0.6,1-0.5c1-1,2.1-2,3.1-3.1
			c-0.1-0.5,0.2-0.9,0.7-1.1c0.7-1.5,1.3-3.1,1.9-4.6c-0.1-0.4-0.2-0.9,0.2-1.2c-0.1-1.2-0.4-2.3-0.5-3.5c0-0.4-0.5-0.5-0.5-0.8
			c-0.2-0.3,0-0.6,0.1-0.8c-0.5-1.3-1-2.6-1.5-3.9c-0.5,0-0.7-0.5-0.8-1c-1.1-1-2.2-1.9-3.4-2.8c-0.4,0.2-0.8,0-1-0.4
			c-1.6-0.2-3.2-0.4-4.8-0.6c-0.2,0.2-0.4,0.4-0.6,0.3c-0.3,0-0.4-0.3-0.5-0.4c-1,0-2,0-3,0c-0.3,0-0.4,0.5-0.8,0.4
			c-0.3,0-0.5-0.2-0.7-0.4c-1.3-0.1-2.7-0.2-4-0.3c-0.2,0.2-0.4,0.3-0.6,0.5c-0.2-0.1-0.4-0.3-0.6-0.4c-1,0.3-2.1,0.6-3.1,0.9
			c-0.3,0-0.2,0.4-0.3,0.6c-0.4,0-1,0.1-1.1-0.4c-0.3-0.4,0-0.8,0.3-1.1c-0.1-2.4-0.2-4.9-0.3-7.3c-0.3-0.2-0.4-0.5-0.5-0.8
			c0.1-0.3,0.2-0.7,0.6-0.7c0.3-0.1,0.5,0.2,0.7,0.4C102.1,6.7,104.5,6.7,106.9,6.5z M99.8,7.5c0.7,0.7,1.5,1.5,2.2,2.2
			c0.2,0,0.5,0,0.7,0.1c1.3-0.9,2.5-1.7,3.8-2.6C104.3,7.3,102,7.4,99.8,7.5z M109,7.2c0.2,0.2,0.4,0.3,0.7,0.4
			c0.9,0.5,1.8,1,2.7,1.4c0.2-0.1,0.5-0.1,0.7-0.1c0.5-0.6,1-1.1,1.5-1.7C112.7,7.2,110.8,7.2,109,7.2z M115.9,7.2
			c0.6,0.7,1.2,1.4,1.9,2.1c0.2,0,0.5,0.1,0.7-0.1c0.7-0.6,1.3-1.2,2-1.8C119,7.4,117.4,7.3,115.9,7.2z M107.8,7.5c0,1,0,2.1,0,3.1
			c0.2,0.1,0.3,0.2,0.5,0.1c1.2-0.4,2.5-0.8,3.7-1.1c-1.2-0.7-2.5-1.3-3.7-2C108.1,7.4,108,7.5,107.8,7.5z M106,8.3
			c-1,0.7-1.9,1.3-2.9,2c1.2,0.2,2.4,0.4,3.6,0.6c0.2,0.1,0.4-0.1,0.5-0.3c0-1,0-2.1,0-3.1C106.8,7.6,106.4,8,106,8.3z M115,7.6
			c-0.5,0.6-1,1.2-1.5,1.8c1.3,0.1,2.7,0.2,4,0.3c-0.7-0.7-1.3-1.4-1.9-2.1C115.3,7.5,115.1,7.6,115,7.6z M121.7,7.8
			c0.8,1.7,1.5,3.4,2.3,5.1c0,0,0.1,0,0.1,0c0.5-1.1,1-2.1,1.5-3.2c0-0.1-0.1-0.3-0.1-0.4C124.2,8.8,123,8.3,121.7,7.8z M120.9,7.9
			c-0.7,0.7-1.6,1.3-2.3,2.1c1.6,1,3.3,2,4.9,3c-0.7-1.7-1.5-3.3-2.2-5C121.2,8,121,7.9,120.9,7.9z M99.4,7.9
			c0.1,2.4,0.2,4.9,0.3,7.3c0.7-1.4,1.4-2.8,2.1-4.3c-0.1-0.2-0.1-0.5-0.1-0.7C100.9,9.4,100.2,8.6,99.4,7.9z M126,10
			c-0.4,0.8-0.7,1.6-1.1,2.4c-0.1,0.3-0.3,0.6-0.3,0.9c2,0,3.9,0,5.9,0c-1.4-1.2-2.7-2.3-4.1-3.5C126.3,9.9,126.2,10,126,10z
			 M113.1,10.3c0.2,1.4,0.4,2.9,0.6,4.3c1.3-1.4,2.4-2.9,3.7-4.3c-1.4-0.1-2.7-0.2-4.1-0.3C113.3,10.1,113.2,10.2,113.1,10.3z
			 M108.2,11.4c-0.1,0.2-0.2,0.4-0.1,0.6c0.2,0.6,0.5,1.2,0.7,1.8c0.1,0.3,0.2,0.7,0.5,0.9c1-1.5,1.9-3,2.9-4.5
			C110.8,10.6,109.5,11,108.2,11.4z M112.6,10.4c-1,1.5-2,3-2.9,4.6c1.1,0,2.2,0,3.3,0c0.1-0.1,0.2-0.3,0.3-0.4
			C113,13.2,112.9,11.7,112.6,10.4z M118.4,10.6c0.4,1.6,0.8,3.1,1.2,4.6c0.1,0.1,0.3,0.2,0.4,0.2c1.1-0.6,2.2-1.2,3.3-1.8
			C121.8,12.6,120.1,11.7,118.4,10.6z M117.6,10.9c-1.2,1.4-2.3,2.7-3.5,4.1c1.6,0.2,3.3,0.4,4.9,0.7c0-0.1,0.1-0.2,0.2-0.2
			c-0.4-1.5-0.8-3.1-1.2-4.6C118,10.7,117.7,10.8,117.6,10.9z M102.8,10.9c0.2,1.1,0.8,2.1,1.1,3.2c0.1,0,0.3,0.1,0.3,0.1
			c0.9-0.9,1.8-1.8,2.7-2.7C105.6,11.3,104.2,11.1,102.8,10.9z M100,15.6c1-0.3,2.1-0.5,3.1-0.9c0.2,0,0.3-0.3,0.4-0.5
			c-0.4-1-0.7-2.1-1.2-3.1C101.5,12.6,100.8,14.1,100,15.6z M104.6,14.6c1.3,0.1,2.6,0.2,3.9,0.3c0,0,0.1-0.1,0.1-0.1
			c-0.2-0.6-0.5-1.2-0.7-1.9c-0.2-0.4-0.2-0.9-0.7-1C106.4,12.8,105.5,13.7,104.6,14.6z M124.7,14c0.6,0.7,1.2,1.5,1.9,2.2
			c0.2,0,0.4,0,0.7,0.1c1-0.7,2.1-1.5,3.1-2.2C128.5,14,126.6,14,124.7,14z M122.9,14.6c-0.9,0.5-1.9,0.9-2.7,1.5
			c1.2,1,2.4,2,3.6,2.9c0.1-1.6,0-3.2,0-4.8C123.5,14.2,123.2,14.5,122.9,14.6z M127.6,16.8c2,0.6,4,1.1,6,1.7
			c-0.7-1.3-1.4-2.6-2.1-4c-0.2,0-0.4-0.1-0.6-0.1C129.8,15.1,128.7,15.9,127.6,16.8z M124.3,14.4c0,1.6,0,3.1,0,4.7
			c0.6-0.6,1.2-1.2,1.8-1.8c0.2-0.2,0.2-0.6,0-0.9C125.5,15.7,124.9,15,124.3,14.4z M127.3,17.4c0,0-0.1,0.1-0.1,0.2
			c0.1,1,0.4,2,0.5,3c0.1,0.1,0.3,0.2,0.4,0.3c1.6-0.7,3.3-1.2,4.9-1.9C131.1,18.5,129.3,17.8,127.3,17.4z M124.6,19.6
			c0.9,0.5,1.8,0.8,2.7,1.2c-0.2-1.1-0.4-2.2-0.6-3.3C125.9,18.1,125.3,18.9,124.6,19.6z M128.7,21.3c0.8,0.2,1.6,0.5,2.5,0.7
			c0.2-0.2,0.5-0.2,0.7-0.3c0.5-0.8,1-1.5,1.5-2.3C131.8,20.1,130.2,20.7,128.7,21.3z M133.1,20.9c-0.3,0.4-0.6,0.8-0.8,1.3
			c-0.1,0.5,0.4,0.8,0.7,1c0.6,0.5,1.3,1,1.9,1.6c0.2,0.1,0.3,0.3,0.5,0.3c-0.2-0.3-0.2-0.6-0.3-0.9c-0.4-1.5-0.7-3.1-1.1-4.6
			C133.7,20,133.4,20.5,133.1,20.9z M124.5,20.3c0.5,1.3,1,2.7,1.6,4c0.5-0.8,0.7-1.6,1.1-2.4c-0.1-0.1-0.1-0.3-0.2-0.4
			C126.2,21,125.3,20.6,124.5,20.3z M128.2,21.8c-0.2,0.1-0.4,0.2-0.6,0.2c-0.3,0.8-0.7,1.5-1,2.3c1.4-0.6,2.8-1.2,4.2-1.8
			C129.9,22.4,129.1,22,128.2,21.8z M127,24.9c-0.2,0-0.4,0.2-0.2,0.4c1.1,1.3,2.1,2.6,3.2,3.8c0.1-0.3,0.2-0.6,0.2-0.8
			c0.4-1.7,0.8-3.5,1.1-5.2C129.9,23.6,128.4,24.3,127,24.9z M131.7,23.7c-0.4,1.8-0.8,3.6-1.2,5.4c1.6-1.1,3.1-2.2,4.6-3.3
			c-0.1-0.3-0.4-0.5-0.6-0.7c-0.8-0.6-1.6-1.3-2.5-1.9C131.7,23.1,131.7,23.5,131.7,23.7z M126.4,25.7c0.2,1.1,0.4,2.3,0.5,3.4
			c0,0.3,0.3,0.5,0.6,0.6c0.7-0.1,1.3-0.2,2-0.3C128.5,28.2,127.4,27,126.4,25.7z M133.5,27.7c-0.9,0.7-1.9,1.3-2.8,2
			c1.5,0.8,3,1.7,4.5,2.6c0.2,0.2,0.4-0.1,0.3-0.2c0-1.9,0-3.8,0-5.7C134.8,26.7,134.1,27.3,133.5,27.7z M127.4,30.4
			c0.8,1.2,1.7,2.3,2.5,3.4c0-1.1,0-2.1,0-3.2c0-0.2-0.2-0.3-0.3-0.5C128.8,30.3,128.1,30.3,127.4,30.4z M130.4,30.3
			c-0.1,0.9,0,1.7,0,2.6c0,0.4-0.1,0.9,0.2,1.2c1.5-0.4,2.9-0.8,4.4-1.3c-0.6-0.4-1.3-0.7-1.9-1.1C132.1,31.3,131.3,30.7,130.4,30.3
			z M126.7,31.2c-0.6,1.5-1.2,3-1.8,4.5c1.6-0.4,3.1-0.8,4.6-1.3c-0.2-0.5-0.6-0.9-0.9-1.3c-0.5-0.7-1-1.5-1.6-2.1
			C126.9,30.7,126.7,31.1,126.7,31.2z M130.7,34.8c0.9,1.1,1.9,2.1,2.8,3.1c0.1,0,0.2-0.1,0.3-0.1c0.6-1.4,1.1-2.9,1.6-4.4
			C133.7,33.9,132.2,34.3,130.7,34.8z M125.2,36.3c-0.2,0-0.2,0.3-0.1,0.4c0.5,0.7,1,1.4,1.5,2c0.2-0.1,0.4-0.1,0.5-0.3
			c0.7-1.1,1.5-2.2,2.2-3.3C128,35.5,126.6,35.9,125.2,36.3z M129.9,35.4c-0.8,1.2-1.6,2.5-2.4,3.7c1.9-0.2,3.8-0.4,5.7-0.7
			c-0.9-1-1.7-1.9-2.6-2.9C130.3,35.2,130.1,35.4,129.9,35.4z M121.3,39.8c1.7-0.2,3.4-0.4,5-0.6c-0.5-0.8-1.1-1.5-1.6-2.2
			c-0.2,0-0.4,0-0.5-0.1C123.2,37.8,122.2,38.8,121.3,39.8z M127.5,39.7c0.9,1,1.8,2,2.7,3c0.1,0,0.3,0,0.5,0
			c0.8-1.2,1.7-2.5,2.5-3.7C131.3,39.3,129.4,39.4,127.5,39.7z M121.3,40.5c0.7,0.5,1.3,1,2,1.5c0.2-0.1,0.5-0.1,0.7,0
			c0.7-0.7,1.4-1.4,2.1-2.1C124.4,40.1,122.8,40.2,121.3,40.5z M124.3,42.4c1.8,0.2,3.6,0.5,5.4,0.6c-0.9-1-1.7-1.9-2.6-2.9
			c-0.2,0-0.4,0-0.6,0C125.8,40.9,125.1,41.6,124.3,42.4z M99.6,40.2c0.3,1.2,0.9,2.4,1.3,3.6c0.1,0.2,0.1,0.5,0.4,0.5
			c0.9-1.1,1.7-2.3,2.5-3.5C102.4,40.6,101,40.4,99.6,40.2z M105.2,40.9c-0.3,0-0.4,0.2-0.5,0.4c0.2,1.3,0.4,2.6,0.6,3.9
			c1.2-1.5,2.2-3.1,3.3-4.6C107.5,40.7,106.3,40.8,105.2,40.9z M109.8,40.6c0.5,0.6,0.9,1.3,1.4,1.9c0.1,0.3,0.5,0.2,0.8,0.3
			c0.7-0.5,1.4-1.1,2.1-1.6C112.6,41,111.2,40.8,109.8,40.6z M115.7,41.2c0.6,0.4,1.3,0.8,1.9,1.2c0.2-0.1,0.5-0.1,0.7-0.1
			c0.5-0.5,0.9-1.1,1.4-1.6C118.4,40.8,117,41,115.7,41.2z M109,41c-1,1.4-2,2.8-3,4.3c1.6-0.6,3.3-1.2,4.9-1.8c0.3,0,0.2-0.4,0-0.5
			c-0.5-0.6-1-1.3-1.4-1.9C109.3,41,109.1,41,109,41z M120.2,41c-0.5,0.6-1,1.1-1.4,1.7c1.4-0.1,2.7-0.2,4.1-0.3
			c-0.7-0.5-1.3-1-2-1.5C120.6,40.9,120.4,41,120.2,41z M99.4,41.1c0,2.5,0,5.1,0,7.6c0.4-1,0.9-2.1,1.3-3.1c-0.2-0.4-0.1-0.8,0-1.1
			C100.3,43.3,99.8,42.2,99.4,41.1z M104.2,41.3c-0.8,1.2-1.7,2.3-2.5,3.5c1,0.2,2,0.4,3,0.6c0.3-0.1,0.1-0.4,0.1-0.7
			C104.6,43.6,104.4,42.4,104.2,41.3z M112.2,43.4c0.3,0.3,0.8,0.5,1.2,0.8c0.5,0.3,1,0.6,1.5,0.8c0-0.9-0.2-1.7-0.2-2.6
			c0-0.2,0-0.5-0.2-0.7C113.7,42.2,113,42.8,112.2,43.4z M115.1,41.6c0.1,1,0.2,2,0.3,3c0,0.2,0.1,0.3,0.3,0.1
			c0.4-0.3,0.8-0.7,1.2-1c0.2-0.2,0.5-0.4,0.6-0.7C116.6,42.6,115.9,42,115.1,41.6z M118.9,43.3c-0.3,0-0.5,0.3-0.4,0.6
			c0.3,1.3,0.6,2.6,1,3.9c0.1,0.3,0.1,0.7,0.3,1c1.1-1.9,2.3-3.9,3.4-5.8C121.7,43.1,120.3,43.2,118.9,43.3z M124.2,43
			c-0.1,0.2,0,0.4,0.1,0.7c0.3,0.9,0.6,1.9,1,2.8c0,0.2,0.3,0.2,0.4,0.3c1.4-1.1,2.8-2.1,4.1-3.2C127.8,43.5,126,43.3,124.2,43z
			 M123.6,43.4c-1.2,1.8-2.2,3.7-3.3,5.6c1.4-0.4,2.7-1,4.1-1.4c0.3-0.1,0.6-0.5,0.4-0.8C124.4,45.6,124.1,44.5,123.6,43.4
			C123.6,43.4,123.6,43.4,123.6,43.4z M117.6,43.8c-0.5,0.4-1.1,0.9-1.6,1.4c-0.2,0.2-0.1,0.5,0.1,0.7c1.1,1,2.1,1.9,3.2,2.9
			c-0.4-1.6-0.8-3.2-1.2-4.8C118,43.8,117.7,43.7,117.6,43.8z M111.8,44.1c0.2,1.6,0.2,3.3,0.3,5c0.5-0.4,0.8-1,1.2-1.5
			c0.4-0.6,0.9-1.2,1.3-1.8c0-0.1-0.1-0.3-0.1-0.4c-0.8-0.5-1.7-0.9-2.5-1.4C112,44.1,111.9,44.1,111.8,44.1z M106.1,45.9
			c-0.2,0-0.3,0.2-0.4,0.4c0.3,0.4,0.6,0.8,0.8,1.2c0.2,0,0.3,0.1,0.5,0.1c1.1-1.1,2.3-2.3,3.4-3.4C109,44.8,107.5,45.3,106.1,45.9z
			 M110.2,45.3c-0.9,1-1.9,1.9-2.8,2.9c1.3,0.4,2.5,0.8,3.8,1.1c0.2,0.1,0.4,0,0.6,0c-0.1-1.7-0.2-3.4-0.3-5.1
			C110.9,44.4,110.6,44.9,110.2,45.3z M101.7,45.5c-0.2,0.1-0.4,0.3-0.6,0.4c-0.4,1.1-0.9,2.1-1.4,3.2c0.8-0.4,1.5-0.9,2.2-1.4
			c0.8-0.5,1.6-1.1,2.5-1.6C103.5,45.9,102.6,45.7,101.7,45.5z M115,46.2c-0.7,1.1-1.6,2.1-2.3,3.2c1.1,0.1,2.2-0.1,3.4,0
			c1-0.1,1.9-0.1,2.9-0.2c-1.1-1-2.3-2-3.4-3C115.4,46.2,115.2,46.2,115,46.2z M100.6,49.3c1.9-0.4,3.7-0.7,5.6-1.2l0-0.1
			c-0.2-0.5-0.6-0.9-0.9-1.3c-0.2,0-0.4-0.1-0.6-0.1C103.4,47.4,102,48.3,100.6,49.3z M104.1,49.2c-0.5,0.1-1.1,0.2-1.6,0.3
			c2.6,0,5.2-0.1,7.7,0.1c-0.1-0.1-0.3-0.2-0.4-0.2c-0.9,0.1-1.7-0.5-2.5-0.7c-0.3,0.3-0.8,0.3-1.1,0
			C105.5,48.8,104.8,49,104.1,49.2z"/>
	</g>
	<g>
		<path fill="#24262D" d="M145.8,6.8c0.1-0.3,0.5-0.3,0.7-0.3c0.1,0.1,0.2,0.3,0.3,0.4c1.2,0,2.3,0.1,3.5,0.1c0.3,0,0.5-0.3,0.8-0.3
			c0.2,0,0.3,0.2,0.5,0.3c1.2,0,2.4,0.1,3.6,0.1c0.3-0.2,0.6-0.5,0.9-0.3c0.5,0.3,0.4,1,0,1.4c0.2,1.7,0.3,3.4,0.5,5.1
			c0.2,0.2,0.5,0.4,0.5,0.8c0,0.3-0.2,0.5-0.4,0.8c0,1.6,0,3.3,0,4.9c-0.1,0.4,0.4,0.6,0.4,1c0.1,0.4-0.3,0.6-0.5,0.9
			c-0.1,1.3-0.1,2.6-0.2,3.9c0.2,0.2,0.3,0.4,0.4,0.7c0.1,0.3-0.2,0.6-0.4,0.8c0,1.6,0,3.1,0,4.7c0.2,0.2,0.4,0.5,0.4,0.8
			c0,0.3-0.2,0.5-0.4,0.7c0,2.4,0,4.8,0,7.2c0.1,0.1,0.3,0.3,0.4,0.4c1.4-0.1,2.8-0.1,4.2-0.2c0.2-0.1,0.4-0.4,0.6-0.4
			c0.3,0,0.5,0.2,0.6,0.4c1.3,0.1,2.6,0.1,3.9,0.2c0.2-0.2,0.3-0.4,0.6-0.4c0.3,0,0.5,0.3,0.6,0.5c1.4,0,2.7,0.1,4.1,0.2
			c0.2-0.2,0.4-0.4,0.6-0.4c0.5,0.1,0.8,0.8,0.4,1.2c-0.2,0.2-0.1,0.6-0.1,0.9c0.1,0.8,0.2,1.6,0.2,2.4c0.6,0.3,0.7,1.2,0.1,1.5
			c-0.1,0.8-0.2,1.7-0.2,2.5c0.1,0,0.2,0.1,0.3,0.2c0.1,0.2,0.1,0.3,0.2,0.5c0,0.3-0.3,0.5-0.4,0.7c-0.4,0-0.7-0.2-0.9-0.5
			c-2,0-4,0-5.9,0.1c-0.1,0.1-0.2,0.3-0.3,0.4c-0.4,0.1-0.6-0.3-1-0.3c-1.8,0-3.5-0.2-5.3-0.1c-0.2,0.2-0.5,0.5-0.8,0.4
			c-0.2-0.1-0.3-0.3-0.4-0.4c-1.9,0-3.7,0-5.6,0c-0.3,0-0.6,0.1-0.9,0.1c-1.5-0.3-3.1-0.1-4.6-0.2c-0.3-0.1-0.4,0.2-0.6,0.4
			c-0.3,0.1-0.5,0-0.8-0.1c-0.2-0.2-0.2-0.5-0.2-0.8c0.1-0.2,0.3-0.3,0.4-0.4c0-1.8,0-3.6-0.1-5.5c0-0.4-0.3-0.6-0.3-1
			c0-0.4,0.3-0.6,0.3-1c0-1.9,0-3.9-0.1-5.8c-0.5-0.3-0.6-1.2,0-1.5c0.1-1.9,0.1-3.7,0.1-5.6c0-0.4-0.3-0.6-0.3-1
			c-0.1-0.4,0.3-0.6,0.3-1c0-2.1,0.1-4.2,0.1-6.3c-0.5-0.4-0.5-1.1,0-1.5c0-1.8,0-3.5,0-5.3c0.1-0.4-0.5-0.7-0.4-1.1
			c0-0.3,0.2-0.5,0.4-0.7c0.1-1.3,0.1-2.7,0.2-4C145.7,7.7,145.5,7.2,145.8,6.8z M146.9,7.6c0.8,0.9,1.5,1.7,2.3,2.6
			c0.1,0,0.2-0.1,0.4-0.1c0.3-0.7,0.7-1.4,1-2.2c0-0.3-0.4-0.2-0.5-0.2C149,7.7,148,7.6,146.9,7.6z M151.6,7.8
			c0,0.3,0.1,0.6,0.2,0.8c0.3,0.7,0.6,1.4,0.9,2.1c0.2-0.1,0.4-0.2,0.5-0.3c0.7-0.9,1.4-1.7,2.1-2.6C154,7.8,152.8,7.8,151.6,7.8z
			 M146.4,7.9c0,1.4-0.2,2.9-0.1,4.3c0.8-0.3,1.4-0.7,2.1-1.1c0.2-0.1,0.6-0.4,0.3-0.6C148,9.6,147.3,8.7,146.4,7.9z M153.4,11
			c-0.2,0.2,0,0.6,0.2,0.7c0.9,0.6,1.8,1.3,2.7,1.9c-0.2-1.8-0.3-3.6-0.6-5.4C154.9,9,154.1,10,153.4,11z M150.8,8.5
			c-0.3,0.6-0.6,1.3-0.9,1.9c0.1,0,0.2,0.1,0.2,0.2c0.7,0.2,1.4,0.2,2.1,0.3c-0.3-0.9-0.7-1.8-1.1-2.7
			C150.9,8.2,150.9,8.4,150.8,8.5z M149.9,11.3c0.6,1.7,1.3,3.4,1.9,5.2c0.1,0.1,0.1,0.3,0.3,0.4l-0.1-0.2c0.2-1.5,0.3-3.1,0.5-4.6
			c-0.1-0.1-0.2-0.3-0.3-0.4C151.3,11.5,150.6,11.4,149.9,11.3z M146.8,12.7c-0.3,0.1,0,0.3,0.1,0.5c1.5,1.3,3,2.5,4.5,3.8
			c-0.6-1.8-1.3-3.5-1.9-5.3c-0.2-0.1-0.3-0.1-0.5-0.2C148.3,11.9,147.5,12.3,146.8,12.7z M152.8,12.4c-0.2,1.6-0.3,3.2-0.5,4.8
			c1.2-1,2.6-2,3.8-3.1c-1-0.7-1.9-1.4-2.9-2.1C152.8,11.9,152.8,12.3,152.8,12.4z M146.3,13.3c0,1.8,0,3.7,0,5.5
			c0,0.2,0.1,0.3,0.2,0.5c1.6-0.6,3.3-1.1,4.9-1.7C149.7,16.2,148,14.7,146.3,13.3z M152.5,17.7c0.8,0.6,1.6,1.1,2.5,1.6
			c0.4,0.3,0.8,0.6,1.3,0.8c0.1-1,0-2.1,0-3.1c0-0.8,0-1.6,0-2.3C155,15.7,153.8,16.7,152.5,17.7z M152,18.6
			c-0.3,1.1-0.7,2.2-0.9,3.3c1.6-0.4,3.2-0.9,4.8-1.3c-1.1-0.8-2.3-1.5-3.4-2.2C152.3,18.4,152.1,18.5,152,18.6z M146.9,19.9
			c0.4,0.2,0.8,0.3,1.2,0.5c0.2-0.1,0.4-0.2,0.6-0.3c0,0,0.1,0.1,0.2,0.1c0.6-0.6,1.3-1.2,1.9-1.8C149.5,19,148.2,19.4,146.9,19.9z
			 M149.1,20.8c0.2,0.5,0.7,0.6,1.1,0.9c0.1-0.1,0.4-0.2,0.4-0.4c0.3-0.9,0.6-1.8,0.8-2.8C150.7,19.4,149.9,20.1,149.1,20.8z
			 M146.2,21c0,1.9,0,3.7,0,5.6c0.5-1.7,1.2-3.4,1.8-5.1c-0.1-0.2-0.1-0.3-0.2-0.5c-0.5-0.2-0.9-0.4-1.4-0.6
			C146.2,20.4,146.3,20.8,146.2,21z M151.4,22.5c-0.2,0-0.2,0.3-0.3,0.4c0.4,0.8,0.7,1.6,1.1,2.5c0.4,0,0.5-0.4,0.8-0.6
			c0.9-1.1,1.9-2.3,2.8-3.4C154.3,21.7,152.9,22.1,151.4,22.5z M148.7,22.1c-0.1,1.5-0.2,3-0.3,4.5c0.6-1.2,1.2-2.5,1.7-3.7
			c0-0.7-0.7-1-1.2-1.3C148.7,21.7,148.7,21.9,148.7,22.1z M152.8,25.7c1,0.1,2,0.1,3,0.2c0.1-0.2,0.4-0.3,0.4-0.5
			c0.1-1.3,0.1-2.6,0.2-3.8C155.1,22.9,154,24.3,152.8,25.7z M146.5,27.1c-0.2,0.6,0.6,0.4,0.9,0.4c0.1-0.1,0.3-0.3,0.4-0.4
			c0.2-1.5,0.2-3.1,0.4-4.6C147.7,24.1,147.1,25.6,146.5,27.1z M150.4,23.4c-0.6,1.3-1.2,2.6-1.8,3.9c1-0.4,1.9-0.9,2.9-1.3
			c0.1-0.2,0.1-0.3,0.2-0.5c-0.4-0.8-0.7-1.6-1.1-2.4C150.5,23.1,150.5,23.3,150.4,23.4z M151.9,27.1c-0.3,0.6-0.6,1.2-0.9,1.9
			c1.4-0.8,2.8-1.6,4.2-2.5c-0.8,0-1.6-0.1-2.4-0.1C152.6,26.7,152.1,26.7,151.9,27.1z M148.7,27.9c0.4,0.5,0.9,0.7,1.3,1.1
			c0.2,0,0.3-0.1,0.5-0.1c0.4-0.8,0.8-1.5,1.2-2.3C150.7,27.1,149.7,27.5,148.7,27.9z M155.6,27c-1.4,0.8-2.7,1.6-4.1,2.3
			c-0.1,0.1-0.3,0.1-0.4,0.3c1.6,0.8,3.2,1.5,4.8,2.2c0.1,0,0.2-0.1,0.2-0.2c0-1.6,0-3.2,0-4.8C155.9,26.9,155.8,26.9,155.6,27z
			 M146.6,28.2c0,0.1-0.1,0.2-0.2,0.3c0.3,1.2,0.7,2.5,1.1,3.7c0.1-1.1,0.2-2.3,0.3-3.4c0.1-0.3-0.1-0.5-0.3-0.7
			C147.2,28.2,146.9,28.2,146.6,28.2z M148.3,28.6c-0.1,1.4-0.2,2.8-0.3,4.2c0.6-0.9,1.2-1.8,1.9-2.7c-0.1-0.2,0-0.5-0.2-0.6
			c-0.4-0.3-0.8-0.6-1.2-0.9C148.4,28.5,148.3,28.6,148.3,28.6z M146.2,29.3c0,1.8-0.1,3.5-0.1,5.3c0.3-0.3,0.6-0.5,0.9-0.8
			c0-0.3,0.1-0.6,0.2-0.8C146.9,31.7,146.6,30.5,146.2,29.3z M150.8,30.2c0.3,0.9,0.5,1.8,0.8,2.6c0.2,0.1,0.3,0.2,0.5,0.3
			c1.1-0.3,2.2-0.5,3.2-0.8c-0.2-0.2-0.4-0.2-0.7-0.4C153.4,31.4,152.1,30.8,150.8,30.2z M148.2,33.3c0.9,0,1.9,0,2.8,0
			c0-0.1,0.2-0.3,0.1-0.4c-0.2-0.8-0.5-1.7-0.8-2.5C149.5,31.3,148.9,32.3,148.2,33.3z M152.2,33.8c0,0.1,0,0.2-0.1,0.2
			c1.3,2.1,2.6,4.2,4,6.3c0-2.4,0-4.8,0-7.2c-0.2-0.1-0.3-0.3-0.5-0.2C154.5,33.2,153.3,33.5,152.2,33.8z M148.1,33.9
			c0.6,1.3,1.4,2.6,2.1,3.9l0.1,0c0.3-1.2,0.5-2.4,0.8-3.6c0-0.1-0.1-0.3-0.1-0.3C150,33.9,149.1,33.9,148.1,33.9z M146.4,35.3
			c1,0.8,2.1,1.6,3.2,2.4c-0.5-1-1.1-2.1-1.7-3.1c-0.1-0.2-0.4-0.3-0.6-0.4C147,34.6,146.4,34.8,146.4,35.3z M151.5,34.7
			c-0.2,1-0.4,2-0.7,3c-0.1,0.4,0.2,0.8,0.2,1.2c0.6,0.5,1.1,1,1.7,1.6C152.3,38.5,152,36.6,151.5,34.7z M152,34.8
			c0.4,1.7,0.7,3.5,1.1,5.2c0,0.3,0.4,0.5,0.6,0.7c0.7,0,1.4,0,2.1,0C154.6,38.8,153.3,36.8,152,34.8z M146,36c0.1,2,0.1,4,0.2,6
			c0.1,0,0.2,0.1,0.2,0.2c0.7-0.3,1.4-0.6,2.1-0.9c0-0.1,0.1-0.3,0.1-0.4C147.8,39.3,146.9,37.7,146,36z M146.6,36.1
			c0.9,1.5,1.7,3,2.5,4.5c0,0,0.1,0,0.2,0c0.2-0.4,0.4-0.8,0.5-1.3c0.1-0.3-0.1-0.6-0.1-0.9C148.6,37.7,147.6,36.9,146.6,36.1z
			 M150.3,39.4c-0.2,0.5-0.5,1.1-0.6,1.6c0.9,0,1.8-0.1,2.7-0.1c-0.6-0.5-1.2-1.1-1.7-1.6C150.6,39.3,150.4,39.4,150.3,39.4z
			 M157,41.4c-0.1,0.1-0.2,0.2-0.3,0.4c0.1,0.4,0.1,0.8,0.2,1.2c0,0.2,0.3,0.4,0.5,0.2c1.1-0.6,2.2-1.2,3.2-1.9
			C159.4,41.3,158.2,41.4,157,41.4z M162.2,41.5c0.2,0.5,0.3,1,0.5,1.4c0.1,0.1,0.3,0.1,0.5,0.2c0.9-0.6,1.8-1.1,2.7-1.7
			c-1.1,0-2.3-0.1-3.4-0.1C162.4,41.3,162.3,41.4,162.2,41.5z M149.8,41.7c-0.3,0.2,0,0.5,0,0.8c0.3,0.7,0.5,1.4,0.8,2.1
			c0,0,0.1,0,0.2,0c0.6-1,1.3-2,1.8-3C151.7,41.6,150.7,41.6,149.8,41.7z M154.1,41.5c0.8,0.6,1.6,1.2,2.4,1.8
			c-0.1-0.4-0.1-0.9-0.3-1.3c-0.1-0.2-0.3-0.3-0.5-0.5C155.2,41.5,154.6,41.5,154.1,41.5z M158,43.5c1.4,0,2.8-0.1,4.2-0.1
			c0-0.1,0.1-0.2,0.2-0.3c-0.2-0.5-0.3-0.9-0.5-1.4c-0.1-0.1-0.3-0.1-0.4-0.2C160.3,42.2,159.2,42.9,158,43.5z M167.6,41.5
			c0.2,0.2,0.4,0.5,0.6,0.7c0.2,0,0.5,0.1,0.7,0.2c0.6-0.2,1.2-0.5,1.7-0.8C169.6,41.6,168.6,41.5,167.6,41.5z M152.8,42.2
			c-0.6,0.9-1.1,1.8-1.6,2.7c1.6-0.4,3.3-0.7,4.9-1.1c-0.8-0.7-1.7-1.3-2.6-2C153.3,41.9,152.9,41.9,152.8,42.2z M164.1,43.2
			c1.3-0.2,2.5-0.3,3.8-0.5c-0.2-0.3-0.5-0.6-0.7-0.9c-0.2,0-0.5,0-0.7-0.1C165.7,42.3,164.9,42.7,164.1,43.2z M146.7,42.8
			c1.1,0.7,2.3,1.3,3.4,1.9c-0.3-0.8-0.6-1.7-0.9-2.6c-0.2-0.1-0.4-0.1-0.5-0.2C148.1,42.2,147.4,42.5,146.7,42.8z M171.6,42
			c-0.8,0.3-1.6,0.7-2.5,1.1c1.1,0.8,2.1,1.6,3.2,2.3c-0.1-1-0.2-2.1-0.3-3.1C172.1,42.1,171.8,41.9,171.6,42z M163.8,43.9
			c1.6,0.8,3,1.7,4.6,2.4c0-0.9-0.1-1.7-0.1-2.5c-0.2-0.1-0.3-0.4-0.6-0.4C166.4,43.6,165.1,43.7,163.8,43.9z M146.2,49.2
			c0.5-0.6,1-1.2,1.5-1.8c0.3-0.3,0.2-0.7,0.2-1c-0.5-1-1.2-1.9-1.7-2.8C146.2,45.5,146.3,47.3,146.2,49.2z M146.8,43.5
			c0.5,0.9,1.1,1.7,1.6,2.6c0.2,0,0.4,0.1,0.5,0.1c0.4-0.3,0.7-0.6,1.1-0.9C149,44.7,147.9,44.1,146.8,43.5z M168.8,43.6
			c0,0.9,0.1,1.7,0.1,2.6c0.1,0.1,0.2,0.2,0.3,0.3c0.9-0.2,1.8-0.4,2.6-0.6C170.9,45.1,169.9,44.3,168.8,43.6z M157.9,44.1
			c1.1,0.6,2.2,1.2,3.3,1.8c0.4,0.2,0.8,0.5,1.3,0.6c0.1-0.7,0-1.4,0-2.1c-0.1-0.1-0.2-0.3-0.3-0.4C160.8,44,159.3,44.2,157.9,44.1z
			 M163,44.4c-0.1,0.7,0,1.3,0,2c0.1,0.1,0.2,0.3,0.3,0.4c1.4,0,2.8-0.1,4.2-0.2c-1.5-0.7-2.9-1.6-4.3-2.3
			C163.2,44.3,163.1,44.3,163,44.4z M151.8,45.3c1.5,0.4,3,0.9,4.5,1.3c0.1,0,0.2-0.1,0.2-0.2c0.1-0.6,0-1.2,0-1.8
			c-0.1-0.1-0.2-0.2-0.3-0.3C154.8,44.7,153.3,45,151.8,45.3z M157.1,44.6c-0.1,0.6,0,1.2,0,1.8c0.1,0.1,0.2,0.3,0.3,0.4
			c1.4,0,2.7,0,4.1,0c-1.3-0.8-2.6-1.4-3.9-2.1C157.4,44.6,157.2,44.4,157.1,44.6z M151,45.8c0.1,1,0.4,2.1,0.6,3.1
			c0.1,0.1,0.3,0.1,0.4,0.2c1.3-0.6,2.6-1.3,3.9-1.9C154.3,46.7,152.7,46.2,151,45.8z M149.2,46.7c-0.2,0.3,0.1,0.5,0.3,0.7
			c0.6,0.5,1.1,1,1.6,1.5c-0.1-0.7-0.3-1.4-0.5-2.1c-0.1-0.3-0.1-0.7-0.4-0.9C150,46.2,149.6,46.4,149.2,46.7z M169.4,47
			c0.9,0.7,1.7,1.6,2.7,2.2c0,0,0.1-0.1,0.2-0.1c0.1-0.8,0-1.6,0.1-2.5c-0.1-0.1-0.2-0.2-0.2-0.3C171.2,46.6,170.3,46.9,169.4,47z
			 M163.4,47.4c0.5,0.5,1,1.2,1.5,1.7c0.3,0,0.6,0,0.8,0c0.8-0.5,1.4-1.3,2.1-1.8C166.4,47.3,164.9,47.4,163.4,47.4z M157.3,47.4
			c0.3,0.4,0.5,0.8,0.8,1.3c0.2,0.4,0.7,0.6,1.1,0.4c0.9-0.5,1.7-1.1,2.5-1.7C160.2,47.5,158.8,47.4,157.3,47.4z M148.3,47.6
			c-0.5,0.6-1.1,1.2-1.6,1.9c1.4,0,2.8-0.1,4.2-0.2c-0.7-0.6-1.3-1.1-2-1.7C148.7,47.6,148.5,47.6,148.3,47.6z M168.3,47.6
			c-0.7,0.7-1.5,1.2-2.2,1.9c1.8,0,3.6,0,5.4,0c-0.8-0.7-1.6-1.3-2.4-2C168.8,47.6,168.6,47.6,168.3,47.6z M153,49.3
			c0.7,0,1.5,0,2.2,0.1c0.9,0.1,1.9-0.1,2.8,0c-0.3-0.5-0.7-1-1-1.5c-0.2,0-0.5-0.1-0.7-0.2C155.2,48.3,154,48.7,153,49.3z
			 M159.6,49.6c1.7,0,3.3,0,5,0c-0.5-0.6-1-1.1-1.5-1.7c-0.2,0-0.5,0-0.7-0.1C161.4,48.3,160.5,49,159.6,49.6z"/>
	</g>
</g>
</svg>
